<?xml version="1.0" encoding="UTF-8" standalone="no"?>
<!DOCTYPE svg PUBLIC "-//W3C//DTD SVG 1.1//EN"
 "http://www.w3.org/Graphics/SVG/1.1/DTD/svg11.dtd">
<!-- Generated by graphviz version 2.40.1 (20161225.0304)
 -->
<!-- Title: G Pages: 1 -->
<svg width="1113pt" height="744pt"
 viewBox="0.00 0.00 1113.20 744.02" xmlns="http://www.w3.org/2000/svg" xmlns:xlink="http://www.w3.org/1999/xlink">
<g id="graph0" class="graph" transform="scale(1 1) rotate(0) translate(21.6 722.4223)">
<title>G</title>
<polygon fill="#111111" stroke="transparent" points="-21.6,21.6 -21.6,-722.4223 1091.6,-722.4223 1091.6,21.6 -21.6,21.6"/>
<!-- constants/constants.js -->
<g id="node1" class="node">
<title>constants/constants.js</title>
<path fill="none" stroke="#cfffac" d="M1058.8333,-287.5721C1058.8333,-287.5721 913.1667,-287.5721 913.1667,-287.5721 909.3333,-287.5721 905.5,-283.7387 905.5,-279.9054 905.5,-279.9054 905.5,-272.2387 905.5,-272.2387 905.5,-268.4054 909.3333,-264.5721 913.1667,-264.5721 913.1667,-264.5721 1058.8333,-264.5721 1058.8333,-264.5721 1062.6667,-264.5721 1066.5,-268.4054 1066.5,-272.2387 1066.5,-272.2387 1066.5,-279.9054 1066.5,-279.9054 1066.5,-283.7387 1062.6667,-287.5721 1058.8333,-287.5721"/>
<text text-anchor="middle" x="986" y="-272.3721" font-family="Arial" font-size="14.00" fill="#cfffac">constants/constants.js</text>
</g>
<!-- constants/response.js -->
<g id="node2" class="node">
<title>constants/response.js</title>
<path fill="none" stroke="#cfffac" d="M1057.3333,-505.5721C1057.3333,-505.5721 914.6667,-505.5721 914.6667,-505.5721 910.8333,-505.5721 907,-501.7387 907,-497.9054 907,-497.9054 907,-490.2387 907,-490.2387 907,-486.4054 910.8333,-482.5721 914.6667,-482.5721 914.6667,-482.5721 1057.3333,-482.5721 1057.3333,-482.5721 1061.1667,-482.5721 1065,-486.4054 1065,-490.2387 1065,-490.2387 1065,-497.9054 1065,-497.9054 1065,-501.7387 1061.1667,-505.5721 1057.3333,-505.5721"/>
<text text-anchor="middle" x="986" y="-490.3721" font-family="Arial" font-size="14.00" fill="#cfffac">constants/response.js</text>
</g>
<!-- controllers/accessToken.js -->
<g id="node3" class="node">
<title>controllers/accessToken.js</title>
<path fill="none" stroke="#c6c5fe" d="M393.3333,-124.5721C393.3333,-124.5721 220.6667,-124.5721 220.6667,-124.5721 216.8333,-124.5721 213,-120.7387 213,-116.9054 213,-116.9054 213,-109.2387 213,-109.2387 213,-105.4054 216.8333,-101.5721 220.6667,-101.5721 220.6667,-101.5721 393.3333,-101.5721 393.3333,-101.5721 397.1667,-101.5721 401,-105.4054 401,-109.2387 401,-109.2387 401,-116.9054 401,-116.9054 401,-120.7387 397.1667,-124.5721 393.3333,-124.5721"/>
<text text-anchor="middle" x="307" y="-109.3721" font-family="Arial" font-size="14.00" fill="#c6c5fe">controllers/accessToken.js</text>
</g>
<!-- controllers/accessToken.js&#45;&gt;constants/response.js -->
<g id="edge1" class="edge">
<title>controllers/accessToken.js&#45;&gt;constants/response.js</title>
<path fill="none" stroke="#757575" d="M319.7658,-101.2923C341.7234,-81.9258 388.934,-44.1078 437,-30.0721 520.6189,-5.6545 563.6167,22.5996 633,-30.0721 680.4104,-66.0632 629.0765,-114.9221 669,-159.0721 732.051,-228.798 797.4752,-171.7177 866,-236.0721 884.8108,-253.738 952.861,-414.4516 977.2373,-472.9246"/>
<polygon fill="#757575" stroke="#757575" points="974.0639,-474.4088 981.1356,-482.2981 980.5272,-471.7208 974.0639,-474.4088"/>
</g>
<!-- helpers/crypto.js -->
<g id="node4" class="node">
<title>helpers/crypto.js</title>
<path fill="none" stroke="#cfffac" d="M588.3333,-103.5721C588.3333,-103.5721 481.6667,-103.5721 481.6667,-103.5721 477.8333,-103.5721 474,-99.7387 474,-95.9054 474,-95.9054 474,-88.2387 474,-88.2387 474,-84.4054 477.8333,-80.5721 481.6667,-80.5721 481.6667,-80.5721 588.3333,-80.5721 588.3333,-80.5721 592.1667,-80.5721 596,-84.4054 596,-88.2387 596,-88.2387 596,-95.9054 596,-95.9054 596,-99.7387 592.1667,-103.5721 588.3333,-103.5721"/>
<text text-anchor="middle" x="535" y="-88.3721" font-family="Arial" font-size="14.00" fill="#cfffac">helpers/crypto.js</text>
</g>
<!-- controllers/accessToken.js&#45;&gt;helpers/crypto.js -->
<g id="edge2" class="edge">
<title>controllers/accessToken.js&#45;&gt;helpers/crypto.js</title>
<path fill="none" stroke="#757575" d="M401.0527,-104.4093C421.9443,-102.4851 443.7584,-100.4759 463.5696,-98.6512"/>
<polygon fill="#757575" stroke="#757575" points="464.0947,-102.1177 473.7315,-97.7152 463.4526,-95.1472 464.0947,-102.1177"/>
</g>
<!-- helpers/format.js -->
<g id="node5" class="node">
<title>helpers/format.js</title>
<path fill="none" stroke="#cfffac" d="M588.8333,-185.5721C588.8333,-185.5721 481.1667,-185.5721 481.1667,-185.5721 477.3333,-185.5721 473.5,-181.7387 473.5,-177.9054 473.5,-177.9054 473.5,-170.2387 473.5,-170.2387 473.5,-166.4054 477.3333,-162.5721 481.1667,-162.5721 481.1667,-162.5721 588.8333,-162.5721 588.8333,-162.5721 592.6667,-162.5721 596.5,-166.4054 596.5,-170.2387 596.5,-170.2387 596.5,-177.9054 596.5,-177.9054 596.5,-181.7387 592.6667,-185.5721 588.8333,-185.5721"/>
<text text-anchor="middle" x="535" y="-170.3721" font-family="Arial" font-size="14.00" fill="#cfffac">helpers/format.js</text>
</g>
<!-- controllers/accessToken.js&#45;&gt;helpers/format.js -->
<g id="edge3" class="edge">
<title>controllers/accessToken.js&#45;&gt;helpers/format.js</title>
<path fill="none" stroke="#757575" d="M340.3912,-124.6599C366.487,-133.4582 403.7812,-145.469 437,-154.0721 445.6414,-156.31 454.7639,-158.4557 463.826,-160.4558"/>
<polygon fill="#757575" stroke="#757575" points="463.0966,-163.8789 473.6099,-162.5665 464.5729,-157.0363 463.0966,-163.8789"/>
</g>
<!-- repositories/accessToken.js -->
<g id="node6" class="node">
<title>repositories/accessToken.js</title>
<path fill="none" stroke="#c6c5fe" d="M625.3333,-144.5721C625.3333,-144.5721 444.6667,-144.5721 444.6667,-144.5721 440.8333,-144.5721 437,-140.7387 437,-136.9054 437,-136.9054 437,-129.2387 437,-129.2387 437,-125.4054 440.8333,-121.5721 444.6667,-121.5721 444.6667,-121.5721 625.3333,-121.5721 625.3333,-121.5721 629.1667,-121.5721 633,-125.4054 633,-129.2387 633,-129.2387 633,-136.9054 633,-136.9054 633,-140.7387 629.1667,-144.5721 625.3333,-144.5721"/>
<text text-anchor="middle" x="535" y="-129.3721" font-family="Arial" font-size="14.00" fill="#c6c5fe">repositories/accessToken.js</text>
</g>
<!-- controllers/accessToken.js&#45;&gt;repositories/accessToken.js -->
<g id="edge4" class="edge">
<title>controllers/accessToken.js&#45;&gt;repositories/accessToken.js</title>
<path fill="none" stroke="#757575" d="M401.0527,-121.3223C409.5166,-122.0648 418.132,-122.8205 426.7043,-123.5725"/>
<polygon fill="#757575" stroke="#757575" points="426.4683,-127.0651 436.736,-124.4524 427.0801,-120.0919 426.4683,-127.0651"/>
</g>
<!-- repositories/user.js -->
<g id="node7" class="node">
<title>repositories/user.js</title>
<path fill="none" stroke="#c6c5fe" d="M596.3333,-62.5721C596.3333,-62.5721 473.6667,-62.5721 473.6667,-62.5721 469.8333,-62.5721 466,-58.7387 466,-54.9054 466,-54.9054 466,-47.2387 466,-47.2387 466,-43.4054 469.8333,-39.5721 473.6667,-39.5721 473.6667,-39.5721 596.3333,-39.5721 596.3333,-39.5721 600.1667,-39.5721 604,-43.4054 604,-47.2387 604,-47.2387 604,-54.9054 604,-54.9054 604,-58.7387 600.1667,-62.5721 596.3333,-62.5721"/>
<text text-anchor="middle" x="535" y="-47.3721" font-family="Arial" font-size="14.00" fill="#c6c5fe">repositories/user.js</text>
</g>
<!-- controllers/accessToken.js&#45;&gt;repositories/user.js -->
<g id="edge5" class="edge">
<title>controllers/accessToken.js&#45;&gt;repositories/user.js</title>
<path fill="none" stroke="#757575" d="M340.6856,-101.4852C366.781,-92.7441 403.9381,-80.8072 437,-72.0721 446.589,-69.5386 456.7664,-67.0922 466.7947,-64.8198"/>
<polygon fill="#757575" stroke="#757575" points="467.7433,-68.1944 476.746,-62.6085 466.2248,-61.3611 467.7433,-68.1944"/>
</g>
<!-- helpers/jwt.js -->
<g id="node9" class="node">
<title>helpers/jwt.js</title>
<path fill="none" stroke="#c6c5fe" d="M809.8333,-583.5721C809.8333,-583.5721 725.1667,-583.5721 725.1667,-583.5721 721.3333,-583.5721 717.5,-579.7387 717.5,-575.9054 717.5,-575.9054 717.5,-568.2387 717.5,-568.2387 717.5,-564.4054 721.3333,-560.5721 725.1667,-560.5721 725.1667,-560.5721 809.8333,-560.5721 809.8333,-560.5721 813.6667,-560.5721 817.5,-564.4054 817.5,-568.2387 817.5,-568.2387 817.5,-575.9054 817.5,-575.9054 817.5,-579.7387 813.6667,-583.5721 809.8333,-583.5721"/>
<text text-anchor="middle" x="767.5" y="-568.3721" font-family="Arial" font-size="14.00" fill="#c6c5fe">helpers/jwt.js</text>
</g>
<!-- repositories/accessToken.js&#45;&gt;helpers/jwt.js -->
<g id="edge45" class="edge">
<title>repositories/accessToken.js&#45;&gt;helpers/jwt.js</title>
<path fill="none" stroke="#757575" d="M621.9588,-144.7782C626.0036,-147.3871 629.7304,-150.4601 633,-154.0721 681.172,-207.2877 637.6244,-410.5119 669,-475.0721 685.2791,-508.5689 718.0142,-537.0974 741.2741,-554.3731"/>
<polygon fill="#757575" stroke="#757575" points="739.513,-557.4182 749.6707,-560.4301 743.6083,-551.7412 739.513,-557.4182"/>
</g>
<!-- models/accessToken.js -->
<g id="node26" class="node">
<title>models/accessToken.js</title>
<path fill="none" stroke="#cfffac" d="M1062.3333,-108.5721C1062.3333,-108.5721 909.6667,-108.5721 909.6667,-108.5721 905.8333,-108.5721 902,-104.7387 902,-100.9054 902,-100.9054 902,-93.2387 902,-93.2387 902,-89.4054 905.8333,-85.5721 909.6667,-85.5721 909.6667,-85.5721 1062.3333,-85.5721 1062.3333,-85.5721 1066.1667,-85.5721 1070,-89.4054 1070,-93.2387 1070,-93.2387 1070,-100.9054 1070,-100.9054 1070,-104.7387 1066.1667,-108.5721 1062.3333,-108.5721"/>
<text text-anchor="middle" x="986" y="-93.3721" font-family="Arial" font-size="14.00" fill="#cfffac">models/accessToken.js</text>
</g>
<!-- repositories/accessToken.js&#45;&gt;models/accessToken.js -->
<g id="edge46" class="edge">
<title>repositories/accessToken.js&#45;&gt;models/accessToken.js</title>
<path fill="none" stroke="#757575" d="M613.2502,-121.4957C620.1191,-119.18 626.806,-116.4026 633,-113.0721 652.929,-102.3561 648.095,-85.7312 669,-77.0721 749.8908,-43.566 778.7428,-69.8505 866,-77.0721 883.2435,-78.4992 901.7395,-81.061 918.9205,-83.8852"/>
<polygon fill="#757575" stroke="#757575" points="918.4206,-87.3503 928.8651,-85.5718 919.5911,-80.4489 918.4206,-87.3503"/>
</g>
<!-- models/user.js -->
<g id="node28" class="node">
<title>models/user.js</title>
<path fill="none" stroke="#cfffac" d="M1033.3333,-67.5721C1033.3333,-67.5721 938.6667,-67.5721 938.6667,-67.5721 934.8333,-67.5721 931,-63.7387 931,-59.9054 931,-59.9054 931,-52.2387 931,-52.2387 931,-48.4054 934.8333,-44.5721 938.6667,-44.5721 938.6667,-44.5721 1033.3333,-44.5721 1033.3333,-44.5721 1037.1667,-44.5721 1041,-48.4054 1041,-52.2387 1041,-52.2387 1041,-59.9054 1041,-59.9054 1041,-63.7387 1037.1667,-67.5721 1033.3333,-67.5721"/>
<text text-anchor="middle" x="986" y="-52.3721" font-family="Arial" font-size="14.00" fill="#cfffac">models/user.js</text>
</g>
<!-- repositories/user.js&#45;&gt;models/user.js -->
<g id="edge49" class="edge">
<title>repositories/user.js&#45;&gt;models/user.js</title>
<path fill="none" stroke="#757575" d="M604.1679,-46.1529C624.9953,-44.8848 647.9181,-43.7008 669,-43.0721 756.5166,-40.462 778.5719,-38.3502 866,-43.0721 883.7541,-44.031 902.9215,-45.7823 920.6151,-47.6954"/>
<polygon fill="#757575" stroke="#757575" points="920.5143,-51.2058 930.8407,-48.8358 921.2902,-44.2489 920.5143,-51.2058"/>
</g>
<!-- controllers/authorizer.js -->
<g id="node8" class="node">
<title>controllers/authorizer.js</title>
<path fill="none" stroke="#c6c5fe" d="M610.3333,-697.5721C610.3333,-697.5721 459.6667,-697.5721 459.6667,-697.5721 455.8333,-697.5721 452,-693.7387 452,-689.9054 452,-689.9054 452,-682.2387 452,-682.2387 452,-678.4054 455.8333,-674.5721 459.6667,-674.5721 459.6667,-674.5721 610.3333,-674.5721 610.3333,-674.5721 614.1667,-674.5721 618,-678.4054 618,-682.2387 618,-682.2387 618,-689.9054 618,-689.9054 618,-693.7387 614.1667,-697.5721 610.3333,-697.5721"/>
<text text-anchor="middle" x="535" y="-682.3721" font-family="Arial" font-size="14.00" fill="#c6c5fe">controllers/authorizer.js</text>
</g>
<!-- controllers/authorizer.js&#45;&gt;constants/response.js -->
<g id="edge6" class="edge">
<title>controllers/authorizer.js&#45;&gt;constants/response.js</title>
<path fill="none" stroke="#757575" d="M612.8748,-697.5828C683.5246,-704.1188 788.221,-703.745 866,-660.0721 924.6693,-627.1292 962.1662,-552.2009 977.7383,-515.3464"/>
<polygon fill="#757575" stroke="#757575" points="981.0035,-516.6085 981.5484,-506.0277 974.5241,-513.9593 981.0035,-516.6085"/>
</g>
<!-- controllers/authorizer.js&#45;&gt;helpers/jwt.js -->
<g id="edge7" class="edge">
<title>controllers/authorizer.js&#45;&gt;helpers/jwt.js</title>
<path fill="none" stroke="#757575" d="M558.5728,-674.5138C600.2627,-654.0723 687.0784,-611.5046 734.6246,-588.1916"/>
<polygon fill="#757575" stroke="#757575" points="736.4269,-591.2061 743.8648,-583.661 733.3451,-584.9209 736.4269,-591.2061"/>
</g>
<!-- helpers/jwt.js&#45;&gt;constants/response.js -->
<g id="edge36" class="edge">
<title>helpers/jwt.js&#45;&gt;constants/response.js</title>
<path fill="none" stroke="#757575" d="M817.0391,-560.5522C832.8375,-556.4653 850.2907,-551.5142 866,-546.0721 895.9816,-535.6856 928.9889,-521.1433 952.7844,-510.0775"/>
<polygon fill="#757575" stroke="#757575" points="954.4984,-513.1393 962.0632,-505.7215 951.5237,-506.8028 954.4984,-513.1393"/>
</g>
<!-- controllers/idea.js -->
<g id="node10" class="node">
<title>controllers/idea.js</title>
<path fill="none" stroke="#c6c5fe" d="M363.8333,-480.5721C363.8333,-480.5721 250.1667,-480.5721 250.1667,-480.5721 246.3333,-480.5721 242.5,-476.7387 242.5,-472.9054 242.5,-472.9054 242.5,-465.2387 242.5,-465.2387 242.5,-461.4054 246.3333,-457.5721 250.1667,-457.5721 250.1667,-457.5721 363.8333,-457.5721 363.8333,-457.5721 367.6667,-457.5721 371.5,-461.4054 371.5,-465.2387 371.5,-465.2387 371.5,-472.9054 371.5,-472.9054 371.5,-476.7387 367.6667,-480.5721 363.8333,-480.5721"/>
<text text-anchor="middle" x="307" y="-465.3721" font-family="Arial" font-size="14.00" fill="#c6c5fe">controllers/idea.js</text>
</g>
<!-- controllers/idea.js&#45;&gt;constants/response.js -->
<g id="edge8" class="edge">
<title>controllers/idea.js&#45;&gt;constants/response.js</title>
<path fill="none" stroke="#757575" d="M313.2586,-480.6262C329.3289,-508.9051 375.1665,-581.2398 437,-608.0721 612.0152,-684.0188 688.618,-663.3135 866,-593.0721 909.3527,-575.9048 948.8086,-536.8668 969.9066,-513.2647"/>
<polygon fill="#757575" stroke="#757575" points="972.6395,-515.4561 976.5799,-505.6212 967.3665,-510.8523 972.6395,-515.4561"/>
</g>
<!-- controllers/idea.js&#45;&gt;helpers/format.js -->
<g id="edge9" class="edge">
<title>controllers/idea.js&#45;&gt;helpers/format.js</title>
<path fill="none" stroke="#757575" d="M323.5451,-457.3225C344.9973,-441.1455 381.9162,-409.9119 401,-374.0721 439.1396,-302.4449 379.9826,-252.8138 437,-195.0721 444.3656,-187.6129 453.692,-182.5015 463.6483,-179.046"/>
<polygon fill="#757575" stroke="#757575" points="464.7239,-182.3782 473.3436,-176.2177 462.7636,-175.6583 464.7239,-182.3782"/>
</g>
<!-- controllers/idea.js&#45;&gt;helpers/jwt.js -->
<g id="edge10" class="edge">
<title>controllers/idea.js&#45;&gt;helpers/jwt.js</title>
<path fill="none" stroke="#757575" d="M315.4035,-480.8515C333.9517,-505.701 381.2062,-562.9357 437,-584.0721 530.3321,-619.4292 649.296,-601.2379 716.0519,-585.9165"/>
<polygon fill="#757575" stroke="#757575" points="716.9822,-589.2932 725.9093,-583.5873 715.3724,-582.4808 716.9822,-589.2932"/>
</g>
<!-- repositories/idea.js -->
<g id="node11" class="node">
<title>repositories/idea.js</title>
<path fill="none" stroke="#c6c5fe" d="M828.3333,-347.5721C828.3333,-347.5721 706.6667,-347.5721 706.6667,-347.5721 702.8333,-347.5721 699,-343.7387 699,-339.9054 699,-339.9054 699,-332.2387 699,-332.2387 699,-328.4054 702.8333,-324.5721 706.6667,-324.5721 706.6667,-324.5721 828.3333,-324.5721 828.3333,-324.5721 832.1667,-324.5721 836,-328.4054 836,-332.2387 836,-332.2387 836,-339.9054 836,-339.9054 836,-343.7387 832.1667,-347.5721 828.3333,-347.5721"/>
<text text-anchor="middle" x="767.5" y="-332.3721" font-family="Arial" font-size="14.00" fill="#c6c5fe">repositories/idea.js</text>
</g>
<!-- controllers/idea.js&#45;&gt;repositories/idea.js -->
<g id="edge11" class="edge">
<title>controllers/idea.js&#45;&gt;repositories/idea.js</title>
<path fill="none" stroke="#757575" d="M342.9514,-457.5414C368.9438,-449.3878 404.9738,-438.4596 437,-430.0721 523.3664,-407.4531 547.4074,-411.4624 633,-386.0721 666.502,-376.134 703.6721,-362.0749 730.4318,-351.3947"/>
<polygon fill="#757575" stroke="#757575" points="731.8236,-354.6074 739.7936,-347.6266 729.2099,-348.1137 731.8236,-354.6074"/>
</g>
<!-- validations/idea.js -->
<g id="node12" class="node">
<title>validations/idea.js</title>
<path fill="none" stroke="#c6c5fe" d="M592.8333,-541.5721C592.8333,-541.5721 477.1667,-541.5721 477.1667,-541.5721 473.3333,-541.5721 469.5,-537.7387 469.5,-533.9054 469.5,-533.9054 469.5,-526.2387 469.5,-526.2387 469.5,-522.4054 473.3333,-518.5721 477.1667,-518.5721 477.1667,-518.5721 592.8333,-518.5721 592.8333,-518.5721 596.6667,-518.5721 600.5,-522.4054 600.5,-526.2387 600.5,-526.2387 600.5,-533.9054 600.5,-533.9054 600.5,-537.7387 596.6667,-541.5721 592.8333,-541.5721"/>
<text text-anchor="middle" x="535" y="-526.3721" font-family="Arial" font-size="14.00" fill="#c6c5fe">validations/idea.js</text>
</g>
<!-- controllers/idea.js&#45;&gt;validations/idea.js -->
<g id="edge12" class="edge">
<title>controllers/idea.js&#45;&gt;validations/idea.js</title>
<path fill="none" stroke="#757575" d="M349.7316,-480.619C375.0889,-487.4604 407.8711,-496.2869 437,-504.0721 451.3697,-507.9126 466.9304,-512.0506 481.3303,-515.8711"/>
<polygon fill="#757575" stroke="#757575" points="480.522,-519.2777 491.0851,-518.4579 482.3163,-512.5115 480.522,-519.2777"/>
</g>
<!-- repositories/idea.js&#45;&gt;constants/constants.js -->
<g id="edge47" class="edge">
<title>repositories/idea.js&#45;&gt;constants/constants.js</title>
<path fill="none" stroke="#757575" d="M812.1664,-324.4639C829.0518,-320.0279 848.4289,-314.8799 866,-310.0721 889.1831,-303.7287 914.8225,-296.4941 936.4297,-290.3337"/>
<polygon fill="#757575" stroke="#757575" points="937.396,-293.6977 946.0503,-287.5859 935.4735,-286.9669 937.396,-293.6977"/>
</g>
<!-- models/idea.js -->
<g id="node27" class="node">
<title>models/idea.js</title>
<path fill="none" stroke="#cfffac" d="M1033.3333,-149.5721C1033.3333,-149.5721 938.6667,-149.5721 938.6667,-149.5721 934.8333,-149.5721 931,-145.7387 931,-141.9054 931,-141.9054 931,-134.2387 931,-134.2387 931,-130.4054 934.8333,-126.5721 938.6667,-126.5721 938.6667,-126.5721 1033.3333,-126.5721 1033.3333,-126.5721 1037.1667,-126.5721 1041,-130.4054 1041,-134.2387 1041,-134.2387 1041,-141.9054 1041,-141.9054 1041,-145.7387 1037.1667,-149.5721 1033.3333,-149.5721"/>
<text text-anchor="middle" x="986" y="-134.3721" font-family="Arial" font-size="14.00" fill="#cfffac">models/idea.js</text>
</g>
<!-- repositories/idea.js&#45;&gt;models/idea.js -->
<g id="edge48" class="edge">
<title>repositories/idea.js&#45;&gt;models/idea.js</title>
<path fill="none" stroke="#757575" d="M791.5786,-324.4263C812.4324,-313.7153 842.8092,-296.5717 866,-277.0721 909.8163,-240.2298 951.205,-186.6834 972.0139,-157.993"/>
<polygon fill="#757575" stroke="#757575" points="975.0452,-159.7716 978.0239,-149.6041 969.3548,-155.6949 975.0452,-159.7716"/>
</g>
<!-- validations/idea.js&#45;&gt;constants/response.js -->
<g id="edge52" class="edge">
<title>validations/idea.js&#45;&gt;constants/response.js</title>
<path fill="none" stroke="#757575" d="M600.7044,-526.671C667.5478,-522.984 774.0927,-516.4824 866,-508.0721 876.0512,-507.1523 886.5638,-506.0836 897.0091,-504.9546"/>
<polygon fill="#757575" stroke="#757575" points="897.4289,-508.4296 906.9859,-503.8564 896.6629,-501.4716 897.4289,-508.4296"/>
</g>
<!-- helpers/validation.js -->
<g id="node25" class="node">
<title>helpers/validation.js</title>
<path fill="none" stroke="#c6c5fe" d="M831.8333,-465.5721C831.8333,-465.5721 703.1667,-465.5721 703.1667,-465.5721 699.3333,-465.5721 695.5,-461.7387 695.5,-457.9054 695.5,-457.9054 695.5,-450.2387 695.5,-450.2387 695.5,-446.4054 699.3333,-442.5721 703.1667,-442.5721 703.1667,-442.5721 831.8333,-442.5721 831.8333,-442.5721 835.6667,-442.5721 839.5,-446.4054 839.5,-450.2387 839.5,-450.2387 839.5,-457.9054 839.5,-457.9054 839.5,-461.7387 835.6667,-465.5721 831.8333,-465.5721"/>
<text text-anchor="middle" x="767.5" y="-450.3721" font-family="Arial" font-size="14.00" fill="#c6c5fe">helpers/validation.js</text>
</g>
<!-- validations/idea.js&#45;&gt;helpers/validation.js -->
<g id="edge53" class="edge">
<title>validations/idea.js&#45;&gt;helpers/validation.js</title>
<path fill="none" stroke="#757575" d="M570.3117,-518.5293C611.0567,-505.2105 678.1367,-483.2833 722.5667,-468.7599"/>
<polygon fill="#757575" stroke="#757575" points="723.82,-472.0326 732.2376,-465.5987 721.645,-465.379 723.82,-472.0326"/>
</g>
<!-- controllers/user.js -->
<g id="node13" class="node">
<title>controllers/user.js</title>
<path fill="none" stroke="#c6c5fe" d="M364.3333,-267.5721C364.3333,-267.5721 249.6667,-267.5721 249.6667,-267.5721 245.8333,-267.5721 242,-263.7387 242,-259.9054 242,-259.9054 242,-252.2387 242,-252.2387 242,-248.4054 245.8333,-244.5721 249.6667,-244.5721 249.6667,-244.5721 364.3333,-244.5721 364.3333,-244.5721 368.1667,-244.5721 372,-248.4054 372,-252.2387 372,-252.2387 372,-259.9054 372,-259.9054 372,-263.7387 368.1667,-267.5721 364.3333,-267.5721"/>
<text text-anchor="middle" x="307" y="-252.3721" font-family="Arial" font-size="14.00" fill="#c6c5fe">controllers/user.js</text>
</g>
<!-- controllers/user.js&#45;&gt;constants/response.js -->
<g id="edge13" class="edge">
<title>controllers/user.js&#45;&gt;constants/response.js</title>
<path fill="none" stroke="#757575" d="M348.2571,-267.6843C473.3842,-302.9478 841.5587,-407.0597 866,-418.0721 901.6862,-434.151 939.2503,-459.5071 962.6454,-476.4555"/>
<polygon fill="#757575" stroke="#757575" points="960.752,-479.4074 970.8847,-482.5027 964.8938,-473.7642 960.752,-479.4074"/>
</g>
<!-- controllers/user.js&#45;&gt;helpers/crypto.js -->
<g id="edge14" class="edge">
<title>controllers/user.js&#45;&gt;helpers/crypto.js</title>
<path fill="none" stroke="#757575" d="M314.0708,-244.1793C331.2753,-216.3643 378.2524,-146.8678 437,-113.0721 445.2836,-108.3068 454.5235,-104.6196 463.9282,-101.7673"/>
<polygon fill="#757575" stroke="#757575" points="465.0287,-105.095 473.7552,-99.0868 463.1866,-98.3417 465.0287,-105.095"/>
</g>
<!-- controllers/user.js&#45;&gt;helpers/format.js -->
<g id="edge15" class="edge">
<title>controllers/user.js&#45;&gt;helpers/format.js</title>
<path fill="none" stroke="#757575" d="M328.0032,-244.3853C353.2065,-230.7979 397.0718,-208.5219 437,-195.0721 445.4768,-192.2167 454.5008,-189.6613 463.5105,-187.4005"/>
<polygon fill="#757575" stroke="#757575" points="464.3473,-190.7991 473.2548,-185.0627 462.7142,-183.9923 464.3473,-190.7991"/>
</g>
<!-- controllers/user.js&#45;&gt;repositories/accessToken.js -->
<g id="edge17" class="edge">
<title>controllers/user.js&#45;&gt;repositories/accessToken.js</title>
<path fill="none" stroke="#757575" d="M317.9608,-244.5165C338.9371,-223.1323 387.1242,-177.4425 437,-154.0721 442.0715,-151.6957 447.417,-149.5849 452.8873,-147.7105"/>
<polygon fill="#757575" stroke="#757575" points="454.3449,-150.9213 462.8366,-144.5855 452.2473,-144.243 454.3449,-150.9213"/>
</g>
<!-- controllers/user.js&#45;&gt;repositories/user.js -->
<g id="edge18" class="edge">
<title>controllers/user.js&#45;&gt;repositories/user.js</title>
<path fill="none" stroke="#757575" d="M316.8754,-244.3366C334.619,-223.0229 372.6814,-176.2501 401,-134.0721 418.7616,-107.6177 411.2139,-90.7907 437,-72.0721 442.9053,-67.7853 449.5058,-64.3395 456.4152,-61.5741"/>
<polygon fill="#757575" stroke="#757575" points="457.7175,-64.8264 465.9923,-58.2098 455.3975,-58.222 457.7175,-64.8264"/>
</g>
<!-- controllers/user.js&#45;&gt;helpers/jwt.js -->
<g id="edge16" class="edge">
<title>controllers/user.js&#45;&gt;helpers/jwt.js</title>
<path fill="none" stroke="#757575" d="M328.7966,-267.6251C350.7986,-280.5084 383.8984,-303.4837 401,-333.0721 450.141,-418.0934 364.1708,-485.1982 437,-551.0721 475.3229,-585.7351 622.7737,-582.0738 707.208,-576.8179"/>
<polygon fill="#757575" stroke="#757575" points="707.6792,-580.2948 717.4316,-576.1546 707.226,-573.3094 707.6792,-580.2948"/>
</g>
<!-- services/gravatar.js -->
<g id="node14" class="node">
<title>services/gravatar.js</title>
<path fill="none" stroke="#c6c5fe" d="M598.3333,-267.5721C598.3333,-267.5721 471.6667,-267.5721 471.6667,-267.5721 467.8333,-267.5721 464,-263.7387 464,-259.9054 464,-259.9054 464,-252.2387 464,-252.2387 464,-248.4054 467.8333,-244.5721 471.6667,-244.5721 471.6667,-244.5721 598.3333,-244.5721 598.3333,-244.5721 602.1667,-244.5721 606,-248.4054 606,-252.2387 606,-252.2387 606,-259.9054 606,-259.9054 606,-263.7387 602.1667,-267.5721 598.3333,-267.5721"/>
<text text-anchor="middle" x="535" y="-252.3721" font-family="Arial" font-size="14.00" fill="#c6c5fe">services/gravatar.js</text>
</g>
<!-- controllers/user.js&#45;&gt;services/gravatar.js -->
<g id="edge19" class="edge">
<title>controllers/user.js&#45;&gt;services/gravatar.js</title>
<path fill="none" stroke="#757575" d="M372.0305,-256.0721C397.4737,-256.0721 426.9349,-256.0721 453.7535,-256.0721"/>
<polygon fill="#757575" stroke="#757575" points="453.8887,-259.5722 463.8887,-256.0721 453.8886,-252.5722 453.8887,-259.5722"/>
</g>
<!-- validations/user.js -->
<g id="node15" class="node">
<title>validations/user.js</title>
<path fill="none" stroke="#c6c5fe" d="M593.3333,-461.5721C593.3333,-461.5721 476.6667,-461.5721 476.6667,-461.5721 472.8333,-461.5721 469,-457.7387 469,-453.9054 469,-453.9054 469,-446.2387 469,-446.2387 469,-442.4054 472.8333,-438.5721 476.6667,-438.5721 476.6667,-438.5721 593.3333,-438.5721 593.3333,-438.5721 597.1667,-438.5721 601,-442.4054 601,-446.2387 601,-446.2387 601,-453.9054 601,-453.9054 601,-457.7387 597.1667,-461.5721 593.3333,-461.5721"/>
<text text-anchor="middle" x="535" y="-446.3721" font-family="Arial" font-size="14.00" fill="#c6c5fe">validations/user.js</text>
</g>
<!-- controllers/user.js&#45;&gt;validations/user.js -->
<g id="edge20" class="edge">
<title>controllers/user.js&#45;&gt;validations/user.js</title>
<path fill="none" stroke="#757575" d="M321.4485,-267.6735C340.0031,-282.6253 373.1347,-309.5041 401,-333.0721 441.4277,-367.2652 487.8061,-408.135 514.0326,-431.4028"/>
<polygon fill="#757575" stroke="#757575" points="512.0056,-434.2837 521.8064,-438.308 516.6543,-429.0502 512.0056,-434.2837"/>
</g>
<!-- services/gravatar.js&#45;&gt;constants/constants.js -->
<g id="edge50" class="edge">
<title>services/gravatar.js&#45;&gt;constants/constants.js</title>
<path fill="none" stroke="#757575" d="M594.8928,-244.5691C661.5008,-233.6016 772.0939,-220.8332 866,-236.0721 895.0197,-240.7813 926.5048,-251.5042 949.9406,-260.6632"/>
<polygon fill="#757575" stroke="#757575" points="948.8764,-264.0071 959.4611,-264.4707 951.4757,-257.5076 948.8764,-264.0071"/>
</g>
<!-- helpers/logging.js -->
<g id="node17" class="node">
<title>helpers/logging.js</title>
<path fill="none" stroke="#c6c5fe" d="M824.8333,-267.5721C824.8333,-267.5721 710.1667,-267.5721 710.1667,-267.5721 706.3333,-267.5721 702.5,-263.7387 702.5,-259.9054 702.5,-259.9054 702.5,-252.2387 702.5,-252.2387 702.5,-248.4054 706.3333,-244.5721 710.1667,-244.5721 710.1667,-244.5721 824.8333,-244.5721 824.8333,-244.5721 828.6667,-244.5721 832.5,-248.4054 832.5,-252.2387 832.5,-252.2387 832.5,-259.9054 832.5,-259.9054 832.5,-263.7387 828.6667,-267.5721 824.8333,-267.5721"/>
<text text-anchor="middle" x="767.5" y="-252.3721" font-family="Arial" font-size="14.00" fill="#c6c5fe">helpers/logging.js</text>
</g>
<!-- services/gravatar.js&#45;&gt;helpers/logging.js -->
<g id="edge51" class="edge">
<title>services/gravatar.js&#45;&gt;helpers/logging.js</title>
<path fill="none" stroke="#757575" d="M606.021,-256.0721C633.3764,-256.0721 664.6905,-256.0721 692.4169,-256.0721"/>
<polygon fill="#757575" stroke="#757575" points="692.4557,-259.5722 702.4556,-256.0721 692.4556,-252.5722 692.4557,-259.5722"/>
</g>
<!-- validations/user.js&#45;&gt;constants/response.js -->
<g id="edge54" class="edge">
<title>validations/user.js&#45;&gt;constants/response.js</title>
<path fill="none" stroke="#757575" d="M588.2835,-438.5299C654.3928,-426.2442 770.1114,-411.4359 866,-434.0721 900.8221,-442.2925 937.0604,-462.2504 960.4779,-476.9003"/>
<polygon fill="#757575" stroke="#757575" points="958.783,-479.971 969.0924,-482.4139 962.5566,-474.0752 958.783,-479.971"/>
</g>
<!-- validations/user.js&#45;&gt;helpers/validation.js -->
<g id="edge55" class="edge">
<title>validations/user.js&#45;&gt;helpers/validation.js</title>
<path fill="none" stroke="#757575" d="M601.0033,-451.2076C627.1888,-451.6581 657.5861,-452.1811 685.1861,-452.6559"/>
<polygon fill="#757575" stroke="#757575" points="685.1562,-456.1558 695.215,-452.8285 685.2767,-449.1569 685.1562,-456.1558"/>
</g>
<!-- database/database.js -->
<g id="node16" class="node">
<title>database/database.js</title>
<path fill="none" stroke="#c6c5fe" d="M605.3333,-226.5721C605.3333,-226.5721 464.6667,-226.5721 464.6667,-226.5721 460.8333,-226.5721 457,-222.7387 457,-218.9054 457,-218.9054 457,-211.2387 457,-211.2387 457,-207.4054 460.8333,-203.5721 464.6667,-203.5721 464.6667,-203.5721 605.3333,-203.5721 605.3333,-203.5721 609.1667,-203.5721 613,-207.4054 613,-211.2387 613,-211.2387 613,-218.9054 613,-218.9054 613,-222.7387 609.1667,-226.5721 605.3333,-226.5721"/>
<text text-anchor="middle" x="535" y="-211.3721" font-family="Arial" font-size="14.00" fill="#c6c5fe">database/database.js</text>
</g>
<!-- database/database.js&#45;&gt;helpers/logging.js -->
<g id="edge21" class="edge">
<title>database/database.js&#45;&gt;helpers/logging.js</title>
<path fill="none" stroke="#757575" d="M600.3829,-226.602C628.9819,-231.6452 662.6972,-237.5907 692.327,-242.8158"/>
<polygon fill="#757575" stroke="#757575" points="691.7495,-246.2678 702.2054,-244.5578 692.9652,-239.3742 691.7495,-246.2678"/>
</g>
<!-- models/modelAssociation.js -->
<g id="node18" class="node">
<title>models/modelAssociation.js</title>
<path fill="none" stroke="#c6c5fe" d="M858.3333,-149.5721C858.3333,-149.5721 676.6667,-149.5721 676.6667,-149.5721 672.8333,-149.5721 669,-145.7387 669,-141.9054 669,-141.9054 669,-134.2387 669,-134.2387 669,-130.4054 672.8333,-126.5721 676.6667,-126.5721 676.6667,-126.5721 858.3333,-126.5721 858.3333,-126.5721 862.1667,-126.5721 866,-130.4054 866,-134.2387 866,-134.2387 866,-141.9054 866,-141.9054 866,-145.7387 862.1667,-149.5721 858.3333,-149.5721"/>
<text text-anchor="middle" x="767.5" y="-134.3721" font-family="Arial" font-size="14.00" fill="#c6c5fe">models/modelAssociation.js</text>
</g>
<!-- database/database.js&#45;&gt;models/modelAssociation.js -->
<g id="edge22" class="edge">
<title>database/database.js&#45;&gt;models/modelAssociation.js</title>
<path fill="none" stroke="#757575" d="M600.826,-203.5237C611.6686,-201.0841 622.7183,-198.2648 633,-195.0721 668.8081,-183.9529 708.1156,-166.6659 734.9379,-154.0435"/>
<polygon fill="#757575" stroke="#757575" points="736.6992,-157.0815 744.2252,-149.6243 733.6915,-150.7606 736.6992,-157.0815"/>
</g>
<!-- models/modelInit.js -->
<g id="node19" class="node">
<title>models/modelInit.js</title>
<path fill="none" stroke="#c6c5fe" d="M829.8333,-108.5721C829.8333,-108.5721 705.1667,-108.5721 705.1667,-108.5721 701.3333,-108.5721 697.5,-104.7387 697.5,-100.9054 697.5,-100.9054 697.5,-93.2387 697.5,-93.2387 697.5,-89.4054 701.3333,-85.5721 705.1667,-85.5721 705.1667,-85.5721 829.8333,-85.5721 829.8333,-85.5721 833.6667,-85.5721 837.5,-89.4054 837.5,-93.2387 837.5,-93.2387 837.5,-100.9054 837.5,-100.9054 837.5,-104.7387 833.6667,-108.5721 829.8333,-108.5721"/>
<text text-anchor="middle" x="767.5" y="-93.3721" font-family="Arial" font-size="14.00" fill="#c6c5fe">models/modelInit.js</text>
</g>
<!-- database/database.js&#45;&gt;models/modelInit.js -->
<g id="edge23" class="edge">
<title>database/database.js&#45;&gt;models/modelInit.js</title>
<path fill="none" stroke="#757575" d="M613.4541,-206.1733C620.4758,-203.3267 627.1353,-199.6935 633,-195.0721 662.6722,-171.69 639.4302,-141.5835 669,-118.0721 674.6925,-113.5458 681.1355,-109.9361 687.9348,-107.0644"/>
<polygon fill="#757575" stroke="#757575" points="689.2116,-110.3241 697.3904,-103.5893 686.7968,-103.7538 689.2116,-110.3241"/>
</g>
<!-- helpers/logging.js&#45;&gt;constants/constants.js -->
<g id="edge37" class="edge">
<title>helpers/logging.js&#45;&gt;constants/constants.js</title>
<path fill="none" stroke="#757575" d="M832.7612,-262.0456C852.3214,-263.8361 874.1401,-265.8332 895.0396,-267.7462"/>
<polygon fill="#757575" stroke="#757575" points="894.9342,-271.2511 905.2116,-268.6773 895.5723,-264.2802 894.9342,-271.2511"/>
</g>
<!-- models/modelAssociation.js&#45;&gt;models/accessToken.js -->
<g id="edge39" class="edge">
<title>models/modelAssociation.js&#45;&gt;models/accessToken.js</title>
<path fill="none" stroke="#757575" d="M828.9459,-126.5422C855.5891,-121.5428 886.9572,-115.6568 914.6262,-110.4649"/>
<polygon fill="#757575" stroke="#757575" points="915.4541,-113.8707 924.6371,-108.5864 914.1631,-106.9908 915.4541,-113.8707"/>
</g>
<!-- models/modelAssociation.js&#45;&gt;models/idea.js -->
<g id="edge40" class="edge">
<title>models/modelAssociation.js&#45;&gt;models/idea.js</title>
<path fill="none" stroke="#757575" d="M866.2024,-138.0721C884.559,-138.0721 903.3165,-138.0721 920.3759,-138.0721"/>
<polygon fill="#757575" stroke="#757575" points="920.7596,-141.5722 930.7596,-138.0721 920.7595,-134.5722 920.7596,-141.5722"/>
</g>
<!-- models/modelAssociation.js&#45;&gt;models/user.js -->
<g id="edge41" class="edge">
<title>models/modelAssociation.js&#45;&gt;models/user.js</title>
<path fill="none" stroke="#757575" d="M847.6529,-126.4969C854.059,-124.1758 860.2631,-121.3972 866,-118.0721 886.9804,-105.9119 881.2963,-89.6977 902,-77.0721 907.8635,-73.4964 914.3096,-70.5281 920.9436,-68.0643"/>
<polygon fill="#757575" stroke="#757575" points="922.3664,-71.2797 930.7515,-64.8036 920.158,-64.6372 922.3664,-71.2797"/>
</g>
<!-- models/modelInit.js&#45;&gt;models/accessToken.js -->
<g id="edge42" class="edge">
<title>models/modelInit.js&#45;&gt;models/accessToken.js</title>
<path fill="none" stroke="#757575" d="M837.5364,-97.0721C854.809,-97.0721 873.5895,-97.0721 891.8011,-97.0721"/>
<polygon fill="#757575" stroke="#757575" points="891.847,-100.5722 901.8469,-97.0721 891.8469,-93.5722 891.847,-100.5722"/>
</g>
<!-- models/modelInit.js&#45;&gt;models/idea.js -->
<g id="edge43" class="edge">
<title>models/modelInit.js&#45;&gt;models/idea.js</title>
<path fill="none" stroke="#757575" d="M828.9459,-108.602C857.6254,-113.9835 891.7798,-120.3923 920.9019,-125.8569"/>
<polygon fill="#757575" stroke="#757575" points="920.5017,-129.3428 930.9756,-127.7471 921.7927,-122.4629 920.5017,-129.3428"/>
</g>
<!-- models/modelInit.js&#45;&gt;models/user.js -->
<g id="edge44" class="edge">
<title>models/modelInit.js&#45;&gt;models/user.js</title>
<path fill="none" stroke="#757575" d="M828.9459,-85.5422C857.6254,-80.1607 891.7798,-73.7518 920.9019,-68.2873"/>
<polygon fill="#757575" stroke="#757575" points="921.7927,-71.6813 930.9756,-66.397 920.5017,-64.8014 921.7927,-71.6813"/>
</g>
<!-- handlers/accessToken.js -->
<g id="node20" class="node">
<title>handlers/accessToken.js</title>
<path fill="none" stroke="#c6c5fe" d="M169.3333,-233.5721C169.3333,-233.5721 7.6667,-233.5721 7.6667,-233.5721 3.8333,-233.5721 0,-229.7387 0,-225.9054 0,-225.9054 0,-218.2387 0,-218.2387 0,-214.4054 3.8333,-210.5721 7.6667,-210.5721 7.6667,-210.5721 169.3333,-210.5721 169.3333,-210.5721 173.1667,-210.5721 177,-214.4054 177,-218.2387 177,-218.2387 177,-225.9054 177,-225.9054 177,-229.7387 173.1667,-233.5721 169.3333,-233.5721"/>
<text text-anchor="middle" x="88.5" y="-218.3721" font-family="Arial" font-size="14.00" fill="#c6c5fe">handlers/accessToken.js</text>
</g>
<!-- handlers/accessToken.js&#45;&gt;controllers/accessToken.js -->
<g id="edge24" class="edge">
<title>handlers/accessToken.js&#45;&gt;controllers/accessToken.js</title>
<path fill="none" stroke="#757575" d="M111.8833,-210.4072C151.0636,-190.8619 230.0471,-151.4605 274.5701,-129.2499"/>
<polygon fill="#757575" stroke="#757575" points="276.3988,-132.249 283.7848,-124.6531 273.274,-125.9852 276.3988,-132.249"/>
</g>
<!-- helpers/context.js -->
<g id="node21" class="node">
<title>helpers/context.js</title>
<path fill="none" stroke="#c6c5fe" d="M364.3333,-364.5721C364.3333,-364.5721 249.6667,-364.5721 249.6667,-364.5721 245.8333,-364.5721 242,-360.7387 242,-356.9054 242,-356.9054 242,-349.2387 242,-349.2387 242,-345.4054 245.8333,-341.5721 249.6667,-341.5721 249.6667,-341.5721 364.3333,-341.5721 364.3333,-341.5721 368.1667,-341.5721 372,-345.4054 372,-349.2387 372,-349.2387 372,-356.9054 372,-356.9054 372,-360.7387 368.1667,-364.5721 364.3333,-364.5721"/>
<text text-anchor="middle" x="307" y="-349.3721" font-family="Arial" font-size="14.00" fill="#c6c5fe">helpers/context.js</text>
</g>
<!-- handlers/accessToken.js&#45;&gt;helpers/context.js -->
<g id="edge25" class="edge">
<title>handlers/accessToken.js&#45;&gt;helpers/context.js</title>
<path fill="none" stroke="#757575" d="M107.8904,-233.6975C146.6821,-256.9547 233.9703,-309.2877 278.9817,-336.2739"/>
<polygon fill="#757575" stroke="#757575" points="277.2766,-339.3325 287.653,-341.4728 280.8761,-333.3288 277.2766,-339.3325"/>
</g>
<!-- helpers/context.js&#45;&gt;constants/constants.js -->
<g id="edge32" class="edge">
<title>helpers/context.js&#45;&gt;constants/constants.js</title>
<path fill="none" stroke="#757575" d="M372.2782,-346.2861C438.1097,-339.3903 542.6431,-328.2975 633,-318.0721 722.1376,-307.9846 823.8521,-295.8124 895.126,-287.1747"/>
<polygon fill="#757575" stroke="#757575" points="895.9101,-290.6053 905.4159,-285.9266 895.0672,-283.6562 895.9101,-290.6053"/>
</g>
<!-- helpers/context.js&#45;&gt;constants/response.js -->
<g id="edge33" class="edge">
<title>helpers/context.js&#45;&gt;constants/response.js</title>
<path fill="none" stroke="#757575" d="M317.7287,-364.6405C343.4052,-392.0099 408.3791,-459.3254 437,-471.0721 517.6358,-504.1669 762.8929,-501.7334 896.6619,-497.6303"/>
<polygon fill="#757575" stroke="#757575" points="897.0006,-501.1215 906.8849,-497.3068 896.7792,-494.125 897.0006,-501.1215"/>
</g>
<!-- helpers/context.js&#45;&gt;database/database.js -->
<g id="edge34" class="edge">
<title>helpers/context.js&#45;&gt;database/database.js</title>
<path fill="none" stroke="#757575" d="M322.9847,-341.4696C342.2576,-327.188 375.2655,-301.7813 401,-277.0721 418.4921,-260.2769 416.0854,-248.3451 437,-236.0721 440.6298,-233.942 444.4486,-232.027 448.3882,-230.3054"/>
<polygon fill="#757575" stroke="#757575" points="449.7345,-233.5371 457.7678,-226.6293 447.1801,-227.0198 449.7345,-233.5371"/>
</g>
<!-- helpers/context.js&#45;&gt;helpers/logging.js -->
<g id="edge35" class="edge">
<title>helpers/context.js&#45;&gt;helpers/logging.js</title>
<path fill="none" stroke="#757575" d="M361.6338,-341.564C446.9439,-323.5942 611.4434,-288.9439 702.6406,-269.7341"/>
<polygon fill="#757575" stroke="#757575" points="703.5159,-273.1266 712.5797,-267.6405 702.073,-266.2769 703.5159,-273.1266"/>
</g>
<!-- handlers/authorizer.js -->
<g id="node22" class="node">
<title>handlers/authorizer.js</title>
<path fill="none" stroke="#c6c5fe" d="M158.3333,-568.5721C158.3333,-568.5721 18.6667,-568.5721 18.6667,-568.5721 14.8333,-568.5721 11,-564.7387 11,-560.9054 11,-560.9054 11,-553.2387 11,-553.2387 11,-549.4054 14.8333,-545.5721 18.6667,-545.5721 18.6667,-545.5721 158.3333,-545.5721 158.3333,-545.5721 162.1667,-545.5721 166,-549.4054 166,-553.2387 166,-553.2387 166,-560.9054 166,-560.9054 166,-564.7387 162.1667,-568.5721 158.3333,-568.5721"/>
<text text-anchor="middle" x="88.5" y="-553.3721" font-family="Arial" font-size="14.00" fill="#c6c5fe">handlers/authorizer.js</text>
</g>
<!-- handlers/authorizer.js&#45;&gt;controllers/authorizer.js -->
<g id="edge26" class="edge">
<title>handlers/authorizer.js&#45;&gt;controllers/authorizer.js</title>
<path fill="none" stroke="#757575" d="M126.303,-568.6229C190.1659,-588.0515 323.5527,-628.2649 437,-660.0721 451.1841,-664.0489 466.5675,-668.2041 480.8502,-671.9962"/>
<polygon fill="#757575" stroke="#757575" points="479.9716,-675.3841 490.5341,-674.5568 481.761,-668.6167 479.9716,-675.3841"/>
</g>
<!-- handlers/authorizer.js&#45;&gt;helpers/context.js -->
<g id="edge27" class="edge">
<title>handlers/authorizer.js&#45;&gt;helpers/context.js</title>
<path fill="none" stroke="#757575" d="M100.8736,-545.5197C136.9935,-511.7966 242.5333,-413.2607 286.9413,-371.7996"/>
<polygon fill="#757575" stroke="#757575" points="289.5704,-374.1334 294.4913,-364.7507 284.7933,-369.0168 289.5704,-374.1334"/>
</g>
<!-- handlers/idea.js -->
<g id="node23" class="node">
<title>handlers/idea.js</title>
<path fill="none" stroke="#c6c5fe" d="M140.3333,-431.5721C140.3333,-431.5721 36.6667,-431.5721 36.6667,-431.5721 32.8333,-431.5721 29,-427.7387 29,-423.9054 29,-423.9054 29,-416.2387 29,-416.2387 29,-412.4054 32.8333,-408.5721 36.6667,-408.5721 36.6667,-408.5721 140.3333,-408.5721 140.3333,-408.5721 144.1667,-408.5721 148,-412.4054 148,-416.2387 148,-416.2387 148,-423.9054 148,-423.9054 148,-427.7387 144.1667,-431.5721 140.3333,-431.5721"/>
<text text-anchor="middle" x="88.5" y="-416.3721" font-family="Arial" font-size="14.00" fill="#c6c5fe">handlers/idea.js</text>
</g>
<!-- handlers/idea.js&#45;&gt;controllers/idea.js -->
<g id="edge28" class="edge">
<title>handlers/idea.js&#45;&gt;controllers/idea.js</title>
<path fill="none" stroke="#757575" d="M140.0048,-431.6223C171.5626,-438.6994 212.1414,-447.7994 245.3958,-455.2569"/>
<polygon fill="#757575" stroke="#757575" points="244.9393,-458.7414 255.4628,-457.5145 246.4711,-451.9111 244.9393,-458.7414"/>
</g>
<!-- handlers/idea.js&#45;&gt;helpers/context.js -->
<g id="edge29" class="edge">
<title>handlers/idea.js&#45;&gt;helpers/context.js</title>
<path fill="none" stroke="#757575" d="M126.0615,-408.5544C162.9562,-397.2411 219.3804,-379.9394 259.3987,-367.6684"/>
<polygon fill="#757575" stroke="#757575" points="260.6629,-370.9416 269.1974,-364.6637 258.6107,-364.2492 260.6629,-370.9416"/>
</g>
<!-- handlers/user.js -->
<g id="node24" class="node">
<title>handlers/user.js</title>
<path fill="none" stroke="#c6c5fe" d="M140.3333,-315.5721C140.3333,-315.5721 36.6667,-315.5721 36.6667,-315.5721 32.8333,-315.5721 29,-311.7387 29,-307.9054 29,-307.9054 29,-300.2387 29,-300.2387 29,-296.4054 32.8333,-292.5721 36.6667,-292.5721 36.6667,-292.5721 140.3333,-292.5721 140.3333,-292.5721 144.1667,-292.5721 148,-296.4054 148,-300.2387 148,-300.2387 148,-307.9054 148,-307.9054 148,-311.7387 144.1667,-315.5721 140.3333,-315.5721"/>
<text text-anchor="middle" x="88.5" y="-300.3721" font-family="Arial" font-size="14.00" fill="#c6c5fe">handlers/user.js</text>
</g>
<!-- handlers/user.js&#45;&gt;controllers/user.js -->
<g id="edge30" class="edge">
<title>handlers/user.js&#45;&gt;controllers/user.js</title>
<path fill="none" stroke="#757575" d="M141.1142,-292.5138C172.2416,-285.6758 211.8473,-276.9752 244.5526,-269.7905"/>
<polygon fill="#757575" stroke="#757575" points="245.4479,-273.1774 254.464,-267.6132 243.9459,-266.3404 245.4479,-273.1774"/>
</g>
<!-- handlers/user.js&#45;&gt;helpers/context.js -->
<g id="edge31" class="edge">
<title>handlers/user.js&#45;&gt;helpers/context.js</title>
<path fill="none" stroke="#757575" d="M140.0048,-315.6223C171.5626,-322.6994 212.1414,-331.7994 245.3958,-339.2569"/>
<polygon fill="#757575" stroke="#757575" points="244.9393,-342.7414 255.4628,-341.5145 246.4711,-335.9111 244.9393,-342.7414"/>
</g>
<!-- helpers/validation.js&#45;&gt;constants/response.js -->
<g id="edge38" class="edge">
<title>helpers/validation.js&#45;&gt;constants/response.js</title>
<path fill="none" stroke="#757575" d="M830.4061,-465.5881C856.2298,-470.3155 886.2942,-475.8193 913.073,-480.7216"/>
<polygon fill="#757575" stroke="#757575" points="912.6929,-484.2101 923.1597,-482.5681 913.9534,-477.3245 912.6929,-484.2101"/>
</g>
</g>
</svg>
