<?xml version="1.0" encoding="UTF-8" standalone="no"?>
<!DOCTYPE svg PUBLIC "-//W3C//DTD SVG 1.1//EN"
 "http://www.w3.org/Graphics/SVG/1.1/DTD/svg11.dtd">
<!-- Generated by graphviz version 2.40.1 (20161225.0304)
 -->
<!-- Title: G Pages: 1 -->
<svg width="616pt" height="107pt"
 viewBox="0.00 0.00 616.20 107.20" xmlns="http://www.w3.org/2000/svg" xmlns:xlink="http://www.w3.org/1999/xlink">
<g id="graph0" class="graph" transform="scale(1 1) rotate(0) translate(21.6 85.6)">
<title>G</title>
<polygon fill="#111111" stroke="transparent" points="-21.6,21.6 -21.6,-85.6 594.6,-85.6 594.6,21.6 -21.6,21.6"/>
<!-- constants/constants.js -->
<g id="node1" class="node">
<title>constants/constants.js</title>
<path fill="none" stroke="#cfffac" d="M559.8333,-64C559.8333,-64 414.1667,-64 414.1667,-64 410.3333,-64 406.5,-60.1667 406.5,-56.3333 406.5,-56.3333 406.5,-48.6667 406.5,-48.6667 406.5,-44.8333 410.3333,-41 414.1667,-41 414.1667,-41 559.8333,-41 559.8333,-41 563.6667,-41 567.5,-44.8333 567.5,-48.6667 567.5,-48.6667 567.5,-56.3333 567.5,-56.3333 567.5,-60.1667 563.6667,-64 559.8333,-64"/>
<text text-anchor="middle" x="487" y="-48.8" font-family="Arial" font-size="14.00" fill="#cfffac">constants/constants.js</text>
</g>
<!-- controllers/helloWorld.js -->
<g id="node2" class="node">
<title>controllers/helloWorld.js</title>
<path fill="none" stroke="#c6c5fe" d="M357.3333,-43C357.3333,-43 202.6667,-43 202.6667,-43 198.8333,-43 195,-39.1667 195,-35.3333 195,-35.3333 195,-27.6667 195,-27.6667 195,-23.8333 198.8333,-20 202.6667,-20 202.6667,-20 357.3333,-20 357.3333,-20 361.1667,-20 365,-23.8333 365,-27.6667 365,-27.6667 365,-35.3333 365,-35.3333 365,-39.1667 361.1667,-43 357.3333,-43"/>
<text text-anchor="middle" x="280" y="-27.8" font-family="Arial" font-size="14.00" fill="#c6c5fe">controllers/helloWorld.js</text>
</g>
<!-- controllers/helloWorld.js&#45;&gt;constants/constants.js -->
<g id="edge1" class="edge">
<title>controllers/helloWorld.js&#45;&gt;constants/constants.js</title>
<path fill="none" stroke="#757575" d="M365.0909,-40.1324C375.2942,-41.1675 385.744,-42.2277 396.0265,-43.2708"/>
<polygon fill="#757575" stroke="#757575" points="395.9356,-46.7795 406.2378,-44.3067 396.6422,-39.8152 395.9356,-46.7795"/>
</g>
<!-- validations/helloWorld.js -->
<g id="node3" class="node">
<title>validations/helloWorld.js</title>
<path fill="none" stroke="#cfffac" d="M565.3333,-23C565.3333,-23 408.6667,-23 408.6667,-23 404.8333,-23 401,-19.1667 401,-15.3333 401,-15.3333 401,-7.6667 401,-7.6667 401,-3.8333 404.8333,0 408.6667,0 408.6667,0 565.3333,0 565.3333,0 569.1667,0 573,-3.8333 573,-7.6667 573,-7.6667 573,-15.3333 573,-15.3333 573,-19.1667 569.1667,-23 565.3333,-23"/>
<text text-anchor="middle" x="487" y="-7.8" font-family="Arial" font-size="14.00" fill="#cfffac">validations/helloWorld.js</text>
</g>
<!-- controllers/helloWorld.js&#45;&gt;validations/helloWorld.js -->
<g id="edge2" class="edge">
<title>controllers/helloWorld.js&#45;&gt;validations/helloWorld.js</title>
<path fill="none" stroke="#757575" d="M365.0909,-23.2787C373.5867,-22.4578 382.2534,-21.6204 390.852,-20.7897"/>
<polygon fill="#757575" stroke="#757575" points="391.2836,-24.2644 400.9006,-19.8188 390.6103,-17.2968 391.2836,-24.2644"/>
</g>
<!-- handlers/helloWorld.js -->
<g id="node4" class="node">
<title>handlers/helloWorld.js</title>
<path fill="none" stroke="#c6c5fe" d="M151.3333,-43C151.3333,-43 7.6667,-43 7.6667,-43 3.8333,-43 0,-39.1667 0,-35.3333 0,-35.3333 0,-27.6667 0,-27.6667 0,-23.8333 3.8333,-20 7.6667,-20 7.6667,-20 151.3333,-20 151.3333,-20 155.1667,-20 159,-23.8333 159,-27.6667 159,-27.6667 159,-35.3333 159,-35.3333 159,-39.1667 155.1667,-43 151.3333,-43"/>
<text text-anchor="middle" x="79.5" y="-27.8" font-family="Arial" font-size="14.00" fill="#c6c5fe">handlers/helloWorld.js</text>
</g>
<!-- handlers/helloWorld.js&#45;&gt;controllers/helloWorld.js -->
<g id="edge3" class="edge">
<title>handlers/helloWorld.js&#45;&gt;controllers/helloWorld.js</title>
<path fill="none" stroke="#757575" d="M159.0309,-31.5C167.5178,-31.5 176.2119,-31.5 184.8553,-31.5"/>
<polygon fill="#757575" stroke="#757575" points="184.9632,-35.0001 194.9631,-31.5 184.9631,-28.0001 184.9632,-35.0001"/>
</g>
</g>
</svg>
