<?xml version="1.0" encoding="UTF-8" standalone="no"?>
<!DOCTYPE svg PUBLIC "-//W3C//DTD SVG 1.1//EN"
 "http://www.w3.org/Graphics/SVG/1.1/DTD/svg11.dtd">
<!-- Generated by graphviz version 2.40.1 (20161225.0304)
 -->
<!-- Title: G Pages: 1 -->
<svg width="262pt" height="804pt"
 viewBox="0.00 0.00 262.20 804.20" xmlns="http://www.w3.org/2000/svg" xmlns:xlink="http://www.w3.org/1999/xlink">
<g id="graph0" class="graph" transform="scale(1 1) rotate(0) translate(21.6 782.6)">
<title>G</title>
<polygon fill="#111111" stroke="transparent" points="-21.6,21.6 -21.6,-782.6 240.6,-782.6 240.6,21.6 -21.6,21.6"/>
<!-- src/constants/constants.js -->
<g id="node1" class="node">
<title>src/constants/constants.js</title>
<path fill="none" stroke="#cfffac" d="M193.8333,-23C193.8333,-23 25.1667,-23 25.1667,-23 21.3333,-23 17.5,-19.1667 17.5,-15.3333 17.5,-15.3333 17.5,-7.6667 17.5,-7.6667 17.5,-3.8333 21.3333,0 25.1667,0 25.1667,0 193.8333,0 193.8333,0 197.6667,0 201.5,-3.8333 201.5,-7.6667 201.5,-7.6667 201.5,-15.3333 201.5,-15.3333 201.5,-19.1667 197.6667,-23 193.8333,-23"/>
<text text-anchor="middle" x="109.5" y="-7.8" font-family="Arial" font-size="14.00" fill="#cfffac">src/constants/constants.js</text>
</g>
<!-- src/constants/response.js -->
<g id="node2" class="node">
<title>src/constants/response.js</title>
<path fill="none" stroke="#cfffac" d="M192.8333,-64C192.8333,-64 26.1667,-64 26.1667,-64 22.3333,-64 18.5,-60.1667 18.5,-56.3333 18.5,-56.3333 18.5,-48.6667 18.5,-48.6667 18.5,-44.8333 22.3333,-41 26.1667,-41 26.1667,-41 192.8333,-41 192.8333,-41 196.6667,-41 200.5,-44.8333 200.5,-48.6667 200.5,-48.6667 200.5,-56.3333 200.5,-56.3333 200.5,-60.1667 196.6667,-64 192.8333,-64"/>
<text text-anchor="middle" x="109.5" y="-48.8" font-family="Arial" font-size="14.00" fill="#cfffac">src/constants/response.js</text>
</g>
<!-- src/controllers/accessToken.js -->
<g id="node3" class="node">
<title>src/controllers/accessToken.js</title>
<path fill="none" stroke="#cfffac" d="M207.3333,-105C207.3333,-105 11.6667,-105 11.6667,-105 7.8333,-105 4,-101.1667 4,-97.3333 4,-97.3333 4,-89.6667 4,-89.6667 4,-85.8333 7.8333,-82 11.6667,-82 11.6667,-82 207.3333,-82 207.3333,-82 211.1667,-82 215,-85.8333 215,-89.6667 215,-89.6667 215,-97.3333 215,-97.3333 215,-101.1667 211.1667,-105 207.3333,-105"/>
<text text-anchor="middle" x="109.5" y="-89.8" font-family="Arial" font-size="14.00" fill="#cfffac">src/controllers/accessToken.js</text>
</g>
<!-- src/controllers/idea.js -->
<g id="node4" class="node">
<title>src/controllers/idea.js</title>
<path fill="none" stroke="#cfffac" d="M177.8333,-146C177.8333,-146 41.1667,-146 41.1667,-146 37.3333,-146 33.5,-142.1667 33.5,-138.3333 33.5,-138.3333 33.5,-130.6667 33.5,-130.6667 33.5,-126.8333 37.3333,-123 41.1667,-123 41.1667,-123 177.8333,-123 177.8333,-123 181.6667,-123 185.5,-126.8333 185.5,-130.6667 185.5,-130.6667 185.5,-138.3333 185.5,-138.3333 185.5,-142.1667 181.6667,-146 177.8333,-146"/>
<text text-anchor="middle" x="109.5" y="-130.8" font-family="Arial" font-size="14.00" fill="#cfffac">src/controllers/idea.js</text>
</g>
<!-- src/controllers/user.js -->
<g id="node5" class="node">
<title>src/controllers/user.js</title>
<path fill="none" stroke="#cfffac" d="M178.3333,-187C178.3333,-187 40.6667,-187 40.6667,-187 36.8333,-187 33,-183.1667 33,-179.3333 33,-179.3333 33,-171.6667 33,-171.6667 33,-167.8333 36.8333,-164 40.6667,-164 40.6667,-164 178.3333,-164 178.3333,-164 182.1667,-164 186,-167.8333 186,-171.6667 186,-171.6667 186,-179.3333 186,-179.3333 186,-183.1667 182.1667,-187 178.3333,-187"/>
<text text-anchor="middle" x="109.5" y="-171.8" font-family="Arial" font-size="14.00" fill="#cfffac">src/controllers/user.js</text>
</g>
<!-- src/database/datastore.js -->
<g id="node6" class="node">
<title>src/database/datastore.js</title>
<path fill="none" stroke="#cfffac" d="M191.3333,-228C191.3333,-228 27.6667,-228 27.6667,-228 23.8333,-228 20,-224.1667 20,-220.3333 20,-220.3333 20,-212.6667 20,-212.6667 20,-208.8333 23.8333,-205 27.6667,-205 27.6667,-205 191.3333,-205 191.3333,-205 195.1667,-205 199,-208.8333 199,-212.6667 199,-212.6667 199,-220.3333 199,-220.3333 199,-224.1667 195.1667,-228 191.3333,-228"/>
<text text-anchor="middle" x="109.5" y="-212.8" font-family="Arial" font-size="14.00" fill="#cfffac">src/database/datastore.js</text>
</g>
<!-- src/database/dynamodb.js -->
<g id="node7" class="node">
<title>src/database/dynamodb.js</title>
<path fill="none" stroke="#cfffac" d="M195.8333,-269C195.8333,-269 23.1667,-269 23.1667,-269 19.3333,-269 15.5,-265.1667 15.5,-261.3333 15.5,-261.3333 15.5,-253.6667 15.5,-253.6667 15.5,-249.8333 19.3333,-246 23.1667,-246 23.1667,-246 195.8333,-246 195.8333,-246 199.6667,-246 203.5,-249.8333 203.5,-253.6667 203.5,-253.6667 203.5,-261.3333 203.5,-261.3333 203.5,-265.1667 199.6667,-269 195.8333,-269"/>
<text text-anchor="middle" x="109.5" y="-253.8" font-family="Arial" font-size="14.00" fill="#cfffac">src/database/dynamodb.js</text>
</g>
<!-- src/handlers/accessToken.js -->
<g id="node8" class="node">
<title>src/handlers/accessToken.js</title>
<path fill="none" stroke="#cfffac" d="M201.8333,-310C201.8333,-310 17.1667,-310 17.1667,-310 13.3333,-310 9.5,-306.1667 9.5,-302.3333 9.5,-302.3333 9.5,-294.6667 9.5,-294.6667 9.5,-290.8333 13.3333,-287 17.1667,-287 17.1667,-287 201.8333,-287 201.8333,-287 205.6667,-287 209.5,-290.8333 209.5,-294.6667 209.5,-294.6667 209.5,-302.3333 209.5,-302.3333 209.5,-306.1667 205.6667,-310 201.8333,-310"/>
<text text-anchor="middle" x="109.5" y="-294.8" font-family="Arial" font-size="14.00" fill="#cfffac">src/handlers/accessToken.js</text>
</g>
<!-- src/handlers/authorizer.js -->
<g id="node9" class="node">
<title>src/handlers/authorizer.js</title>
<path fill="none" stroke="#cfffac" d="M191.3333,-351C191.3333,-351 27.6667,-351 27.6667,-351 23.8333,-351 20,-347.1667 20,-343.3333 20,-343.3333 20,-335.6667 20,-335.6667 20,-331.8333 23.8333,-328 27.6667,-328 27.6667,-328 191.3333,-328 191.3333,-328 195.1667,-328 199,-331.8333 199,-335.6667 199,-335.6667 199,-343.3333 199,-343.3333 199,-347.1667 195.1667,-351 191.3333,-351"/>
<text text-anchor="middle" x="109.5" y="-335.8" font-family="Arial" font-size="14.00" fill="#cfffac">src/handlers/authorizer.js</text>
</g>
<!-- src/handlers/idea.js -->
<g id="node10" class="node">
<title>src/handlers/idea.js</title>
<path fill="none" stroke="#cfffac" d="M172.8333,-392C172.8333,-392 46.1667,-392 46.1667,-392 42.3333,-392 38.5,-388.1667 38.5,-384.3333 38.5,-384.3333 38.5,-376.6667 38.5,-376.6667 38.5,-372.8333 42.3333,-369 46.1667,-369 46.1667,-369 172.8333,-369 172.8333,-369 176.6667,-369 180.5,-372.8333 180.5,-376.6667 180.5,-376.6667 180.5,-384.3333 180.5,-384.3333 180.5,-388.1667 176.6667,-392 172.8333,-392"/>
<text text-anchor="middle" x="109.5" y="-376.8" font-family="Arial" font-size="14.00" fill="#cfffac">src/handlers/idea.js</text>
</g>
<!-- src/handlers/user.js -->
<g id="node11" class="node">
<title>src/handlers/user.js</title>
<path fill="none" stroke="#cfffac" d="M173.3333,-433C173.3333,-433 45.6667,-433 45.6667,-433 41.8333,-433 38,-429.1667 38,-425.3333 38,-425.3333 38,-417.6667 38,-417.6667 38,-413.8333 41.8333,-410 45.6667,-410 45.6667,-410 173.3333,-410 173.3333,-410 177.1667,-410 181,-413.8333 181,-417.6667 181,-417.6667 181,-425.3333 181,-425.3333 181,-429.1667 177.1667,-433 173.3333,-433"/>
<text text-anchor="middle" x="109.5" y="-417.8" font-family="Arial" font-size="14.00" fill="#cfffac">src/handlers/user.js</text>
</g>
<!-- src/repositories/accessToken.js -->
<g id="node12" class="node">
<title>src/repositories/accessToken.js</title>
<path fill="none" stroke="#cfffac" d="M211.3333,-474C211.3333,-474 7.6667,-474 7.6667,-474 3.8333,-474 0,-470.1667 0,-466.3333 0,-466.3333 0,-458.6667 0,-458.6667 0,-454.8333 3.8333,-451 7.6667,-451 7.6667,-451 211.3333,-451 211.3333,-451 215.1667,-451 219,-454.8333 219,-458.6667 219,-458.6667 219,-466.3333 219,-466.3333 219,-470.1667 215.1667,-474 211.3333,-474"/>
<text text-anchor="middle" x="109.5" y="-458.8" font-family="Arial" font-size="14.00" fill="#cfffac">src/repositories/accessToken.js</text>
</g>
<!-- src/repositories/idea.js -->
<g id="node13" class="node">
<title>src/repositories/idea.js</title>
<path fill="none" stroke="#cfffac" d="M182.3333,-515C182.3333,-515 36.6667,-515 36.6667,-515 32.8333,-515 29,-511.1667 29,-507.3333 29,-507.3333 29,-499.6667 29,-499.6667 29,-495.8333 32.8333,-492 36.6667,-492 36.6667,-492 182.3333,-492 182.3333,-492 186.1667,-492 190,-495.8333 190,-499.6667 190,-499.6667 190,-507.3333 190,-507.3333 190,-511.1667 186.1667,-515 182.3333,-515"/>
<text text-anchor="middle" x="109.5" y="-499.8" font-family="Arial" font-size="14.00" fill="#cfffac">src/repositories/idea.js</text>
</g>
<!-- src/repositories/user.js -->
<g id="node14" class="node">
<title>src/repositories/user.js</title>
<path fill="none" stroke="#cfffac" d="M182.3333,-556C182.3333,-556 36.6667,-556 36.6667,-556 32.8333,-556 29,-552.1667 29,-548.3333 29,-548.3333 29,-540.6667 29,-540.6667 29,-536.8333 32.8333,-533 36.6667,-533 36.6667,-533 182.3333,-533 182.3333,-533 186.1667,-533 190,-536.8333 190,-540.6667 190,-540.6667 190,-548.3333 190,-548.3333 190,-552.1667 186.1667,-556 182.3333,-556"/>
<text text-anchor="middle" x="109.5" y="-540.8" font-family="Arial" font-size="14.00" fill="#cfffac">src/repositories/user.js</text>
</g>
<!-- src/services/gravatar.js -->
<g id="node15" class="node">
<title>src/services/gravatar.js</title>
<path fill="none" stroke="#cfffac" d="M184.3333,-597C184.3333,-597 34.6667,-597 34.6667,-597 30.8333,-597 27,-593.1667 27,-589.3333 27,-589.3333 27,-581.6667 27,-581.6667 27,-577.8333 30.8333,-574 34.6667,-574 34.6667,-574 184.3333,-574 184.3333,-574 188.1667,-574 192,-577.8333 192,-581.6667 192,-581.6667 192,-589.3333 192,-589.3333 192,-593.1667 188.1667,-597 184.3333,-597"/>
<text text-anchor="middle" x="109.5" y="-581.8" font-family="Arial" font-size="14.00" fill="#cfffac">src/services/gravatar.js</text>
</g>
<!-- src/validations/accessToken.js -->
<g id="node16" class="node">
<title>src/validations/accessToken.js</title>
<path fill="none" stroke="#cfffac" d="M208.3333,-638C208.3333,-638 10.6667,-638 10.6667,-638 6.8333,-638 3,-634.1667 3,-630.3333 3,-630.3333 3,-622.6667 3,-622.6667 3,-618.8333 6.8333,-615 10.6667,-615 10.6667,-615 208.3333,-615 208.3333,-615 212.1667,-615 216,-618.8333 216,-622.6667 216,-622.6667 216,-630.3333 216,-630.3333 216,-634.1667 212.1667,-638 208.3333,-638"/>
<text text-anchor="middle" x="109.5" y="-622.8" font-family="Arial" font-size="14.00" fill="#cfffac">src/validations/accessToken.js</text>
</g>
<!-- src/validations/idea.js -->
<g id="node17" class="node">
<title>src/validations/idea.js</title>
<path fill="none" stroke="#cfffac" d="M179.3333,-679C179.3333,-679 39.6667,-679 39.6667,-679 35.8333,-679 32,-675.1667 32,-671.3333 32,-671.3333 32,-663.6667 32,-663.6667 32,-659.8333 35.8333,-656 39.6667,-656 39.6667,-656 179.3333,-656 179.3333,-656 183.1667,-656 187,-659.8333 187,-663.6667 187,-663.6667 187,-671.3333 187,-671.3333 187,-675.1667 183.1667,-679 179.3333,-679"/>
<text text-anchor="middle" x="109.5" y="-663.8" font-family="Arial" font-size="14.00" fill="#cfffac">src/validations/idea.js</text>
</g>
<!-- src/validations/user.js -->
<g id="node18" class="node">
<title>src/validations/user.js</title>
<path fill="none" stroke="#cfffac" d="M179.3333,-720C179.3333,-720 39.6667,-720 39.6667,-720 35.8333,-720 32,-716.1667 32,-712.3333 32,-712.3333 32,-704.6667 32,-704.6667 32,-700.8333 35.8333,-697 39.6667,-697 39.6667,-697 179.3333,-697 179.3333,-697 183.1667,-697 187,-700.8333 187,-704.6667 187,-704.6667 187,-712.3333 187,-712.3333 187,-716.1667 183.1667,-720 179.3333,-720"/>
<text text-anchor="middle" x="109.5" y="-704.8" font-family="Arial" font-size="14.00" fill="#cfffac">src/validations/user.js</text>
</g>
<!-- test/setup/setup.js -->
<g id="node19" class="node">
<title>test/setup/setup.js</title>
<path fill="none" stroke="#cfffac" d="M168.8333,-761C168.8333,-761 50.1667,-761 50.1667,-761 46.3333,-761 42.5,-757.1667 42.5,-753.3333 42.5,-753.3333 42.5,-745.6667 42.5,-745.6667 42.5,-741.8333 46.3333,-738 50.1667,-738 50.1667,-738 168.8333,-738 168.8333,-738 172.6667,-738 176.5,-741.8333 176.5,-745.6667 176.5,-745.6667 176.5,-753.3333 176.5,-753.3333 176.5,-757.1667 172.6667,-761 168.8333,-761"/>
<text text-anchor="middle" x="109.5" y="-745.8" font-family="Arial" font-size="14.00" fill="#cfffac">test/setup/setup.js</text>
</g>
</g>
</svg>
