<?xml version="1.0" encoding="UTF-8" standalone="no"?>
<!DOCTYPE svg PUBLIC "-//W3C//DTD SVG 1.1//EN"
 "http://www.w3.org/Graphics/SVG/1.1/DTD/svg11.dtd">
<!-- Generated by graphviz version 2.40.1 (20161225.0304)
 -->
<!-- Title: G Pages: 1 -->
<svg width="1113pt" height="819pt"
 viewBox="0.00 0.00 1113.20 819.36" xmlns="http://www.w3.org/2000/svg" xmlns:xlink="http://www.w3.org/1999/xlink">
<g id="graph0" class="graph" transform="scale(1 1) rotate(0) translate(21.6 797.7585)">
<title>G</title>
<polygon fill="#111111" stroke="transparent" points="-21.6,21.6 -21.6,-797.7585 1091.6,-797.7585 1091.6,21.6 -21.6,21.6"/>
<!-- constants/constants.js -->
<g id="node1" class="node">
<title>constants/constants.js</title>
<path fill="none" stroke="#cfffac" d="M1058.8333,-362.8381C1058.8333,-362.8381 913.1667,-362.8381 913.1667,-362.8381 909.3333,-362.8381 905.5,-359.0048 905.5,-355.1714 905.5,-355.1714 905.5,-347.5048 905.5,-347.5048 905.5,-343.6714 909.3333,-339.8381 913.1667,-339.8381 913.1667,-339.8381 1058.8333,-339.8381 1058.8333,-339.8381 1062.6667,-339.8381 1066.5,-343.6714 1066.5,-347.5048 1066.5,-347.5048 1066.5,-355.1714 1066.5,-355.1714 1066.5,-359.0048 1062.6667,-362.8381 1058.8333,-362.8381"/>
<text text-anchor="middle" x="986" y="-347.6381" font-family="Arial" font-size="14.00" fill="#cfffac">constants/constants.js</text>
</g>
<!-- constants/response.js -->
<g id="node2" class="node">
<title>constants/response.js</title>
<path fill="none" stroke="#cfffac" d="M1057.3333,-616.8381C1057.3333,-616.8381 914.6667,-616.8381 914.6667,-616.8381 910.8333,-616.8381 907,-613.0048 907,-609.1714 907,-609.1714 907,-601.5048 907,-601.5048 907,-597.6714 910.8333,-593.8381 914.6667,-593.8381 914.6667,-593.8381 1057.3333,-593.8381 1057.3333,-593.8381 1061.1667,-593.8381 1065,-597.6714 1065,-601.5048 1065,-601.5048 1065,-609.1714 1065,-609.1714 1065,-613.0048 1061.1667,-616.8381 1057.3333,-616.8381"/>
<text text-anchor="middle" x="986" y="-601.6381" font-family="Arial" font-size="14.00" fill="#cfffac">constants/response.js</text>
</g>
<!-- controllers/accessToken.js -->
<g id="node3" class="node">
<title>controllers/accessToken.js</title>
<path fill="none" stroke="#c6c5fe" d="M393.3333,-127.8381C393.3333,-127.8381 220.6667,-127.8381 220.6667,-127.8381 216.8333,-127.8381 213,-124.0048 213,-120.1714 213,-120.1714 213,-112.5048 213,-112.5048 213,-108.6714 216.8333,-104.8381 220.6667,-104.8381 220.6667,-104.8381 393.3333,-104.8381 393.3333,-104.8381 397.1667,-104.8381 401,-108.6714 401,-112.5048 401,-112.5048 401,-120.1714 401,-120.1714 401,-124.0048 397.1667,-127.8381 393.3333,-127.8381"/>
<text text-anchor="middle" x="307" y="-112.6381" font-family="Arial" font-size="14.00" fill="#c6c5fe">controllers/accessToken.js</text>
</g>
<!-- controllers/accessToken.js&#45;&gt;constants/response.js -->
<g id="edge1" class="edge">
<title>controllers/accessToken.js&#45;&gt;constants/response.js</title>
<path fill="none" stroke="#757575" d="M311.7271,-127.9847C329.7094,-171.7237 394.9569,-325.214 437,-355.3381 594.2778,-468.0286 703.2737,-324.669 866,-429.3381 925.1352,-467.3751 962.6219,-545.9897 977.9987,-583.9298"/>
<polygon fill="#757575" stroke="#757575" points="974.8373,-585.455 981.7491,-593.4848 981.3534,-582.8974 974.8373,-585.455"/>
</g>
<!-- helpers/crypto.js -->
<g id="node4" class="node">
<title>helpers/crypto.js</title>
<path fill="none" stroke="#cfffac" d="M588.3333,-147.8381C588.3333,-147.8381 481.6667,-147.8381 481.6667,-147.8381 477.8333,-147.8381 474,-144.0048 474,-140.1714 474,-140.1714 474,-132.5048 474,-132.5048 474,-128.6714 477.8333,-124.8381 481.6667,-124.8381 481.6667,-124.8381 588.3333,-124.8381 588.3333,-124.8381 592.1667,-124.8381 596,-128.6714 596,-132.5048 596,-132.5048 596,-140.1714 596,-140.1714 596,-144.0048 592.1667,-147.8381 588.3333,-147.8381"/>
<text text-anchor="middle" x="535" y="-132.6381" font-family="Arial" font-size="14.00" fill="#cfffac">helpers/crypto.js</text>
</g>
<!-- controllers/accessToken.js&#45;&gt;helpers/crypto.js -->
<g id="edge2" class="edge">
<title>controllers/accessToken.js&#45;&gt;helpers/crypto.js</title>
<path fill="none" stroke="#757575" d="M401.0527,-124.5883C421.9443,-126.4209 443.7584,-128.3345 463.5696,-130.0723"/>
<polygon fill="#757575" stroke="#757575" points="463.4639,-133.5764 473.7315,-130.9637 464.0757,-126.6031 463.4639,-133.5764"/>
</g>
<!-- helpers/format.js -->
<g id="node5" class="node">
<title>helpers/format.js</title>
<path fill="none" stroke="#cfffac" d="M1039.8333,-224.8381C1039.8333,-224.8381 932.1667,-224.8381 932.1667,-224.8381 928.3333,-224.8381 924.5,-221.0048 924.5,-217.1714 924.5,-217.1714 924.5,-209.5048 924.5,-209.5048 924.5,-205.6714 928.3333,-201.8381 932.1667,-201.8381 932.1667,-201.8381 1039.8333,-201.8381 1039.8333,-201.8381 1043.6667,-201.8381 1047.5,-205.6714 1047.5,-209.5048 1047.5,-209.5048 1047.5,-217.1714 1047.5,-217.1714 1047.5,-221.0048 1043.6667,-224.8381 1039.8333,-224.8381"/>
<text text-anchor="middle" x="986" y="-209.6381" font-family="Arial" font-size="14.00" fill="#cfffac">helpers/format.js</text>
</g>
<!-- controllers/accessToken.js&#45;&gt;helpers/format.js -->
<g id="edge3" class="edge">
<title>controllers/accessToken.js&#45;&gt;helpers/format.js</title>
<path fill="none" stroke="#757575" d="M331.3292,-104.6749C387.51,-79.516 529.3883,-26.2387 633,-75.3381 655.833,-86.1582 647.4591,-106.1317 669,-119.3381 745.4014,-166.1786 780.6107,-135.1374 866,-162.3381 896.1417,-171.9397 929.1343,-186.256 952.8834,-197.2785"/>
<polygon fill="#757575" stroke="#757575" points="951.6023,-200.5436 962.1417,-201.626 954.5776,-194.2073 951.6023,-200.5436"/>
</g>
<!-- repositories/accessToken.js -->
<g id="node6" class="node">
<title>repositories/accessToken.js</title>
<path fill="none" stroke="#c6c5fe" d="M625.3333,-106.8381C625.3333,-106.8381 444.6667,-106.8381 444.6667,-106.8381 440.8333,-106.8381 437,-103.0048 437,-99.1714 437,-99.1714 437,-91.5048 437,-91.5048 437,-87.6714 440.8333,-83.8381 444.6667,-83.8381 444.6667,-83.8381 625.3333,-83.8381 625.3333,-83.8381 629.1667,-83.8381 633,-87.6714 633,-91.5048 633,-91.5048 633,-99.1714 633,-99.1714 633,-103.0048 629.1667,-106.8381 625.3333,-106.8381"/>
<text text-anchor="middle" x="535" y="-91.6381" font-family="Arial" font-size="14.00" fill="#c6c5fe">repositories/accessToken.js</text>
</g>
<!-- controllers/accessToken.js&#45;&gt;repositories/accessToken.js -->
<g id="edge4" class="edge">
<title>controllers/accessToken.js&#45;&gt;repositories/accessToken.js</title>
<path fill="none" stroke="#757575" d="M401.0527,-107.6754C409.5166,-106.8958 418.132,-106.1023 426.7043,-105.3127"/>
<polygon fill="#757575" stroke="#757575" points="427.0992,-108.7912 436.736,-104.3887 426.4571,-101.8208 427.0992,-108.7912"/>
</g>
<!-- repositories/user.js -->
<g id="node7" class="node">
<title>repositories/user.js</title>
<path fill="none" stroke="#c6c5fe" d="M596.3333,-26.8381C596.3333,-26.8381 473.6667,-26.8381 473.6667,-26.8381 469.8333,-26.8381 466,-23.0048 466,-19.1714 466,-19.1714 466,-11.5048 466,-11.5048 466,-7.6714 469.8333,-3.8381 473.6667,-3.8381 473.6667,-3.8381 596.3333,-3.8381 596.3333,-3.8381 600.1667,-3.8381 604,-7.6714 604,-11.5048 604,-11.5048 604,-19.1714 604,-19.1714 604,-23.0048 600.1667,-26.8381 596.3333,-26.8381"/>
<text text-anchor="middle" x="535" y="-11.6381" font-family="Arial" font-size="14.00" fill="#c6c5fe">repositories/user.js</text>
</g>
<!-- controllers/accessToken.js&#45;&gt;repositories/user.js -->
<g id="edge5" class="edge">
<title>controllers/accessToken.js&#45;&gt;repositories/user.js</title>
<path fill="none" stroke="#757575" d="M323.9106,-104.6196C348.0238,-88.3768 394.1258,-59.0272 437,-41.3381 447.9327,-36.8275 459.8771,-32.8936 471.5491,-29.5444"/>
<polygon fill="#757575" stroke="#757575" points="472.5501,-32.8991 481.2614,-26.8688 470.6909,-26.1505 472.5501,-32.8991"/>
</g>
<!-- helpers/jwt.js -->
<g id="node9" class="node">
<title>helpers/jwt.js</title>
<path fill="none" stroke="#c6c5fe" d="M809.8333,-460.8381C809.8333,-460.8381 725.1667,-460.8381 725.1667,-460.8381 721.3333,-460.8381 717.5,-457.0048 717.5,-453.1714 717.5,-453.1714 717.5,-445.5048 717.5,-445.5048 717.5,-441.6714 721.3333,-437.8381 725.1667,-437.8381 725.1667,-437.8381 809.8333,-437.8381 809.8333,-437.8381 813.6667,-437.8381 817.5,-441.6714 817.5,-445.5048 817.5,-445.5048 817.5,-453.1714 817.5,-453.1714 817.5,-457.0048 813.6667,-460.8381 809.8333,-460.8381"/>
<text text-anchor="middle" x="767.5" y="-445.6381" font-family="Arial" font-size="14.00" fill="#c6c5fe">helpers/jwt.js</text>
</g>
<!-- repositories/accessToken.js&#45;&gt;helpers/jwt.js -->
<g id="edge46" class="edge">
<title>repositories/accessToken.js&#45;&gt;helpers/jwt.js</title>
<path fill="none" stroke="#757575" d="M621.3507,-106.9267C625.6064,-109.5547 629.54,-112.6651 633,-116.3381 705.7523,-193.5701 620.7376,-257.8478 669,-352.3381 685.9407,-385.5053 718.5353,-414.1037 741.582,-431.4857"/>
<polygon fill="#757575" stroke="#757575" points="739.7616,-434.4911 749.8948,-437.5845 743.9024,-428.8471 739.7616,-434.4911"/>
</g>
<!-- models/accessToken.js -->
<g id="node26" class="node">
<title>models/accessToken.js</title>
<path fill="none" stroke="#cfffac" d="M1062.3333,-68.8381C1062.3333,-68.8381 909.6667,-68.8381 909.6667,-68.8381 905.8333,-68.8381 902,-65.0048 902,-61.1714 902,-61.1714 902,-53.5048 902,-53.5048 902,-49.6714 905.8333,-45.8381 909.6667,-45.8381 909.6667,-45.8381 1062.3333,-45.8381 1062.3333,-45.8381 1066.1667,-45.8381 1070,-49.6714 1070,-53.5048 1070,-53.5048 1070,-61.1714 1070,-61.1714 1070,-65.0048 1066.1667,-68.8381 1062.3333,-68.8381"/>
<text text-anchor="middle" x="986" y="-53.6381" font-family="Arial" font-size="14.00" fill="#cfffac">models/accessToken.js</text>
</g>
<!-- repositories/accessToken.js&#45;&gt;models/accessToken.js -->
<g id="edge47" class="edge">
<title>repositories/accessToken.js&#45;&gt;models/accessToken.js</title>
<path fill="none" stroke="#757575" d="M554.5531,-83.6091C579.9008,-69.1534 625.9672,-45.3923 669,-36.3381 757.2484,-17.7703 862.0807,-31.4867 926.3153,-43.8226"/>
<polygon fill="#757575" stroke="#757575" points="925.7789,-47.2841 936.2672,-45.7854 927.1335,-40.4164 925.7789,-47.2841"/>
</g>
<!-- models/user.js -->
<g id="node28" class="node">
<title>models/user.js</title>
<path fill="none" stroke="#cfffac" d="M1033.3333,-27.8381C1033.3333,-27.8381 938.6667,-27.8381 938.6667,-27.8381 934.8333,-27.8381 931,-24.0048 931,-20.1714 931,-20.1714 931,-12.5048 931,-12.5048 931,-8.6714 934.8333,-4.8381 938.6667,-4.8381 938.6667,-4.8381 1033.3333,-4.8381 1033.3333,-4.8381 1037.1667,-4.8381 1041,-8.6714 1041,-12.5048 1041,-12.5048 1041,-20.1714 1041,-20.1714 1041,-24.0048 1037.1667,-27.8381 1033.3333,-27.8381"/>
<text text-anchor="middle" x="986" y="-12.6381" font-family="Arial" font-size="14.00" fill="#cfffac">models/user.js</text>
</g>
<!-- repositories/user.js&#45;&gt;models/user.js -->
<g id="edge50" class="edge">
<title>repositories/user.js&#45;&gt;models/user.js</title>
<path fill="none" stroke="#757575" d="M604.1239,-7.96C624.95,-6.0579 647.883,-4.2818 669,-3.3381 756.4683,.5706 778.5719,1.3838 866,-3.3381 883.7541,-4.297 902.9215,-6.0483 920.6151,-7.9614"/>
<polygon fill="#757575" stroke="#757575" points="920.5143,-11.4718 930.8407,-9.1018 921.2902,-4.5149 920.5143,-11.4718"/>
</g>
<!-- controllers/authorizer.js -->
<g id="node8" class="node">
<title>controllers/authorizer.js</title>
<path fill="none" stroke="#c6c5fe" d="M610.3333,-775.8381C610.3333,-775.8381 459.6667,-775.8381 459.6667,-775.8381 455.8333,-775.8381 452,-772.0048 452,-768.1714 452,-768.1714 452,-760.5048 452,-760.5048 452,-756.6714 455.8333,-752.8381 459.6667,-752.8381 459.6667,-752.8381 610.3333,-752.8381 610.3333,-752.8381 614.1667,-752.8381 618,-756.6714 618,-760.5048 618,-760.5048 618,-768.1714 618,-768.1714 618,-772.0048 614.1667,-775.8381 610.3333,-775.8381"/>
<text text-anchor="middle" x="535" y="-760.6381" font-family="Arial" font-size="14.00" fill="#c6c5fe">controllers/authorizer.js</text>
</g>
<!-- controllers/authorizer.js&#45;&gt;constants/response.js -->
<g id="edge6" class="edge">
<title>controllers/authorizer.js&#45;&gt;constants/response.js</title>
<path fill="none" stroke="#757575" d="M618.0065,-774.2797C687.7888,-778.9036 788.3016,-776.5981 866,-738.3381 916.8552,-713.2962 956.1263,-656.4896 974.528,-625.8467"/>
<polygon fill="#757575" stroke="#757575" points="977.7376,-627.291 979.7575,-616.8904 971.6926,-623.7613 977.7376,-627.291"/>
</g>
<!-- controllers/authorizer.js&#45;&gt;helpers/jwt.js -->
<g id="edge7" class="edge">
<title>controllers/authorizer.js&#45;&gt;helpers/jwt.js</title>
<path fill="none" stroke="#757575" d="M566.165,-752.707C587.8428,-743.1082 615.828,-727.4563 633,-705.3381 667.1467,-661.3558 644.3231,-635.253 669,-585.3381 691.2873,-540.2569 728.2623,-494.1796 750.0117,-468.9175"/>
<polygon fill="#757575" stroke="#757575" points="752.8251,-471.0166 756.7606,-461.1799 747.5498,-466.4154 752.8251,-471.0166"/>
</g>
<!-- helpers/jwt.js&#45;&gt;constants/response.js -->
<g id="edge36" class="edge">
<title>helpers/jwt.js&#45;&gt;constants/response.js</title>
<path fill="none" stroke="#757575" d="M786.3049,-460.9454C806.3424,-473.4545 838.8521,-494.1555 866,-513.3381 900.7519,-537.8937 939.6053,-568.2373 963.4337,-587.1946"/>
<polygon fill="#757575" stroke="#757575" points="961.4985,-590.1282 971.4973,-593.6318 965.8658,-584.6576 961.4985,-590.1282"/>
</g>
<!-- helpers/jwt.js&#45;&gt;helpers/format.js -->
<g id="edge37" class="edge">
<title>helpers/jwt.js&#45;&gt;helpers/format.js</title>
<path fill="none" stroke="#757575" d="M779.9483,-437.7008C798.9531,-419.7973 836.1416,-384.2209 866,-352.3381 904.5415,-311.1834 947.1037,-260.5504 969.7359,-233.1778"/>
<polygon fill="#757575" stroke="#757575" points="972.6937,-235.0921 976.3533,-225.1494 967.2921,-230.6398 972.6937,-235.0921"/>
</g>
<!-- controllers/idea.js -->
<g id="node10" class="node">
<title>controllers/idea.js</title>
<path fill="none" stroke="#c6c5fe" d="M363.8333,-529.8381C363.8333,-529.8381 250.1667,-529.8381 250.1667,-529.8381 246.3333,-529.8381 242.5,-526.0048 242.5,-522.1714 242.5,-522.1714 242.5,-514.5048 242.5,-514.5048 242.5,-510.6714 246.3333,-506.8381 250.1667,-506.8381 250.1667,-506.8381 363.8333,-506.8381 363.8333,-506.8381 367.6667,-506.8381 371.5,-510.6714 371.5,-514.5048 371.5,-514.5048 371.5,-522.1714 371.5,-522.1714 371.5,-526.0048 367.6667,-529.8381 363.8333,-529.8381"/>
<text text-anchor="middle" x="307" y="-514.6381" font-family="Arial" font-size="14.00" fill="#c6c5fe">controllers/idea.js</text>
</g>
<!-- controllers/idea.js&#45;&gt;constants/response.js -->
<g id="edge8" class="edge">
<title>controllers/idea.js&#45;&gt;constants/response.js</title>
<path fill="none" stroke="#757575" d="M315.7596,-530.1157C332.6273,-552.8881 370.6346,-604.6541 401,-649.3381 417.6303,-673.8103 411.0301,-691.1598 437,-705.3381 520.7661,-751.0703 775.9255,-716.8783 866,-685.3381 904.7661,-671.7639 943.124,-642.7369 965.6789,-623.6351"/>
<polygon fill="#757575" stroke="#757575" points="968.2452,-626.0429 973.5174,-616.853 963.665,-620.7493 968.2452,-626.0429"/>
</g>
<!-- controllers/idea.js&#45;&gt;helpers/format.js -->
<g id="edge9" class="edge">
<title>controllers/idea.js&#45;&gt;helpers/format.js</title>
<path fill="none" stroke="#757575" d="M323.3001,-506.6172C344.4812,-490.5053 381.1006,-459.4842 401,-424.3381 433.5032,-366.9313 387.5618,-324.0172 437,-280.3381 472.1444,-249.2877 773.3684,-226.6097 914.0989,-217.6084"/>
<polygon fill="#757575" stroke="#757575" points="914.5974,-221.0839 924.356,-216.9584 914.1547,-214.0979 914.5974,-221.0839"/>
</g>
<!-- controllers/idea.js&#45;&gt;helpers/jwt.js -->
<g id="edge10" class="edge">
<title>controllers/idea.js&#45;&gt;helpers/jwt.js</title>
<path fill="none" stroke="#757575" d="M371.5154,-508.6713C460.6854,-495.3103 620.404,-471.3786 707.2547,-458.3651"/>
<polygon fill="#757575" stroke="#757575" points="707.8484,-461.8153 717.2193,-456.872 706.8111,-454.8926 707.8484,-461.8153"/>
</g>
<!-- repositories/idea.js -->
<g id="node11" class="node">
<title>repositories/idea.js</title>
<path fill="none" stroke="#c6c5fe" d="M828.3333,-301.8381C828.3333,-301.8381 706.6667,-301.8381 706.6667,-301.8381 702.8333,-301.8381 699,-298.0048 699,-294.1714 699,-294.1714 699,-286.5048 699,-286.5048 699,-282.6714 702.8333,-278.8381 706.6667,-278.8381 706.6667,-278.8381 828.3333,-278.8381 828.3333,-278.8381 832.1667,-278.8381 836,-282.6714 836,-286.5048 836,-286.5048 836,-294.1714 836,-294.1714 836,-298.0048 832.1667,-301.8381 828.3333,-301.8381"/>
<text text-anchor="middle" x="767.5" y="-286.6381" font-family="Arial" font-size="14.00" fill="#c6c5fe">repositories/idea.js</text>
</g>
<!-- controllers/idea.js&#45;&gt;repositories/idea.js -->
<g id="edge11" class="edge">
<title>controllers/idea.js&#45;&gt;repositories/idea.js</title>
<path fill="none" stroke="#757575" d="M322.5731,-506.6763C343.2826,-490.3997 379.7396,-458.9492 401,-424.3381 427.9242,-380.5065 396.4731,-346.0192 437,-314.3381 474.7828,-284.8022 603.531,-283.5581 688.7351,-286.2824"/>
<polygon fill="#757575" stroke="#757575" points="688.7863,-289.7862 698.901,-286.6327 689.0274,-282.7903 688.7863,-289.7862"/>
</g>
<!-- validations/idea.js -->
<g id="node12" class="node">
<title>validations/idea.js</title>
<path fill="none" stroke="#c6c5fe" d="M592.8333,-695.8381C592.8333,-695.8381 477.1667,-695.8381 477.1667,-695.8381 473.3333,-695.8381 469.5,-692.0048 469.5,-688.1714 469.5,-688.1714 469.5,-680.5048 469.5,-680.5048 469.5,-676.6714 473.3333,-672.8381 477.1667,-672.8381 477.1667,-672.8381 592.8333,-672.8381 592.8333,-672.8381 596.6667,-672.8381 600.5,-676.6714 600.5,-680.5048 600.5,-680.5048 600.5,-688.1714 600.5,-688.1714 600.5,-692.0048 596.6667,-695.8381 592.8333,-695.8381"/>
<text text-anchor="middle" x="535" y="-680.6381" font-family="Arial" font-size="14.00" fill="#c6c5fe">validations/idea.js</text>
</g>
<!-- controllers/idea.js&#45;&gt;validations/idea.js -->
<g id="edge12" class="edge">
<title>controllers/idea.js&#45;&gt;validations/idea.js</title>
<path fill="none" stroke="#757575" d="M314.5092,-530.1944C332.3013,-557.2825 379.848,-624.0115 437,-658.3381 444.4005,-662.783 452.5622,-666.4791 460.9218,-669.5501"/>
<polygon fill="#757575" stroke="#757575" points="459.8199,-672.8721 470.4142,-672.7584 462.0613,-666.2406 459.8199,-672.8721"/>
</g>
<!-- repositories/idea.js&#45;&gt;constants/constants.js -->
<g id="edge48" class="edge">
<title>repositories/idea.js&#45;&gt;constants/constants.js</title>
<path fill="none" stroke="#757575" d="M826.8763,-301.8759C839.8362,-304.7058 853.4315,-307.9151 866,-311.3381 892.6048,-318.5839 921.9797,-328.3447 945.0071,-336.4102"/>
<polygon fill="#757575" stroke="#757575" points="943.866,-339.719 954.4608,-339.7508 946.1983,-333.119 943.866,-339.719"/>
</g>
<!-- models/idea.js -->
<g id="node27" class="node">
<title>models/idea.js</title>
<path fill="none" stroke="#cfffac" d="M1033.3333,-109.8381C1033.3333,-109.8381 938.6667,-109.8381 938.6667,-109.8381 934.8333,-109.8381 931,-106.0048 931,-102.1714 931,-102.1714 931,-94.5048 931,-94.5048 931,-90.6714 934.8333,-86.8381 938.6667,-86.8381 938.6667,-86.8381 1033.3333,-86.8381 1033.3333,-86.8381 1037.1667,-86.8381 1041,-90.6714 1041,-94.5048 1041,-94.5048 1041,-102.1714 1041,-102.1714 1041,-106.0048 1037.1667,-109.8381 1033.3333,-109.8381"/>
<text text-anchor="middle" x="986" y="-94.6381" font-family="Arial" font-size="14.00" fill="#cfffac">models/idea.js</text>
</g>
<!-- repositories/idea.js&#45;&gt;models/idea.js -->
<g id="edge49" class="edge">
<title>repositories/idea.js&#45;&gt;models/idea.js</title>
<path fill="none" stroke="#757575" d="M780.8392,-278.6167C817.6488,-246.2714 920.8544,-155.5828 965.2578,-116.5646"/>
<polygon fill="#757575" stroke="#757575" points="967.6337,-119.1362 972.8353,-109.9061 963.0131,-113.8778 967.6337,-119.1362"/>
</g>
<!-- validations/idea.js&#45;&gt;constants/response.js -->
<g id="edge53" class="edge">
<title>validations/idea.js&#45;&gt;constants/response.js</title>
<path fill="none" stroke="#757575" d="M600.7679,-686.0156C668.3456,-686.2042 776.0816,-682.2137 866,-659.3381 898.6414,-651.034 933.4855,-634.385 957.1695,-621.7568"/>
<polygon fill="#757575" stroke="#757575" points="958.8644,-624.8192 965.98,-616.9694 955.5223,-618.6686 958.8644,-624.8192"/>
</g>
<!-- helpers/validation.js -->
<g id="node25" class="node">
<title>helpers/validation.js</title>
<path fill="none" stroke="#c6c5fe" d="M831.8333,-616.8381C831.8333,-616.8381 703.1667,-616.8381 703.1667,-616.8381 699.3333,-616.8381 695.5,-613.0048 695.5,-609.1714 695.5,-609.1714 695.5,-601.5048 695.5,-601.5048 695.5,-597.6714 699.3333,-593.8381 703.1667,-593.8381 703.1667,-593.8381 831.8333,-593.8381 831.8333,-593.8381 835.6667,-593.8381 839.5,-597.6714 839.5,-601.5048 839.5,-601.5048 839.5,-609.1714 839.5,-609.1714 839.5,-613.0048 835.6667,-616.8381 831.8333,-616.8381"/>
<text text-anchor="middle" x="767.5" y="-601.6381" font-family="Arial" font-size="14.00" fill="#c6c5fe">helpers/validation.js</text>
</g>
<!-- validations/idea.js&#45;&gt;helpers/validation.js -->
<g id="edge54" class="edge">
<title>validations/idea.js&#45;&gt;helpers/validation.js</title>
<path fill="none" stroke="#757575" d="M569.3062,-672.6814C610.2908,-658.7554 678.9235,-635.4351 723.7033,-620.2196"/>
<polygon fill="#757575" stroke="#757575" points="725.0895,-623.4452 733.4318,-616.914 722.8374,-616.8173 725.0895,-623.4452"/>
</g>
<!-- controllers/user.js -->
<g id="node13" class="node">
<title>controllers/user.js</title>
<path fill="none" stroke="#c6c5fe" d="M364.3333,-345.8381C364.3333,-345.8381 249.6667,-345.8381 249.6667,-345.8381 245.8333,-345.8381 242,-342.0048 242,-338.1714 242,-338.1714 242,-330.5048 242,-330.5048 242,-326.6714 245.8333,-322.8381 249.6667,-322.8381 249.6667,-322.8381 364.3333,-322.8381 364.3333,-322.8381 368.1667,-322.8381 372,-326.6714 372,-330.5048 372,-330.5048 372,-338.1714 372,-338.1714 372,-342.0048 368.1667,-345.8381 364.3333,-345.8381"/>
<text text-anchor="middle" x="307" y="-330.6381" font-family="Arial" font-size="14.00" fill="#c6c5fe">controllers/user.js</text>
</g>
<!-- controllers/user.js&#45;&gt;constants/response.js -->
<g id="edge13" class="edge">
<title>controllers/user.js&#45;&gt;constants/response.js</title>
<path fill="none" stroke="#757575" d="M341.261,-345.9537C360.7525,-353.9674 384.4921,-366.2762 401,-383.3381 426.7099,-409.9109 408.5413,-434.7327 437,-458.3381 446.736,-466.4137 793.3186,-555.9198 930.7089,-591.1815"/>
<polygon fill="#757575" stroke="#757575" points="930.0658,-594.6298 940.6219,-593.7248 931.8054,-587.8494 930.0658,-594.6298"/>
</g>
<!-- controllers/user.js&#45;&gt;helpers/crypto.js -->
<g id="edge14" class="edge">
<title>controllers/user.js&#45;&gt;helpers/crypto.js</title>
<path fill="none" stroke="#757575" d="M312.3956,-322.5943C327.3805,-291.334 372.6802,-205.5398 437,-162.3381 445.2742,-156.7806 454.6828,-152.4095 464.3191,-148.972"/>
<polygon fill="#757575" stroke="#757575" points="465.5633,-152.2481 473.9977,-145.8362 463.4057,-145.5888 465.5633,-152.2481"/>
</g>
<!-- controllers/user.js&#45;&gt;helpers/format.js -->
<g id="edge15" class="edge">
<title>controllers/user.js&#45;&gt;helpers/format.js</title>
<path fill="none" stroke="#757575" d="M313.5212,-322.4484C329.8565,-294.0801 375.6576,-222.8261 437,-196.3381 609.0652,-122.0396 840.5277,-171.8472 938.7602,-198.9903"/>
<polygon fill="#757575" stroke="#757575" points="938.1061,-202.4421 948.6802,-201.7804 940.0014,-195.7035 938.1061,-202.4421"/>
</g>
<!-- controllers/user.js&#45;&gt;repositories/accessToken.js -->
<g id="edge17" class="edge">
<title>controllers/user.js&#45;&gt;repositories/accessToken.js</title>
<path fill="none" stroke="#757575" d="M310.315,-322.5821C321.3799,-285.6285 360.7232,-171.0334 437,-116.3381 439.5342,-114.5209 442.1939,-112.8552 444.9491,-111.3287"/>
<polygon fill="#757575" stroke="#757575" points="446.5723,-114.4314 454.0364,-106.9122 443.5124,-108.1355 446.5723,-114.4314"/>
</g>
<!-- controllers/user.js&#45;&gt;repositories/user.js -->
<g id="edge18" class="edge">
<title>controllers/user.js&#45;&gt;repositories/user.js</title>
<path fill="none" stroke="#757575" d="M312.4195,-322.6118C334.5964,-274.7619 418.1464,-95.8496 437,-75.3381 454.1322,-56.6994 478.3607,-41.7957 498.4402,-31.5042"/>
<polygon fill="#757575" stroke="#757575" points="500.2096,-34.5338 507.6233,-26.965 497.1078,-28.2586 500.2096,-34.5338"/>
</g>
<!-- controllers/user.js&#45;&gt;helpers/jwt.js -->
<g id="edge16" class="edge">
<title>controllers/user.js&#45;&gt;helpers/jwt.js</title>
<path fill="none" stroke="#757575" d="M336.3132,-346.0177C355.8108,-354.6179 381.35,-367.5403 401,-383.3381 420.4253,-398.9552 414.7964,-415.014 437,-426.3381 522.7758,-470.085 637.6989,-466.4524 706.9688,-458.6988"/>
<polygon fill="#757575" stroke="#757575" points="707.7473,-462.1312 717.2656,-457.478 706.923,-455.1798 707.7473,-462.1312"/>
</g>
<!-- services/gravatar.js -->
<g id="node14" class="node">
<title>services/gravatar.js</title>
<path fill="none" stroke="#c6c5fe" d="M598.3333,-345.8381C598.3333,-345.8381 471.6667,-345.8381 471.6667,-345.8381 467.8333,-345.8381 464,-342.0048 464,-338.1714 464,-338.1714 464,-330.5048 464,-330.5048 464,-326.6714 467.8333,-322.8381 471.6667,-322.8381 471.6667,-322.8381 598.3333,-322.8381 598.3333,-322.8381 602.1667,-322.8381 606,-326.6714 606,-330.5048 606,-330.5048 606,-338.1714 606,-338.1714 606,-342.0048 602.1667,-345.8381 598.3333,-345.8381"/>
<text text-anchor="middle" x="535" y="-330.6381" font-family="Arial" font-size="14.00" fill="#c6c5fe">services/gravatar.js</text>
</g>
<!-- controllers/user.js&#45;&gt;services/gravatar.js -->
<g id="edge19" class="edge">
<title>controllers/user.js&#45;&gt;services/gravatar.js</title>
<path fill="none" stroke="#757575" d="M372.0305,-334.3381C397.4737,-334.3381 426.9349,-334.3381 453.7535,-334.3381"/>
<polygon fill="#757575" stroke="#757575" points="453.8887,-337.8382 463.8887,-334.3381 453.8886,-330.8382 453.8887,-337.8382"/>
</g>
<!-- validations/user.js -->
<g id="node15" class="node">
<title>validations/user.js</title>
<path fill="none" stroke="#c6c5fe" d="M593.3333,-615.8381C593.3333,-615.8381 476.6667,-615.8381 476.6667,-615.8381 472.8333,-615.8381 469,-612.0048 469,-608.1714 469,-608.1714 469,-600.5048 469,-600.5048 469,-596.6714 472.8333,-592.8381 476.6667,-592.8381 476.6667,-592.8381 593.3333,-592.8381 593.3333,-592.8381 597.1667,-592.8381 601,-596.6714 601,-600.5048 601,-600.5048 601,-608.1714 601,-608.1714 601,-612.0048 597.1667,-615.8381 593.3333,-615.8381"/>
<text text-anchor="middle" x="535" y="-600.6381" font-family="Arial" font-size="14.00" fill="#c6c5fe">validations/user.js</text>
</g>
<!-- controllers/user.js&#45;&gt;validations/user.js -->
<g id="edge20" class="edge">
<title>controllers/user.js&#45;&gt;validations/user.js</title>
<path fill="none" stroke="#757575" d="M346.0188,-345.9558C365.2805,-353.6099 387.2724,-365.5712 401,-383.3381 444.7698,-439.9874 396.0574,-481.613 437,-540.3381 451.8149,-561.5876 476.1755,-577.5439 496.9017,-588.2095"/>
<polygon fill="#757575" stroke="#757575" points="495.6026,-591.4708 506.1214,-592.7377 498.6885,-585.1877 495.6026,-591.4708"/>
</g>
<!-- services/gravatar.js&#45;&gt;constants/constants.js -->
<g id="edge51" class="edge">
<title>services/gravatar.js&#45;&gt;constants/constants.js</title>
<path fill="none" stroke="#757575" d="M606.1031,-345.6862C626.3684,-348.4315 648.507,-350.9679 669,-352.3381 756.3605,-358.1794 778.4452,-352.7029 866,-352.3381 875.4322,-352.2988 885.2813,-352.2421 895.1049,-352.1755"/>
<polygon fill="#757575" stroke="#757575" points="895.3396,-355.674 905.3144,-352.1027 895.2896,-348.6741 895.3396,-355.674"/>
</g>
<!-- helpers/logging.js -->
<g id="node17" class="node">
<title>helpers/logging.js</title>
<path fill="none" stroke="#c6c5fe" d="M824.8333,-342.8381C824.8333,-342.8381 710.1667,-342.8381 710.1667,-342.8381 706.3333,-342.8381 702.5,-339.0048 702.5,-335.1714 702.5,-335.1714 702.5,-327.5048 702.5,-327.5048 702.5,-323.6714 706.3333,-319.8381 710.1667,-319.8381 710.1667,-319.8381 824.8333,-319.8381 824.8333,-319.8381 828.6667,-319.8381 832.5,-323.6714 832.5,-327.5048 832.5,-327.5048 832.5,-335.1714 832.5,-335.1714 832.5,-339.0048 828.6667,-342.8381 824.8333,-342.8381"/>
<text text-anchor="middle" x="767.5" y="-327.6381" font-family="Arial" font-size="14.00" fill="#c6c5fe">helpers/logging.js</text>
</g>
<!-- services/gravatar.js&#45;&gt;helpers/logging.js -->
<g id="edge52" class="edge">
<title>services/gravatar.js&#45;&gt;helpers/logging.js</title>
<path fill="none" stroke="#757575" d="M606.021,-333.4217C633.3764,-333.0687 664.6905,-332.6647 692.4169,-332.3069"/>
<polygon fill="#757575" stroke="#757575" points="692.5017,-335.8062 702.4556,-332.1774 692.4113,-328.8068 692.5017,-335.8062"/>
</g>
<!-- validations/user.js&#45;&gt;constants/response.js -->
<g id="edge55" class="edge">
<title>validations/user.js&#45;&gt;constants/response.js</title>
<path fill="none" stroke="#757575" d="M601.2571,-593.0593C622.7944,-589.8985 646.8508,-586.9006 669,-585.3381 756.3385,-579.177 778.7428,-578.1165 866,-585.3381 883.2435,-586.7652 901.7395,-589.3271 918.9205,-592.1512"/>
<polygon fill="#757575" stroke="#757575" points="918.4206,-595.6164 928.8651,-593.8378 919.5911,-588.7149 918.4206,-595.6164"/>
</g>
<!-- validations/user.js&#45;&gt;helpers/validation.js -->
<g id="edge56" class="edge">
<title>validations/user.js&#45;&gt;helpers/validation.js</title>
<path fill="none" stroke="#757575" d="M601.0033,-604.622C627.1888,-604.7346 657.5861,-604.8654 685.1861,-604.9841"/>
<polygon fill="#757575" stroke="#757575" points="685.2,-608.4841 695.215,-605.0272 685.2302,-601.4841 685.2,-608.4841"/>
</g>
<!-- database/database.js -->
<g id="node16" class="node">
<title>database/database.js</title>
<path fill="none" stroke="#c6c5fe" d="M605.3333,-227.8381C605.3333,-227.8381 464.6667,-227.8381 464.6667,-227.8381 460.8333,-227.8381 457,-224.0048 457,-220.1714 457,-220.1714 457,-212.5048 457,-212.5048 457,-208.6714 460.8333,-204.8381 464.6667,-204.8381 464.6667,-204.8381 605.3333,-204.8381 605.3333,-204.8381 609.1667,-204.8381 613,-208.6714 613,-212.5048 613,-212.5048 613,-220.1714 613,-220.1714 613,-224.0048 609.1667,-227.8381 605.3333,-227.8381"/>
<text text-anchor="middle" x="535" y="-212.6381" font-family="Arial" font-size="14.00" fill="#c6c5fe">database/database.js</text>
</g>
<!-- database/database.js&#45;&gt;helpers/logging.js -->
<g id="edge21" class="edge">
<title>database/database.js&#45;&gt;helpers/logging.js</title>
<path fill="none" stroke="#757575" d="M547.5673,-228.0539C570.0716,-248.3503 619.5377,-289.9274 669,-311.3381 676.457,-314.566 684.4603,-317.2814 692.5644,-319.5638"/>
<polygon fill="#757575" stroke="#757575" points="691.9107,-323.0102 702.4696,-322.1386 693.6718,-316.2353 691.9107,-323.0102"/>
</g>
<!-- models/modelAssociation.js -->
<g id="node18" class="node">
<title>models/modelAssociation.js</title>
<path fill="none" stroke="#c6c5fe" d="M858.3333,-109.8381C858.3333,-109.8381 676.6667,-109.8381 676.6667,-109.8381 672.8333,-109.8381 669,-106.0048 669,-102.1714 669,-102.1714 669,-94.5048 669,-94.5048 669,-90.6714 672.8333,-86.8381 676.6667,-86.8381 676.6667,-86.8381 858.3333,-86.8381 858.3333,-86.8381 862.1667,-86.8381 866,-90.6714 866,-94.5048 866,-94.5048 866,-102.1714 866,-102.1714 866,-106.0048 862.1667,-109.8381 858.3333,-109.8381"/>
<text text-anchor="middle" x="767.5" y="-94.6381" font-family="Arial" font-size="14.00" fill="#c6c5fe">models/modelAssociation.js</text>
</g>
<!-- database/database.js&#45;&gt;models/modelAssociation.js -->
<g id="edge22" class="edge">
<title>database/database.js&#45;&gt;models/modelAssociation.js</title>
<path fill="none" stroke="#757575" d="M557.7164,-204.8089C599.387,-183.66 688.1276,-138.6218 735.7428,-114.4557"/>
<polygon fill="#757575" stroke="#757575" points="737.3581,-117.5609 744.6914,-109.9141 734.1901,-111.3188 737.3581,-117.5609"/>
</g>
<!-- models/modelInit.js -->
<g id="node19" class="node">
<title>models/modelInit.js</title>
<path fill="none" stroke="#c6c5fe" d="M829.8333,-68.8381C829.8333,-68.8381 705.1667,-68.8381 705.1667,-68.8381 701.3333,-68.8381 697.5,-65.0048 697.5,-61.1714 697.5,-61.1714 697.5,-53.5048 697.5,-53.5048 697.5,-49.6714 701.3333,-45.8381 705.1667,-45.8381 705.1667,-45.8381 829.8333,-45.8381 829.8333,-45.8381 833.6667,-45.8381 837.5,-49.6714 837.5,-53.5048 837.5,-53.5048 837.5,-61.1714 837.5,-61.1714 837.5,-65.0048 833.6667,-68.8381 829.8333,-68.8381"/>
<text text-anchor="middle" x="767.5" y="-53.6381" font-family="Arial" font-size="14.00" fill="#c6c5fe">models/modelInit.js</text>
</g>
<!-- database/database.js&#45;&gt;models/modelInit.js -->
<g id="edge23" class="edge">
<title>database/database.js&#45;&gt;models/modelInit.js</title>
<path fill="none" stroke="#757575" d="M563.4863,-204.8022C584.9402,-194.9039 613.8348,-178.8301 633,-157.3381 658.6801,-128.5401 638.916,-102.4989 669,-78.3381 674.6704,-73.7842 681.0984,-70.1557 687.8882,-67.2721"/>
<polygon fill="#757575" stroke="#757575" points="689.1652,-70.5316 697.334,-63.7847 686.7407,-63.9649 689.1652,-70.5316"/>
</g>
<!-- helpers/logging.js&#45;&gt;constants/constants.js -->
<g id="edge38" class="edge">
<title>helpers/logging.js&#45;&gt;constants/constants.js</title>
<path fill="none" stroke="#757575" d="M832.7612,-337.3117C852.3214,-339.1021 874.1401,-341.0992 895.0396,-343.0122"/>
<polygon fill="#757575" stroke="#757575" points="894.9342,-346.5171 905.2116,-343.9433 895.5723,-339.5462 894.9342,-346.5171"/>
</g>
<!-- models/modelAssociation.js&#45;&gt;models/accessToken.js -->
<g id="edge40" class="edge">
<title>models/modelAssociation.js&#45;&gt;models/accessToken.js</title>
<path fill="none" stroke="#757575" d="M828.9459,-86.8082C855.5891,-81.8088 886.9572,-75.9228 914.6262,-70.7309"/>
<polygon fill="#757575" stroke="#757575" points="915.4541,-74.1367 924.6371,-68.8524 914.1631,-67.2568 915.4541,-74.1367"/>
</g>
<!-- models/modelAssociation.js&#45;&gt;models/idea.js -->
<g id="edge41" class="edge">
<title>models/modelAssociation.js&#45;&gt;models/idea.js</title>
<path fill="none" stroke="#757575" d="M866.2024,-98.3381C884.559,-98.3381 903.3165,-98.3381 920.3759,-98.3381"/>
<polygon fill="#757575" stroke="#757575" points="920.7596,-101.8382 930.7596,-98.3381 920.7595,-94.8382 920.7596,-101.8382"/>
</g>
<!-- models/modelAssociation.js&#45;&gt;models/user.js -->
<g id="edge42" class="edge">
<title>models/modelAssociation.js&#45;&gt;models/user.js</title>
<path fill="none" stroke="#757575" d="M847.6962,-86.8373C854.093,-84.5 860.283,-81.6974 866,-78.3381 887.197,-65.8829 881.0141,-49.1458 902,-36.3381 907.8463,-32.7702 914.2812,-29.8387 920.9086,-27.4302"/>
<polygon fill="#757575" stroke="#757575" points="922.2709,-30.6683 930.7099,-24.2625 920.1181,-24.0075 922.2709,-30.6683"/>
</g>
<!-- models/modelInit.js&#45;&gt;models/accessToken.js -->
<g id="edge43" class="edge">
<title>models/modelInit.js&#45;&gt;models/accessToken.js</title>
<path fill="none" stroke="#757575" d="M837.5364,-57.3381C854.809,-57.3381 873.5895,-57.3381 891.8011,-57.3381"/>
<polygon fill="#757575" stroke="#757575" points="891.847,-60.8382 901.8469,-57.3381 891.8469,-53.8382 891.847,-60.8382"/>
</g>
<!-- models/modelInit.js&#45;&gt;models/idea.js -->
<g id="edge44" class="edge">
<title>models/modelInit.js&#45;&gt;models/idea.js</title>
<path fill="none" stroke="#757575" d="M828.9459,-68.868C857.6254,-74.2495 891.7798,-80.6583 920.9019,-86.1229"/>
<polygon fill="#757575" stroke="#757575" points="920.5017,-89.6088 930.9756,-88.0132 921.7927,-82.7289 920.5017,-89.6088"/>
</g>
<!-- models/modelInit.js&#45;&gt;models/user.js -->
<g id="edge45" class="edge">
<title>models/modelInit.js&#45;&gt;models/user.js</title>
<path fill="none" stroke="#757575" d="M828.9459,-45.8082C857.6254,-40.4267 891.7798,-34.0179 920.9019,-28.5533"/>
<polygon fill="#757575" stroke="#757575" points="921.7927,-31.9473 930.9756,-26.663 920.5017,-25.0674 921.7927,-31.9473"/>
</g>
<!-- handlers/accessToken.js -->
<g id="node20" class="node">
<title>handlers/accessToken.js</title>
<path fill="none" stroke="#c6c5fe" d="M169.3333,-260.8381C169.3333,-260.8381 7.6667,-260.8381 7.6667,-260.8381 3.8333,-260.8381 0,-257.0048 0,-253.1714 0,-253.1714 0,-245.5048 0,-245.5048 0,-241.6714 3.8333,-237.8381 7.6667,-237.8381 7.6667,-237.8381 169.3333,-237.8381 169.3333,-237.8381 173.1667,-237.8381 177,-241.6714 177,-245.5048 177,-245.5048 177,-253.1714 177,-253.1714 177,-257.0048 173.1667,-260.8381 169.3333,-260.8381"/>
<text text-anchor="middle" x="88.5" y="-245.6381" font-family="Arial" font-size="14.00" fill="#c6c5fe">handlers/accessToken.js</text>
</g>
<!-- handlers/accessToken.js&#45;&gt;controllers/accessToken.js -->
<g id="edge24" class="edge">
<title>handlers/accessToken.js&#45;&gt;controllers/accessToken.js</title>
<path fill="none" stroke="#757575" d="M107.5082,-237.7679C146.1682,-214.2358 234.1051,-160.7089 279.2,-133.2598"/>
<polygon fill="#757575" stroke="#757575" points="281.158,-136.1655 287.8801,-127.9763 277.5183,-130.1861 281.158,-136.1655"/>
</g>
<!-- helpers/context.js -->
<g id="node21" class="node">
<title>helpers/context.js</title>
<path fill="none" stroke="#c6c5fe" d="M364.3333,-414.8381C364.3333,-414.8381 249.6667,-414.8381 249.6667,-414.8381 245.8333,-414.8381 242,-411.0048 242,-407.1714 242,-407.1714 242,-399.5048 242,-399.5048 242,-395.6714 245.8333,-391.8381 249.6667,-391.8381 249.6667,-391.8381 364.3333,-391.8381 364.3333,-391.8381 368.1667,-391.8381 372,-395.6714 372,-399.5048 372,-399.5048 372,-407.1714 372,-407.1714 372,-411.0048 368.1667,-414.8381 364.3333,-414.8381"/>
<text text-anchor="middle" x="307" y="-399.6381" font-family="Arial" font-size="14.00" fill="#c6c5fe">helpers/context.js</text>
</g>
<!-- handlers/accessToken.js&#45;&gt;helpers/context.js -->
<g id="edge25" class="edge">
<title>handlers/accessToken.js&#45;&gt;helpers/context.js</title>
<path fill="none" stroke="#757575" d="M100.1142,-260.8697C121.2911,-281.5056 168.1436,-325.3876 213,-355.3381 231.1299,-367.4434 252.7099,-378.6639 270.6179,-387.2076"/>
<polygon fill="#757575" stroke="#757575" points="269.6032,-390.5971 280.1438,-391.6674 272.5712,-384.2574 269.6032,-390.5971"/>
</g>
<!-- helpers/context.js&#45;&gt;constants/constants.js -->
<g id="edge32" class="edge">
<title>helpers/context.js&#45;&gt;constants/constants.js</title>
<path fill="none" stroke="#757575" d="M327.8527,-414.8622C352.9111,-428.0621 396.6373,-449.0593 437,-458.3381 622.8925,-501.0721 689.6257,-542.9628 866,-470.3381 914.7169,-450.2782 954.1314,-399.8109 973.3245,-371.4632"/>
<polygon fill="#757575" stroke="#757575" points="976.2532,-373.3795 978.8316,-363.1032 970.4076,-369.5287 976.2532,-373.3795"/>
</g>
<!-- helpers/context.js&#45;&gt;constants/response.js -->
<g id="edge33" class="edge">
<title>helpers/context.js&#45;&gt;constants/response.js</title>
<path fill="none" stroke="#757575" d="M322.7727,-415.0384C343.7083,-431.3911 380.4208,-463.0667 401,-498.3381 430.5658,-549.012 390.2753,-589.8588 437,-625.3381 510.1051,-680.8488 783.6511,-641.576 914.8868,-618.6716"/>
<polygon fill="#757575" stroke="#757575" points="915.6068,-622.0987 924.8479,-616.9167 914.3923,-615.2049 915.6068,-622.0987"/>
</g>
<!-- helpers/context.js&#45;&gt;database/database.js -->
<g id="edge34" class="edge">
<title>helpers/context.js&#45;&gt;database/database.js</title>
<path fill="none" stroke="#757575" d="M345.4149,-391.6639C364.5114,-384.0856 386.5378,-372.3852 401,-355.3381 435.099,-315.1445 398.8255,-278.6833 437,-242.3381 440.8843,-238.6399 445.2322,-235.4537 449.8784,-232.7101"/>
<polygon fill="#757575" stroke="#757575" points="451.8369,-235.6391 459.1373,-227.961 448.6421,-229.4107 451.8369,-235.6391"/>
</g>
<!-- helpers/context.js&#45;&gt;helpers/logging.js -->
<g id="edge35" class="edge">
<title>helpers/context.js&#45;&gt;helpers/logging.js</title>
<path fill="none" stroke="#757575" d="M372.0352,-394.3555C437.8994,-385.1189 542.6575,-370.0459 633,-355.3381 653.2279,-352.045 675.1228,-348.2409 695.2553,-344.6459"/>
<polygon fill="#757575" stroke="#757575" points="696.0673,-348.0562 705.292,-342.8451 694.831,-341.1662 696.0673,-348.0562"/>
</g>
<!-- handlers/authorizer.js -->
<g id="node22" class="node">
<title>handlers/authorizer.js</title>
<path fill="none" stroke="#c6c5fe" d="M158.3333,-605.8381C158.3333,-605.8381 18.6667,-605.8381 18.6667,-605.8381 14.8333,-605.8381 11,-602.0048 11,-598.1714 11,-598.1714 11,-590.5048 11,-590.5048 11,-586.6714 14.8333,-582.8381 18.6667,-582.8381 18.6667,-582.8381 158.3333,-582.8381 158.3333,-582.8381 162.1667,-582.8381 166,-586.6714 166,-590.5048 166,-590.5048 166,-598.1714 166,-598.1714 166,-602.0048 162.1667,-605.8381 158.3333,-605.8381"/>
<text text-anchor="middle" x="88.5" y="-590.6381" font-family="Arial" font-size="14.00" fill="#c6c5fe">handlers/authorizer.js</text>
</g>
<!-- handlers/authorizer.js&#45;&gt;controllers/authorizer.js -->
<g id="edge26" class="edge">
<title>handlers/authorizer.js&#45;&gt;controllers/authorizer.js</title>
<path fill="none" stroke="#757575" d="M113.4248,-605.9834C170.0199,-632.1253 312.9484,-696.4587 437,-738.3381 449.692,-742.6229 463.4984,-746.6578 476.635,-750.2128"/>
<polygon fill="#757575" stroke="#757575" points="475.9575,-753.654 486.5205,-752.8339 477.7516,-746.8878 475.9575,-753.654"/>
</g>
<!-- handlers/authorizer.js&#45;&gt;helpers/context.js -->
<g id="edge27" class="edge">
<title>handlers/authorizer.js&#45;&gt;helpers/context.js</title>
<path fill="none" stroke="#757575" d="M101.8392,-582.6777C138.6488,-550.501 241.8544,-460.2846 286.2578,-421.4697"/>
<polygon fill="#757575" stroke="#757575" points="288.6099,-424.0624 293.8353,-414.8459 284.0029,-418.7922 288.6099,-424.0624"/>
</g>
<!-- handlers/idea.js -->
<g id="node23" class="node">
<title>handlers/idea.js</title>
<path fill="none" stroke="#c6c5fe" d="M140.3333,-477.8381C140.3333,-477.8381 36.6667,-477.8381 36.6667,-477.8381 32.8333,-477.8381 29,-474.0048 29,-470.1714 29,-470.1714 29,-462.5048 29,-462.5048 29,-458.6714 32.8333,-454.8381 36.6667,-454.8381 36.6667,-454.8381 140.3333,-454.8381 140.3333,-454.8381 144.1667,-454.8381 148,-458.6714 148,-462.5048 148,-462.5048 148,-470.1714 148,-470.1714 148,-474.0048 144.1667,-477.8381 140.3333,-477.8381"/>
<text text-anchor="middle" x="88.5" y="-462.6381" font-family="Arial" font-size="14.00" fill="#c6c5fe">handlers/idea.js</text>
</g>
<!-- handlers/idea.js&#45;&gt;controllers/idea.js -->
<g id="edge28" class="edge">
<title>handlers/idea.js&#45;&gt;controllers/idea.js</title>
<path fill="none" stroke="#757575" d="M136.9922,-477.8786C169.9482,-485.7217 213.7198,-496.1387 248.5946,-504.4384"/>
<polygon fill="#757575" stroke="#757575" points="248.1047,-507.9195 258.6433,-506.8299 249.7254,-501.1097 248.1047,-507.9195"/>
</g>
<!-- handlers/idea.js&#45;&gt;helpers/context.js -->
<g id="edge29" class="edge">
<title>handlers/idea.js&#45;&gt;helpers/context.js</title>
<path fill="none" stroke="#757575" d="M128.5763,-454.7829C164.6536,-444.3808 217.8276,-429.0491 256.7405,-417.8294"/>
<polygon fill="#757575" stroke="#757575" points="258.1695,-421.06 266.8084,-414.9265 256.2302,-414.334 258.1695,-421.06"/>
</g>
<!-- handlers/user.js -->
<g id="node24" class="node">
<title>handlers/user.js</title>
<path fill="none" stroke="#c6c5fe" d="M140.3333,-379.8381C140.3333,-379.8381 36.6667,-379.8381 36.6667,-379.8381 32.8333,-379.8381 29,-376.0048 29,-372.1714 29,-372.1714 29,-364.5048 29,-364.5048 29,-360.6714 32.8333,-356.8381 36.6667,-356.8381 36.6667,-356.8381 140.3333,-356.8381 140.3333,-356.8381 144.1667,-356.8381 148,-360.6714 148,-364.5048 148,-364.5048 148,-372.1714 148,-372.1714 148,-376.0048 144.1667,-379.8381 140.3333,-379.8381"/>
<text text-anchor="middle" x="88.5" y="-364.6381" font-family="Arial" font-size="14.00" fill="#c6c5fe">handlers/user.js</text>
</g>
<!-- handlers/user.js&#45;&gt;controllers/user.js -->
<g id="edge30" class="edge">
<title>handlers/user.js&#45;&gt;controllers/user.js</title>
<path fill="none" stroke="#757575" d="M148.2061,-359.0475C174.0891,-355.0199 204.6792,-350.2599 232.0668,-345.9982"/>
<polygon fill="#757575" stroke="#757575" points="232.6545,-349.4489 241.9974,-344.4529 231.5782,-342.5322 232.6545,-349.4489"/>
</g>
<!-- handlers/user.js&#45;&gt;helpers/context.js -->
<g id="edge31" class="edge">
<title>handlers/user.js&#45;&gt;helpers/context.js</title>
<path fill="none" stroke="#757575" d="M148.2061,-377.902C174.0891,-382.048 204.6792,-386.948 232.0668,-391.3351"/>
<polygon fill="#757575" stroke="#757575" points="231.5697,-394.8 241.9974,-392.9258 232.6769,-387.8881 231.5697,-394.8"/>
</g>
<!-- helpers/validation.js&#45;&gt;constants/response.js -->
<g id="edge39" class="edge">
<title>helpers/validation.js&#45;&gt;constants/response.js</title>
<path fill="none" stroke="#757575" d="M839.6506,-605.3381C857.8793,-605.3381 877.6716,-605.3381 896.6365,-605.3381"/>
<polygon fill="#757575" stroke="#757575" points="896.7677,-608.8382 906.7677,-605.3381 896.7677,-601.8382 896.7677,-608.8382"/>
</g>
</g>
</svg>
