<?xml version="1.0" encoding="UTF-8" standalone="no"?>
<!DOCTYPE svg PUBLIC "-//W3C//DTD SVG 1.1//EN"
 "http://www.w3.org/Graphics/SVG/1.1/DTD/svg11.dtd">
<!-- Generated by graphviz version 2.40.1 (20161225.0304)
 -->
<!-- Title: G Pages: 1 -->
<svg width="1113pt" height="606pt"
 viewBox="0.00 0.00 1113.20 605.58" xmlns="http://www.w3.org/2000/svg" xmlns:xlink="http://www.w3.org/1999/xlink">
<g id="graph0" class="graph" transform="scale(1 1) rotate(0) translate(21.6 583.985)">
<title>G</title>
<polygon fill="#111111" stroke="transparent" points="-21.6,21.6 -21.6,-583.985 1091.6,-583.985 1091.6,21.6 -21.6,21.6"/>
<!-- constants/constants.js -->
<g id="node1" class="node">
<title>constants/constants.js</title>
<path fill="none" stroke="#cfffac" d="M1058.8333,-46.385C1058.8333,-46.385 913.1667,-46.385 913.1667,-46.385 909.3333,-46.385 905.5,-42.5516 905.5,-38.7183 905.5,-38.7183 905.5,-31.0516 905.5,-31.0516 905.5,-27.2183 909.3333,-23.385 913.1667,-23.385 913.1667,-23.385 1058.8333,-23.385 1058.8333,-23.385 1062.6667,-23.385 1066.5,-27.2183 1066.5,-31.0516 1066.5,-31.0516 1066.5,-38.7183 1066.5,-38.7183 1066.5,-42.5516 1062.6667,-46.385 1058.8333,-46.385"/>
<text text-anchor="middle" x="986" y="-31.185" font-family="Arial" font-size="14.00" fill="#cfffac">constants/constants.js</text>
</g>
<!-- constants/response.js -->
<g id="node2" class="node">
<title>constants/response.js</title>
<path fill="none" stroke="#cfffac" d="M1057.3333,-464.385C1057.3333,-464.385 914.6667,-464.385 914.6667,-464.385 910.8333,-464.385 907,-460.5516 907,-456.7183 907,-456.7183 907,-449.0516 907,-449.0516 907,-445.2183 910.8333,-441.385 914.6667,-441.385 914.6667,-441.385 1057.3333,-441.385 1057.3333,-441.385 1061.1667,-441.385 1065,-445.2183 1065,-449.0516 1065,-449.0516 1065,-456.7183 1065,-456.7183 1065,-460.5516 1061.1667,-464.385 1057.3333,-464.385"/>
<text text-anchor="middle" x="986" y="-449.185" font-family="Arial" font-size="14.00" fill="#cfffac">constants/response.js</text>
</g>
<!-- controllers/accessToken.js -->
<g id="node3" class="node">
<title>controllers/accessToken.js</title>
<path fill="none" stroke="#c6c5fe" d="M393.3333,-304.385C393.3333,-304.385 220.6667,-304.385 220.6667,-304.385 216.8333,-304.385 213,-300.5516 213,-296.7183 213,-296.7183 213,-289.0516 213,-289.0516 213,-285.2183 216.8333,-281.385 220.6667,-281.385 220.6667,-281.385 393.3333,-281.385 393.3333,-281.385 397.1667,-281.385 401,-285.2183 401,-289.0516 401,-289.0516 401,-296.7183 401,-296.7183 401,-300.5516 397.1667,-304.385 393.3333,-304.385"/>
<text text-anchor="middle" x="307" y="-289.185" font-family="Arial" font-size="14.00" fill="#c6c5fe">controllers/accessToken.js</text>
</g>
<!-- controllers/accessToken.js&#45;&gt;constants/response.js -->
<g id="edge1" class="edge">
<title>controllers/accessToken.js&#45;&gt;constants/response.js</title>
<path fill="none" stroke="#757575" d="M401.2215,-281.9548C466.942,-276.9054 556.2615,-275.2113 633,-291.885 762.6902,-320.0639 901.8527,-400.2378 959.0826,-435.6782"/>
<polygon fill="#757575" stroke="#757575" points="957.5278,-438.8337 967.8631,-441.1645 961.2371,-432.8973 957.5278,-438.8337"/>
</g>
<!-- helpers/crypto.js -->
<g id="node4" class="node">
<title>helpers/crypto.js</title>
<path fill="none" stroke="#cfffac" d="M588.3333,-406.385C588.3333,-406.385 481.6667,-406.385 481.6667,-406.385 477.8333,-406.385 474,-402.5516 474,-398.7183 474,-398.7183 474,-391.0516 474,-391.0516 474,-387.2183 477.8333,-383.385 481.6667,-383.385 481.6667,-383.385 588.3333,-383.385 588.3333,-383.385 592.1667,-383.385 596,-387.2183 596,-391.0516 596,-391.0516 596,-398.7183 596,-398.7183 596,-402.5516 592.1667,-406.385 588.3333,-406.385"/>
<text text-anchor="middle" x="535" y="-391.185" font-family="Arial" font-size="14.00" fill="#cfffac">helpers/crypto.js</text>
</g>
<!-- controllers/accessToken.js&#45;&gt;helpers/crypto.js -->
<g id="edge2" class="edge">
<title>controllers/accessToken.js&#45;&gt;helpers/crypto.js</title>
<path fill="none" stroke="#757575" d="M344.7149,-304.5303C362.7477,-311.1615 384.0439,-320.6183 401,-332.885 420.6474,-347.0986 416.0854,-361.6119 437,-373.885 445.2979,-378.7543 454.583,-382.4998 464.0419,-385.3799"/>
<polygon fill="#757575" stroke="#757575" points="463.3591,-388.8215 473.9278,-388.0787 465.2027,-382.0686 463.3591,-388.8215"/>
</g>
<!-- helpers/format.js -->
<g id="node5" class="node">
<title>helpers/format.js</title>
<path fill="none" stroke="#cfffac" d="M588.8333,-324.385C588.8333,-324.385 481.1667,-324.385 481.1667,-324.385 477.3333,-324.385 473.5,-320.5516 473.5,-316.7183 473.5,-316.7183 473.5,-309.0516 473.5,-309.0516 473.5,-305.2183 477.3333,-301.385 481.1667,-301.385 481.1667,-301.385 588.8333,-301.385 588.8333,-301.385 592.6667,-301.385 596.5,-305.2183 596.5,-309.0516 596.5,-309.0516 596.5,-316.7183 596.5,-316.7183 596.5,-320.5516 592.6667,-324.385 588.8333,-324.385"/>
<text text-anchor="middle" x="535" y="-309.185" font-family="Arial" font-size="14.00" fill="#cfffac">helpers/format.js</text>
</g>
<!-- controllers/accessToken.js&#45;&gt;helpers/format.js -->
<g id="edge3" class="edge">
<title>controllers/accessToken.js&#45;&gt;helpers/format.js</title>
<path fill="none" stroke="#757575" d="M401.0527,-301.1352C421.8398,-302.9586 443.5403,-304.8622 463.2723,-306.593"/>
<polygon fill="#757575" stroke="#757575" points="463.1285,-310.0938 473.3962,-307.4811 463.7403,-303.1206 463.1285,-310.0938"/>
</g>
<!-- repositories/accessToken.js -->
<g id="node6" class="node">
<title>repositories/accessToken.js</title>
<path fill="none" stroke="#c6c5fe" d="M625.3333,-365.385C625.3333,-365.385 444.6667,-365.385 444.6667,-365.385 440.8333,-365.385 437,-361.5516 437,-357.7183 437,-357.7183 437,-350.0516 437,-350.0516 437,-346.2183 440.8333,-342.385 444.6667,-342.385 444.6667,-342.385 625.3333,-342.385 625.3333,-342.385 629.1667,-342.385 633,-346.2183 633,-350.0516 633,-350.0516 633,-357.7183 633,-357.7183 633,-361.5516 629.1667,-365.385 625.3333,-365.385"/>
<text text-anchor="middle" x="535" y="-350.185" font-family="Arial" font-size="14.00" fill="#c6c5fe">repositories/accessToken.js</text>
</g>
<!-- controllers/accessToken.js&#45;&gt;repositories/accessToken.js -->
<g id="edge4" class="edge">
<title>controllers/accessToken.js&#45;&gt;repositories/accessToken.js</title>
<path fill="none" stroke="#757575" d="M341.526,-304.4106C367.5885,-312.8902 404.3227,-324.3739 437,-332.885 446.661,-335.4012 456.9141,-337.8444 467.0086,-340.1209"/>
<polygon fill="#757575" stroke="#757575" points="466.5023,-343.5935 477.0225,-342.3384 468.0157,-336.7591 466.5023,-343.5935"/>
</g>
<!-- repositories/user.js -->
<g id="node7" class="node">
<title>repositories/user.js</title>
<path fill="none" stroke="#c6c5fe" d="M596.3333,-244.385C596.3333,-244.385 473.6667,-244.385 473.6667,-244.385 469.8333,-244.385 466,-240.5516 466,-236.7183 466,-236.7183 466,-229.0516 466,-229.0516 466,-225.2183 469.8333,-221.385 473.6667,-221.385 473.6667,-221.385 596.3333,-221.385 596.3333,-221.385 600.1667,-221.385 604,-225.2183 604,-229.0516 604,-229.0516 604,-236.7183 604,-236.7183 604,-240.5516 600.1667,-244.385 596.3333,-244.385"/>
<text text-anchor="middle" x="535" y="-229.185" font-family="Arial" font-size="14.00" fill="#c6c5fe">repositories/user.js</text>
</g>
<!-- controllers/accessToken.js&#45;&gt;repositories/user.js -->
<g id="edge5" class="edge">
<title>controllers/accessToken.js&#45;&gt;repositories/user.js</title>
<path fill="none" stroke="#757575" d="M350.9607,-281.3163C388.1801,-271.5218 441.6619,-257.4476 481.3888,-246.9932"/>
<polygon fill="#757575" stroke="#757575" points="482.3943,-250.3478 491.1743,-244.418 480.6128,-243.5783 482.3943,-250.3478"/>
</g>
<!-- helpers/jwt.js -->
<g id="node9" class="node">
<title>helpers/jwt.js</title>
<path fill="none" stroke="#c6c5fe" d="M809.8333,-484.385C809.8333,-484.385 725.1667,-484.385 725.1667,-484.385 721.3333,-484.385 717.5,-480.5516 717.5,-476.7183 717.5,-476.7183 717.5,-469.0516 717.5,-469.0516 717.5,-465.2183 721.3333,-461.385 725.1667,-461.385 725.1667,-461.385 809.8333,-461.385 809.8333,-461.385 813.6667,-461.385 817.5,-465.2183 817.5,-469.0516 817.5,-469.0516 817.5,-476.7183 817.5,-476.7183 817.5,-480.5516 813.6667,-484.385 809.8333,-484.385"/>
<text text-anchor="middle" x="767.5" y="-469.185" font-family="Arial" font-size="14.00" fill="#c6c5fe">helpers/jwt.js</text>
</g>
<!-- repositories/accessToken.js&#45;&gt;helpers/jwt.js -->
<g id="edge37" class="edge">
<title>repositories/accessToken.js&#45;&gt;helpers/jwt.js</title>
<path fill="none" stroke="#757575" d="M609.1291,-365.4131C617.3469,-367.7435 625.4617,-370.5374 633,-373.885 678.4725,-394.0783 723.4173,-431.683 748.1099,-454.2834"/>
<polygon fill="#757575" stroke="#757575" points="745.9737,-457.0765 755.679,-461.3259 750.7419,-451.9516 745.9737,-457.0765"/>
</g>
<!-- models/accessToken.js -->
<g id="node23" class="node">
<title>models/accessToken.js</title>
<path fill="none" stroke="#cfffac" d="M1062.3333,-209.385C1062.3333,-209.385 909.6667,-209.385 909.6667,-209.385 905.8333,-209.385 902,-205.5516 902,-201.7183 902,-201.7183 902,-194.0516 902,-194.0516 902,-190.2183 905.8333,-186.385 909.6667,-186.385 909.6667,-186.385 1062.3333,-186.385 1062.3333,-186.385 1066.1667,-186.385 1070,-190.2183 1070,-194.0516 1070,-194.0516 1070,-201.7183 1070,-201.7183 1070,-205.5516 1066.1667,-209.385 1062.3333,-209.385"/>
<text text-anchor="middle" x="986" y="-194.185" font-family="Arial" font-size="14.00" fill="#cfffac">models/accessToken.js</text>
</g>
<!-- repositories/accessToken.js&#45;&gt;models/accessToken.js -->
<g id="edge38" class="edge">
<title>repositories/accessToken.js&#45;&gt;models/accessToken.js</title>
<path fill="none" stroke="#757575" d="M596.01,-342.3358C608.3427,-339.575 621.1554,-336.3961 633,-332.885 751.8293,-297.6597 887.4888,-240.9168 950.4448,-213.5891"/>
<polygon fill="#757575" stroke="#757575" points="952.1421,-216.6674 959.911,-209.4636 949.3454,-210.2504 952.1421,-216.6674"/>
</g>
<!-- models/user.js -->
<g id="node25" class="node">
<title>models/user.js</title>
<path fill="none" stroke="#cfffac" d="M1033.3333,-168.385C1033.3333,-168.385 938.6667,-168.385 938.6667,-168.385 934.8333,-168.385 931,-164.5516 931,-160.7183 931,-160.7183 931,-153.0516 931,-153.0516 931,-149.2183 934.8333,-145.385 938.6667,-145.385 938.6667,-145.385 1033.3333,-145.385 1033.3333,-145.385 1037.1667,-145.385 1041,-149.2183 1041,-153.0516 1041,-153.0516 1041,-160.7183 1041,-160.7183 1041,-164.5516 1037.1667,-168.385 1033.3333,-168.385"/>
<text text-anchor="middle" x="986" y="-153.185" font-family="Arial" font-size="14.00" fill="#cfffac">models/user.js</text>
</g>
<!-- repositories/user.js&#45;&gt;models/user.js -->
<g id="edge39" class="edge">
<title>repositories/user.js&#45;&gt;models/user.js</title>
<path fill="none" stroke="#757575" d="M603.4972,-221.3422C689.5711,-206.8375 836.2312,-182.1232 920.7484,-167.8808"/>
<polygon fill="#757575" stroke="#757575" points="921.4598,-171.3103 930.7391,-166.1972 920.2965,-164.4077 921.4598,-171.3103"/>
</g>
<!-- controllers/authorizer.js -->
<g id="node8" class="node">
<title>controllers/authorizer.js</title>
<path fill="none" stroke="#c6c5fe" d="M610.3333,-562.385C610.3333,-562.385 459.6667,-562.385 459.6667,-562.385 455.8333,-562.385 452,-558.5516 452,-554.7183 452,-554.7183 452,-547.0516 452,-547.0516 452,-543.2183 455.8333,-539.385 459.6667,-539.385 459.6667,-539.385 610.3333,-539.385 610.3333,-539.385 614.1667,-539.385 618,-543.2183 618,-547.0516 618,-547.0516 618,-554.7183 618,-554.7183 618,-558.5516 614.1667,-562.385 610.3333,-562.385"/>
<text text-anchor="middle" x="535" y="-547.185" font-family="Arial" font-size="14.00" fill="#c6c5fe">controllers/authorizer.js</text>
</g>
<!-- controllers/authorizer.js&#45;&gt;constants/response.js -->
<g id="edge6" class="edge">
<title>controllers/authorizer.js&#45;&gt;constants/response.js</title>
<path fill="none" stroke="#757575" d="M618.2095,-558.7373C686.5587,-562.352 784.9577,-560.9695 866,-533.885 905.4911,-520.687 944.121,-490.6524 966.4681,-471.0974"/>
<polygon fill="#757575" stroke="#757575" points="968.8159,-473.6932 973.936,-464.4177 964.1491,-468.4758 968.8159,-473.6932"/>
</g>
<!-- controllers/authorizer.js&#45;&gt;helpers/jwt.js -->
<g id="edge7" class="edge">
<title>controllers/authorizer.js&#45;&gt;helpers/jwt.js</title>
<path fill="none" stroke="#757575" d="M557.6822,-539.3295C583.894,-526.3895 628.6125,-505.5735 669,-492.885 681.2163,-489.0469 694.5227,-485.7659 707.2903,-483.0379"/>
<polygon fill="#757575" stroke="#757575" points="708.2899,-486.4058 717.3831,-480.9685 706.8838,-479.5485 708.2899,-486.4058"/>
</g>
<!-- helpers/jwt.js&#45;&gt;constants/response.js -->
<g id="edge29" class="edge">
<title>helpers/jwt.js&#45;&gt;constants/response.js</title>
<path fill="none" stroke="#757575" d="M817.6283,-468.2965C841.0897,-466.1491 869.7566,-463.5251 896.7392,-461.0553"/>
<polygon fill="#757575" stroke="#757575" points="897.3445,-464.5146 906.9838,-460.1176 896.7063,-457.5437 897.3445,-464.5146"/>
</g>
<!-- controllers/idea.js -->
<g id="node10" class="node">
<title>controllers/idea.js</title>
<path fill="none" stroke="#cfffac" d="M145.3333,-426.385C145.3333,-426.385 31.6667,-426.385 31.6667,-426.385 27.8333,-426.385 24,-422.5516 24,-418.7183 24,-418.7183 24,-411.0516 24,-411.0516 24,-407.2183 27.8333,-403.385 31.6667,-403.385 31.6667,-403.385 145.3333,-403.385 145.3333,-403.385 149.1667,-403.385 153,-407.2183 153,-411.0516 153,-411.0516 153,-418.7183 153,-418.7183 153,-422.5516 149.1667,-426.385 145.3333,-426.385"/>
<text text-anchor="middle" x="88.5" y="-411.185" font-family="Arial" font-size="14.00" fill="#cfffac">controllers/idea.js</text>
</g>
<!-- controllers/user.js -->
<g id="node11" class="node">
<title>controllers/user.js</title>
<path fill="none" stroke="#c6c5fe" d="M364.3333,-365.385C364.3333,-365.385 249.6667,-365.385 249.6667,-365.385 245.8333,-365.385 242,-361.5516 242,-357.7183 242,-357.7183 242,-350.0516 242,-350.0516 242,-346.2183 245.8333,-342.385 249.6667,-342.385 249.6667,-342.385 364.3333,-342.385 364.3333,-342.385 368.1667,-342.385 372,-346.2183 372,-350.0516 372,-350.0516 372,-357.7183 372,-357.7183 372,-361.5516 368.1667,-365.385 364.3333,-365.385"/>
<text text-anchor="middle" x="307" y="-350.185" font-family="Arial" font-size="14.00" fill="#c6c5fe">controllers/user.js</text>
</g>
<!-- controllers/user.js&#45;&gt;constants/response.js -->
<g id="edge8" class="edge">
<title>controllers/user.js&#45;&gt;constants/response.js</title>
<path fill="none" stroke="#757575" d="M325.9698,-365.547C350.5613,-380.0022 395.253,-404.0508 437,-414.885 521.327,-436.7695 764.1284,-446.7584 896.8139,-450.6939"/>
<polygon fill="#757575" stroke="#757575" points="896.8575,-454.1966 906.9552,-450.9893 897.0613,-447.1996 896.8575,-454.1966"/>
</g>
<!-- controllers/user.js&#45;&gt;helpers/crypto.js -->
<g id="edge9" class="edge">
<title>controllers/user.js&#45;&gt;helpers/crypto.js</title>
<path fill="none" stroke="#757575" d="M371.1175,-365.4148C399.9913,-370.6071 434.1831,-376.7556 463.8458,-382.0897"/>
<polygon fill="#757575" stroke="#757575" points="463.2559,-385.5397 473.7175,-383.8648 464.4948,-378.6502 463.2559,-385.5397"/>
</g>
<!-- controllers/user.js&#45;&gt;helpers/format.js -->
<g id="edge10" class="edge">
<title>controllers/user.js&#45;&gt;helpers/format.js</title>
<path fill="none" stroke="#757575" d="M371.1175,-342.3551C399.8729,-337.1841 433.9029,-331.0647 463.4809,-325.7458"/>
<polygon fill="#757575" stroke="#757575" points="464.1043,-329.19 473.3269,-323.9753 462.8653,-322.3005 464.1043,-329.19"/>
</g>
<!-- controllers/user.js&#45;&gt;repositories/accessToken.js -->
<g id="edge12" class="edge">
<title>controllers/user.js&#45;&gt;repositories/accessToken.js</title>
<path fill="none" stroke="#757575" d="M372.0305,-353.885C389.1008,-353.885 407.9797,-353.885 426.6557,-353.885"/>
<polygon fill="#757575" stroke="#757575" points="426.694,-357.3851 436.6939,-353.885 426.6939,-350.3851 426.694,-357.3851"/>
</g>
<!-- controllers/user.js&#45;&gt;repositories/user.js -->
<g id="edge13" class="edge">
<title>controllers/user.js&#45;&gt;repositories/user.js</title>
<path fill="none" stroke="#757575" d="M336.2404,-342.2559C355.0208,-334.5131 379.7809,-323.7908 401,-312.885 406.3594,-310.1304 468.9959,-272.5619 506.7047,-249.9019"/>
<polygon fill="#757575" stroke="#757575" points="508.9368,-252.6439 515.7045,-244.4924 505.3305,-246.6443 508.9368,-252.6439"/>
</g>
<!-- controllers/user.js&#45;&gt;helpers/jwt.js -->
<g id="edge11" class="edge">
<title>controllers/user.js&#45;&gt;helpers/jwt.js</title>
<path fill="none" stroke="#757575" d="M318.193,-365.5902C339.1824,-386.6603 386.8784,-430.4877 437,-448.885 526.768,-481.8345 639.2955,-482.1144 707.1839,-478.258"/>
<polygon fill="#757575" stroke="#757575" points="707.5115,-481.7445 717.277,-477.6352 707.0804,-474.7578 707.5115,-481.7445"/>
</g>
<!-- services/gravatar.js -->
<g id="node12" class="node">
<title>services/gravatar.js</title>
<path fill="none" stroke="#c6c5fe" d="M598.3333,-84.385C598.3333,-84.385 471.6667,-84.385 471.6667,-84.385 467.8333,-84.385 464,-80.5516 464,-76.7183 464,-76.7183 464,-69.0516 464,-69.0516 464,-65.2183 467.8333,-61.385 471.6667,-61.385 471.6667,-61.385 598.3333,-61.385 598.3333,-61.385 602.1667,-61.385 606,-65.2183 606,-69.0516 606,-69.0516 606,-76.7183 606,-76.7183 606,-80.5516 602.1667,-84.385 598.3333,-84.385"/>
<text text-anchor="middle" x="535" y="-69.185" font-family="Arial" font-size="14.00" fill="#c6c5fe">services/gravatar.js</text>
</g>
<!-- controllers/user.js&#45;&gt;services/gravatar.js -->
<g id="edge14" class="edge">
<title>controllers/user.js&#45;&gt;services/gravatar.js</title>
<path fill="none" stroke="#757575" d="M356.7364,-342.2141C373.0478,-336.0419 389.8337,-326.7523 401,-312.885 452.4408,-249.0011 389.8383,-198.99 437,-131.885 450.7025,-112.388 473.0911,-98.2059 493.0123,-88.6397"/>
<polygon fill="#757575" stroke="#757575" points="494.5936,-91.7656 502.2471,-84.4393 491.6954,-85.3937 494.5936,-91.7656"/>
</g>
<!-- validations/user.js -->
<g id="node13" class="node">
<title>validations/user.js</title>
<path fill="none" stroke="#c6c5fe" d="M825.8333,-525.385C825.8333,-525.385 709.1667,-525.385 709.1667,-525.385 705.3333,-525.385 701.5,-521.5516 701.5,-517.7183 701.5,-517.7183 701.5,-510.0516 701.5,-510.0516 701.5,-506.2183 705.3333,-502.385 709.1667,-502.385 709.1667,-502.385 825.8333,-502.385 825.8333,-502.385 829.6667,-502.385 833.5,-506.2183 833.5,-510.0516 833.5,-510.0516 833.5,-517.7183 833.5,-517.7183 833.5,-521.5516 829.6667,-525.385 825.8333,-525.385"/>
<text text-anchor="middle" x="767.5" y="-510.185" font-family="Arial" font-size="14.00" fill="#c6c5fe">validations/user.js</text>
</g>
<!-- controllers/user.js&#45;&gt;validations/user.js -->
<g id="edge15" class="edge">
<title>controllers/user.js&#45;&gt;validations/user.js</title>
<path fill="none" stroke="#757575" d="M314.7907,-365.4189C332.8168,-391.0297 380.2286,-452.4591 437,-478.885 518.0192,-516.5975 621.979,-521.4884 691.4647,-519.4683"/>
<polygon fill="#757575" stroke="#757575" points="691.5865,-522.9663 701.4597,-519.1232 691.3449,-515.9704 691.5865,-522.9663"/>
</g>
<!-- services/gravatar.js&#45;&gt;constants/constants.js -->
<g id="edge40" class="edge">
<title>services/gravatar.js&#45;&gt;constants/constants.js</title>
<path fill="none" stroke="#757575" d="M606.1511,-61.7038C626.417,-58.8162 648.5439,-55.9448 669,-53.885 744.9963,-46.2324 831.5755,-41.2981 895.0275,-38.3811"/>
<polygon fill="#757575" stroke="#757575" points="895.5718,-41.8602 905.4038,-37.9126 895.256,-34.8673 895.5718,-41.8602"/>
</g>
<!-- helpers/logging.js -->
<g id="node15" class="node">
<title>helpers/logging.js</title>
<path fill="none" stroke="#c6c5fe" d="M824.8333,-86.385C824.8333,-86.385 710.1667,-86.385 710.1667,-86.385 706.3333,-86.385 702.5,-82.5516 702.5,-78.7183 702.5,-78.7183 702.5,-71.0516 702.5,-71.0516 702.5,-67.2183 706.3333,-63.385 710.1667,-63.385 710.1667,-63.385 824.8333,-63.385 824.8333,-63.385 828.6667,-63.385 832.5,-67.2183 832.5,-71.0516 832.5,-71.0516 832.5,-78.7183 832.5,-78.7183 832.5,-82.5516 828.6667,-86.385 824.8333,-86.385"/>
<text text-anchor="middle" x="767.5" y="-71.185" font-family="Arial" font-size="14.00" fill="#c6c5fe">helpers/logging.js</text>
</g>
<!-- services/gravatar.js&#45;&gt;helpers/logging.js -->
<g id="edge41" class="edge">
<title>services/gravatar.js&#45;&gt;helpers/logging.js</title>
<path fill="none" stroke="#757575" d="M606.021,-73.4959C633.3764,-73.7312 664.6905,-74.0006 692.4169,-74.2391"/>
<polygon fill="#757575" stroke="#757575" points="692.4259,-77.7392 702.4556,-74.3254 692.4861,-70.7394 692.4259,-77.7392"/>
</g>
<!-- validations/user.js&#45;&gt;constants/response.js -->
<g id="edge42" class="edge">
<title>validations/user.js&#45;&gt;constants/response.js</title>
<path fill="none" stroke="#757575" d="M826.8763,-502.3472C839.8362,-499.5172 853.4315,-496.308 866,-492.885 892.6048,-485.6391 921.9797,-475.8784 945.0071,-467.8128"/>
<polygon fill="#757575" stroke="#757575" points="946.1983,-471.1041 954.4608,-464.4723 943.866,-464.504 946.1983,-471.1041"/>
</g>
<!-- database/database.js -->
<g id="node14" class="node">
<title>database/database.js</title>
<path fill="none" stroke="#c6c5fe" d="M605.3333,-164.385C605.3333,-164.385 464.6667,-164.385 464.6667,-164.385 460.8333,-164.385 457,-160.5516 457,-156.7183 457,-156.7183 457,-149.0516 457,-149.0516 457,-145.2183 460.8333,-141.385 464.6667,-141.385 464.6667,-141.385 605.3333,-141.385 605.3333,-141.385 609.1667,-141.385 613,-145.2183 613,-149.0516 613,-149.0516 613,-156.7183 613,-156.7183 613,-160.5516 609.1667,-164.385 605.3333,-164.385"/>
<text text-anchor="middle" x="535" y="-149.185" font-family="Arial" font-size="14.00" fill="#c6c5fe">database/database.js</text>
</g>
<!-- database/database.js&#45;&gt;helpers/logging.js -->
<g id="edge16" class="edge">
<title>database/database.js&#45;&gt;helpers/logging.js</title>
<path fill="none" stroke="#757575" d="M596.2852,-141.3444C608.8476,-137.6935 621.6803,-132.9662 633,-126.885 651.8582,-116.7538 649.8512,-104.4554 669,-94.885 676.4044,-91.1843 684.4469,-88.1684 692.6367,-85.7105"/>
<polygon fill="#757575" stroke="#757575" points="693.5649,-89.0853 702.2892,-83.0739 691.7203,-82.3326 693.5649,-89.0853"/>
</g>
<!-- models/modelAssociation.js -->
<g id="node16" class="node">
<title>models/modelAssociation.js</title>
<path fill="none" stroke="#c6c5fe" d="M858.3333,-127.385C858.3333,-127.385 676.6667,-127.385 676.6667,-127.385 672.8333,-127.385 669,-123.5516 669,-119.7183 669,-119.7183 669,-112.0516 669,-112.0516 669,-108.2183 672.8333,-104.385 676.6667,-104.385 676.6667,-104.385 858.3333,-104.385 858.3333,-104.385 862.1667,-104.385 866,-108.2183 866,-112.0516 866,-112.0516 866,-119.7183 866,-119.7183 866,-123.5516 862.1667,-127.385 858.3333,-127.385"/>
<text text-anchor="middle" x="767.5" y="-112.185" font-family="Arial" font-size="14.00" fill="#c6c5fe">models/modelAssociation.js</text>
</g>
<!-- database/database.js&#45;&gt;models/modelAssociation.js -->
<g id="edge17" class="edge">
<title>database/database.js&#45;&gt;models/modelAssociation.js</title>
<path fill="none" stroke="#757575" d="M607.29,-141.3807C631.8853,-137.4666 659.5596,-133.0626 684.8995,-129.03"/>
<polygon fill="#757575" stroke="#757575" points="685.529,-132.4739 694.8546,-127.4457 684.4288,-125.5609 685.529,-132.4739"/>
</g>
<!-- models/modelInit.js -->
<g id="node17" class="node">
<title>models/modelInit.js</title>
<path fill="none" stroke="#c6c5fe" d="M829.8333,-168.385C829.8333,-168.385 705.1667,-168.385 705.1667,-168.385 701.3333,-168.385 697.5,-164.5516 697.5,-160.7183 697.5,-160.7183 697.5,-153.0516 697.5,-153.0516 697.5,-149.2183 701.3333,-145.385 705.1667,-145.385 705.1667,-145.385 829.8333,-145.385 829.8333,-145.385 833.6667,-145.385 837.5,-149.2183 837.5,-153.0516 837.5,-153.0516 837.5,-160.7183 837.5,-160.7183 837.5,-164.5516 833.6667,-168.385 829.8333,-168.385"/>
<text text-anchor="middle" x="767.5" y="-153.185" font-family="Arial" font-size="14.00" fill="#c6c5fe">models/modelInit.js</text>
</g>
<!-- database/database.js&#45;&gt;models/modelInit.js -->
<g id="edge18" class="edge">
<title>database/database.js&#45;&gt;models/modelInit.js</title>
<path fill="none" stroke="#757575" d="M613.0659,-154.228C636.9602,-154.6391 663.2756,-155.0918 687.3088,-155.5053"/>
<polygon fill="#757575" stroke="#757575" points="687.3966,-159.0073 697.4554,-155.6799 687.5171,-152.0083 687.3966,-159.0073"/>
</g>
<!-- helpers/logging.js&#45;&gt;constants/constants.js -->
<g id="edge30" class="edge">
<title>helpers/logging.js&#45;&gt;constants/constants.js</title>
<path fill="none" stroke="#757575" d="M830.4061,-63.369C856.2298,-58.6415 886.2942,-53.1377 913.073,-48.2354"/>
<polygon fill="#757575" stroke="#757575" points="913.9534,-51.6325 923.1597,-46.3889 912.6929,-44.7469 913.9534,-51.6325"/>
</g>
<!-- models/modelAssociation.js&#45;&gt;models/accessToken.js -->
<g id="edge31" class="edge">
<title>models/modelAssociation.js&#45;&gt;models/accessToken.js</title>
<path fill="none" stroke="#757575" d="M847.6529,-127.4601C854.059,-129.7812 860.2631,-132.5599 866,-135.885 886.9804,-148.0452 881.2963,-164.2594 902,-176.885 905.3689,-178.9394 908.9302,-180.7933 912.6088,-182.4663"/>
<polygon fill="#757575" stroke="#757575" points="911.3703,-185.7409 921.9523,-186.263 914.0056,-179.2558 911.3703,-185.7409"/>
</g>
<!-- models/idea.js -->
<g id="node24" class="node">
<title>models/idea.js</title>
<path fill="none" stroke="#cfffac" d="M1033.3333,-127.385C1033.3333,-127.385 938.6667,-127.385 938.6667,-127.385 934.8333,-127.385 931,-123.5516 931,-119.7183 931,-119.7183 931,-112.0516 931,-112.0516 931,-108.2183 934.8333,-104.385 938.6667,-104.385 938.6667,-104.385 1033.3333,-104.385 1033.3333,-104.385 1037.1667,-104.385 1041,-108.2183 1041,-112.0516 1041,-112.0516 1041,-119.7183 1041,-119.7183 1041,-123.5516 1037.1667,-127.385 1033.3333,-127.385"/>
<text text-anchor="middle" x="986" y="-112.185" font-family="Arial" font-size="14.00" fill="#cfffac">models/idea.js</text>
</g>
<!-- models/modelAssociation.js&#45;&gt;models/idea.js -->
<g id="edge32" class="edge">
<title>models/modelAssociation.js&#45;&gt;models/idea.js</title>
<path fill="none" stroke="#757575" d="M866.2024,-115.885C884.559,-115.885 903.3165,-115.885 920.3759,-115.885"/>
<polygon fill="#757575" stroke="#757575" points="920.7596,-119.385 930.7596,-115.885 920.7595,-112.385 920.7596,-119.385"/>
</g>
<!-- models/modelAssociation.js&#45;&gt;models/user.js -->
<g id="edge33" class="edge">
<title>models/modelAssociation.js&#45;&gt;models/user.js</title>
<path fill="none" stroke="#757575" d="M828.9459,-127.4148C857.6254,-132.7964 891.7798,-139.2052 920.9019,-144.6697"/>
<polygon fill="#757575" stroke="#757575" points="920.5017,-148.1557 930.9756,-146.56 921.7927,-141.2757 920.5017,-148.1557"/>
</g>
<!-- models/modelInit.js&#45;&gt;models/accessToken.js -->
<g id="edge34" class="edge">
<title>models/modelInit.js&#45;&gt;models/accessToken.js</title>
<path fill="none" stroke="#757575" d="M828.9459,-168.4148C855.5891,-173.4143 886.9572,-179.3003 914.6262,-184.4922"/>
<polygon fill="#757575" stroke="#757575" points="914.1631,-187.9663 924.6371,-186.3706 915.4541,-181.0863 914.1631,-187.9663"/>
</g>
<!-- models/modelInit.js&#45;&gt;models/idea.js -->
<g id="edge35" class="edge">
<title>models/modelInit.js&#45;&gt;models/idea.js</title>
<path fill="none" stroke="#757575" d="M828.9459,-145.3551C857.6254,-139.9735 891.7798,-133.5647 920.9019,-128.1002"/>
<polygon fill="#757575" stroke="#757575" points="921.7927,-131.4942 930.9756,-126.2099 920.5017,-124.6142 921.7927,-131.4942"/>
</g>
<!-- models/modelInit.js&#45;&gt;models/user.js -->
<g id="edge36" class="edge">
<title>models/modelInit.js&#45;&gt;models/user.js</title>
<path fill="none" stroke="#757575" d="M837.5364,-156.885C864.204,-156.885 894.4659,-156.885 920.6793,-156.885"/>
<polygon fill="#757575" stroke="#757575" points="920.8864,-160.3851 930.8864,-156.885 920.8863,-153.3851 920.8864,-160.3851"/>
</g>
<!-- handlers/accessToken.js -->
<g id="node18" class="node">
<title>handlers/accessToken.js</title>
<path fill="none" stroke="#c6c5fe" d="M169.3333,-244.385C169.3333,-244.385 7.6667,-244.385 7.6667,-244.385 3.8333,-244.385 0,-240.5516 0,-236.7183 0,-236.7183 0,-229.0516 0,-229.0516 0,-225.2183 3.8333,-221.385 7.6667,-221.385 7.6667,-221.385 169.3333,-221.385 169.3333,-221.385 173.1667,-221.385 177,-225.2183 177,-229.0516 177,-229.0516 177,-236.7183 177,-236.7183 177,-240.5516 173.1667,-244.385 169.3333,-244.385"/>
<text text-anchor="middle" x="88.5" y="-229.185" font-family="Arial" font-size="14.00" fill="#c6c5fe">handlers/accessToken.js</text>
</g>
<!-- handlers/accessToken.js&#45;&gt;controllers/accessToken.js -->
<g id="edge19" class="edge">
<title>handlers/accessToken.js&#45;&gt;controllers/accessToken.js</title>
<path fill="none" stroke="#757575" d="M130.629,-244.4536C166.1465,-254.2066 217.1169,-268.2031 255.1379,-278.6437"/>
<polygon fill="#757575" stroke="#757575" points="254.4305,-282.0789 265.0003,-281.3519 256.2841,-275.3288 254.4305,-282.0789"/>
</g>
<!-- helpers/context.js -->
<g id="node19" class="node">
<title>helpers/context.js</title>
<path fill="none" stroke="#c6c5fe" d="M364.3333,-204.385C364.3333,-204.385 249.6667,-204.385 249.6667,-204.385 245.8333,-204.385 242,-200.5516 242,-196.7183 242,-196.7183 242,-189.0516 242,-189.0516 242,-185.2183 245.8333,-181.385 249.6667,-181.385 249.6667,-181.385 364.3333,-181.385 364.3333,-181.385 368.1667,-181.385 372,-185.2183 372,-189.0516 372,-189.0516 372,-196.7183 372,-196.7183 372,-200.5516 368.1667,-204.385 364.3333,-204.385"/>
<text text-anchor="middle" x="307" y="-189.185" font-family="Arial" font-size="14.00" fill="#c6c5fe">helpers/context.js</text>
</g>
<!-- handlers/accessToken.js&#45;&gt;helpers/context.js -->
<g id="edge20" class="edge">
<title>handlers/accessToken.js&#45;&gt;helpers/context.js</title>
<path fill="none" stroke="#757575" d="M151.4061,-221.369C177.2298,-216.6415 207.2942,-211.1377 234.073,-206.2354"/>
<polygon fill="#757575" stroke="#757575" points="234.9534,-209.6325 244.1597,-204.3889 233.6929,-202.7469 234.9534,-209.6325"/>
</g>
<!-- helpers/context.js&#45;&gt;constants/constants.js -->
<g id="edge25" class="edge">
<title>helpers/context.js&#45;&gt;constants/constants.js</title>
<path fill="none" stroke="#757575" d="M313.5733,-181.0168C330.0241,-152.6536 376.0625,-81.1268 437,-51.885 598.5738,25.6489 818.7975,-1.4951 924.4778,-21.4092"/>
<polygon fill="#757575" stroke="#757575" points="923.8599,-24.8545 934.3415,-23.3101 925.1845,-17.9809 923.8599,-24.8545"/>
</g>
<!-- helpers/context.js&#45;&gt;constants/response.js -->
<g id="edge26" class="edge">
<title>helpers/context.js&#45;&gt;constants/response.js</title>
<path fill="none" stroke="#757575" d="M372.2363,-187.9558C484.385,-182.9194 716.1026,-187.951 866,-297.885 916.7345,-335.0933 956.7745,-399.3969 975.1071,-432.256"/>
<polygon fill="#757575" stroke="#757575" points="972.2238,-434.279 980.0874,-441.3793 978.368,-430.9249 972.2238,-434.279"/>
</g>
<!-- helpers/context.js&#45;&gt;database/database.js -->
<g id="edge27" class="edge">
<title>helpers/context.js&#45;&gt;database/database.js</title>
<path fill="none" stroke="#757575" d="M372.0305,-181.4761C399.1097,-176.7253 430.7403,-171.1761 458.8923,-166.2372"/>
<polygon fill="#757575" stroke="#757575" points="459.8471,-169.6232 469.0918,-164.4478 458.6374,-162.7285 459.8471,-169.6232"/>
</g>
<!-- helpers/context.js&#45;&gt;helpers/logging.js -->
<g id="edge28" class="edge">
<title>helpers/context.js&#45;&gt;helpers/logging.js</title>
<path fill="none" stroke="#757575" d="M327.4682,-181.1635C352.5095,-167.3291 396.571,-144.6022 437,-131.885 483.3872,-117.2935 609.9426,-97.477 692.3029,-85.4657"/>
<polygon fill="#757575" stroke="#757575" points="692.9753,-88.9049 702.3687,-84.0045 691.9696,-81.9775 692.9753,-88.9049"/>
</g>
<!-- handlers/authorizer.js -->
<g id="node20" class="node">
<title>handlers/authorizer.js</title>
<path fill="none" stroke="#c6c5fe" d="M158.3333,-385.385C158.3333,-385.385 18.6667,-385.385 18.6667,-385.385 14.8333,-385.385 11,-381.5516 11,-377.7183 11,-377.7183 11,-370.0516 11,-370.0516 11,-366.2183 14.8333,-362.385 18.6667,-362.385 18.6667,-362.385 158.3333,-362.385 158.3333,-362.385 162.1667,-362.385 166,-366.2183 166,-370.0516 166,-370.0516 166,-377.7183 166,-377.7183 166,-381.5516 162.1667,-385.385 158.3333,-385.385"/>
<text text-anchor="middle" x="88.5" y="-370.185" font-family="Arial" font-size="14.00" fill="#c6c5fe">handlers/authorizer.js</text>
</g>
<!-- handlers/authorizer.js&#45;&gt;controllers/authorizer.js -->
<g id="edge21" class="edge">
<title>handlers/authorizer.js&#45;&gt;controllers/authorizer.js</title>
<path fill="none" stroke="#757575" d="M147.5359,-385.4069C157.4715,-387.8628 167.6031,-390.6943 177,-393.885 297.512,-434.8043 319.6144,-464.7102 437,-513.885 455.0881,-521.4624 475.3265,-529.2213 492.6942,-535.6642"/>
<polygon fill="#757575" stroke="#757575" points="491.9568,-539.1225 502.5502,-539.2944 494.3762,-532.5538 491.9568,-539.1225"/>
</g>
<!-- handlers/authorizer.js&#45;&gt;helpers/context.js -->
<g id="edge22" class="edge">
<title>handlers/authorizer.js&#45;&gt;helpers/context.js</title>
<path fill="none" stroke="#757575" d="M125.8894,-362.3385C142.9021,-355.7219 162.4382,-346.0678 177,-332.885 200.3375,-311.7574 192.6592,-295.9112 213,-271.885 233.3685,-247.826 261.5702,-225.2022 281.7595,-210.3832"/>
<polygon fill="#757575" stroke="#757575" points="283.8129,-213.2177 289.8752,-204.5287 279.7175,-207.5406 283.8129,-213.2177"/>
</g>
<!-- handlers/idea.js -->
<g id="node21" class="node">
<title>handlers/idea.js</title>
<path fill="none" stroke="#cfffac" d="M140.3333,-467.385C140.3333,-467.385 36.6667,-467.385 36.6667,-467.385 32.8333,-467.385 29,-463.5516 29,-459.7183 29,-459.7183 29,-452.0516 29,-452.0516 29,-448.2183 32.8333,-444.385 36.6667,-444.385 36.6667,-444.385 140.3333,-444.385 140.3333,-444.385 144.1667,-444.385 148,-448.2183 148,-452.0516 148,-452.0516 148,-459.7183 148,-459.7183 148,-463.5516 144.1667,-467.385 140.3333,-467.385"/>
<text text-anchor="middle" x="88.5" y="-452.185" font-family="Arial" font-size="14.00" fill="#cfffac">handlers/idea.js</text>
</g>
<!-- handlers/user.js -->
<g id="node22" class="node">
<title>handlers/user.js</title>
<path fill="none" stroke="#c6c5fe" d="M140.3333,-324.385C140.3333,-324.385 36.6667,-324.385 36.6667,-324.385 32.8333,-324.385 29,-320.5516 29,-316.7183 29,-316.7183 29,-309.0516 29,-309.0516 29,-305.2183 32.8333,-301.385 36.6667,-301.385 36.6667,-301.385 140.3333,-301.385 140.3333,-301.385 144.1667,-301.385 148,-305.2183 148,-309.0516 148,-309.0516 148,-316.7183 148,-316.7183 148,-320.5516 144.1667,-324.385 140.3333,-324.385"/>
<text text-anchor="middle" x="88.5" y="-309.185" font-family="Arial" font-size="14.00" fill="#c6c5fe">handlers/user.js</text>
</g>
<!-- handlers/user.js&#45;&gt;controllers/user.js -->
<g id="edge23" class="edge">
<title>handlers/user.js&#45;&gt;controllers/user.js</title>
<path fill="none" stroke="#757575" d="M148.2061,-324.0884C175.102,-329.1352 207.0804,-335.1357 235.2667,-340.4247"/>
<polygon fill="#757575" stroke="#757575" points="234.9891,-343.9336 245.4631,-342.338 236.2802,-337.0537 234.9891,-343.9336"/>
</g>
<!-- handlers/user.js&#45;&gt;helpers/context.js -->
<g id="edge24" class="edge">
<title>handlers/user.js&#45;&gt;helpers/context.js</title>
<path fill="none" stroke="#757575" d="M109.4507,-301.3788C148.3419,-280.0199 231.8227,-234.1723 276.8068,-209.467"/>
<polygon fill="#757575" stroke="#757575" points="278.7114,-212.4142 285.7917,-204.5325 275.3417,-206.2786 278.7114,-212.4142"/>
</g>
<!-- repositories/idea.js -->
<g id="node26" class="node">
<title>repositories/idea.js</title>
<path fill="none" stroke="#cfffac" d="M149.3333,-508.385C149.3333,-508.385 27.6667,-508.385 27.6667,-508.385 23.8333,-508.385 20,-504.5516 20,-500.7183 20,-500.7183 20,-493.0516 20,-493.0516 20,-489.2183 23.8333,-485.385 27.6667,-485.385 27.6667,-485.385 149.3333,-485.385 149.3333,-485.385 153.1667,-485.385 157,-489.2183 157,-493.0516 157,-493.0516 157,-500.7183 157,-500.7183 157,-504.5516 153.1667,-508.385 149.3333,-508.385"/>
<text text-anchor="middle" x="88.5" y="-493.185" font-family="Arial" font-size="14.00" fill="#cfffac">repositories/idea.js</text>
</g>
<!-- validations/idea.js -->
<g id="node27" class="node">
<title>validations/idea.js</title>
<path fill="none" stroke="#cfffac" d="M146.3333,-549.385C146.3333,-549.385 30.6667,-549.385 30.6667,-549.385 26.8333,-549.385 23,-545.5516 23,-541.7183 23,-541.7183 23,-534.0516 23,-534.0516 23,-530.2183 26.8333,-526.385 30.6667,-526.385 30.6667,-526.385 146.3333,-526.385 146.3333,-526.385 150.1667,-526.385 154,-530.2183 154,-534.0516 154,-534.0516 154,-541.7183 154,-541.7183 154,-545.5516 150.1667,-549.385 146.3333,-549.385"/>
<text text-anchor="middle" x="88.5" y="-534.185" font-family="Arial" font-size="14.00" fill="#cfffac">validations/idea.js</text>
</g>
</g>
</svg>
