<?xml version="1.0" encoding="UTF-8" standalone="no"?>
<!DOCTYPE svg PUBLIC "-//W3C//DTD SVG 1.1//EN"
 "http://www.w3.org/Graphics/SVG/1.1/DTD/svg11.dtd">
<!-- Generated by graphviz version 2.40.1 (20161225.0304)
 -->
<!-- Title: G Pages: 1 -->
<svg width="1102pt" height="602pt"
 viewBox="0.00 0.00 1102.20 602.20" xmlns="http://www.w3.org/2000/svg" xmlns:xlink="http://www.w3.org/1999/xlink">
<g id="graph0" class="graph" transform="scale(1 1) rotate(0) translate(21.6 580.6)">
<title>G</title>
<polygon fill="#111111" stroke="transparent" points="-21.6,21.6 -21.6,-580.6 1080.6,-580.6 1080.6,21.6 -21.6,21.6"/>
<!-- constants/constants.js -->
<g id="node1" class="node">
<title>constants/constants.js</title>
<path fill="none" stroke="#cfffac" d="M1047.8333,-262C1047.8333,-262 902.1667,-262 902.1667,-262 898.3333,-262 894.5,-258.1667 894.5,-254.3333 894.5,-254.3333 894.5,-246.6667 894.5,-246.6667 894.5,-242.8333 898.3333,-239 902.1667,-239 902.1667,-239 1047.8333,-239 1047.8333,-239 1051.6667,-239 1055.5,-242.8333 1055.5,-246.6667 1055.5,-246.6667 1055.5,-254.3333 1055.5,-254.3333 1055.5,-258.1667 1051.6667,-262 1047.8333,-262"/>
<text text-anchor="middle" x="975" y="-246.8" font-family="Arial" font-size="14.00" fill="#cfffac">constants/constants.js</text>
</g>
<!-- constants/response.js -->
<g id="node2" class="node">
<title>constants/response.js</title>
<path fill="none" stroke="#cfffac" d="M827.8333,-63C827.8333,-63 685.1667,-63 685.1667,-63 681.3333,-63 677.5,-59.1667 677.5,-55.3333 677.5,-55.3333 677.5,-47.6667 677.5,-47.6667 677.5,-43.8333 681.3333,-40 685.1667,-40 685.1667,-40 827.8333,-40 827.8333,-40 831.6667,-40 835.5,-43.8333 835.5,-47.6667 835.5,-47.6667 835.5,-55.3333 835.5,-55.3333 835.5,-59.1667 831.6667,-63 827.8333,-63"/>
<text text-anchor="middle" x="756.5" y="-47.8" font-family="Arial" font-size="14.00" fill="#cfffac">constants/response.js</text>
</g>
<!-- controllers/accessToken.js -->
<g id="node3" class="node">
<title>controllers/accessToken.js</title>
<path fill="none" stroke="#cfffac" d="M180.3333,-354C180.3333,-354 7.6667,-354 7.6667,-354 3.8333,-354 0,-350.1667 0,-346.3333 0,-346.3333 0,-338.6667 0,-338.6667 0,-334.8333 3.8333,-331 7.6667,-331 7.6667,-331 180.3333,-331 180.3333,-331 184.1667,-331 188,-334.8333 188,-338.6667 188,-338.6667 188,-346.3333 188,-346.3333 188,-350.1667 184.1667,-354 180.3333,-354"/>
<text text-anchor="middle" x="94" y="-338.8" font-family="Arial" font-size="14.00" fill="#cfffac">controllers/accessToken.js</text>
</g>
<!-- controllers/authorizer.js -->
<g id="node4" class="node">
<title>controllers/authorizer.js</title>
<path fill="none" stroke="#c6c5fe" d="M382.3333,-380C382.3333,-380 231.6667,-380 231.6667,-380 227.8333,-380 224,-376.1667 224,-372.3333 224,-372.3333 224,-364.6667 224,-364.6667 224,-360.8333 227.8333,-357 231.6667,-357 231.6667,-357 382.3333,-357 382.3333,-357 386.1667,-357 390,-360.8333 390,-364.6667 390,-364.6667 390,-372.3333 390,-372.3333 390,-376.1667 386.1667,-380 382.3333,-380"/>
<text text-anchor="middle" x="307" y="-364.8" font-family="Arial" font-size="14.00" fill="#c6c5fe">controllers/authorizer.js</text>
</g>
<!-- database/database.js -->
<g id="node5" class="node">
<title>database/database.js</title>
<path fill="none" stroke="#c6c5fe" d="M594.3333,-421C594.3333,-421 453.6667,-421 453.6667,-421 449.8333,-421 446,-417.1667 446,-413.3333 446,-413.3333 446,-405.6667 446,-405.6667 446,-401.8333 449.8333,-398 453.6667,-398 453.6667,-398 594.3333,-398 594.3333,-398 598.1667,-398 602,-401.8333 602,-405.6667 602,-405.6667 602,-413.3333 602,-413.3333 602,-417.1667 598.1667,-421 594.3333,-421"/>
<text text-anchor="middle" x="524" y="-405.8" font-family="Arial" font-size="14.00" fill="#c6c5fe">database/database.js</text>
</g>
<!-- controllers/authorizer.js&#45;&gt;database/database.js -->
<g id="edge1" class="edge">
<title>controllers/authorizer.js&#45;&gt;database/database.js</title>
<path fill="none" stroke="#757575" d="M368.0241,-380.0299C394.4844,-385.0293 425.6372,-390.9153 453.1162,-396.1072"/>
<polygon fill="#757575" stroke="#757575" points="452.5824,-399.5682 463.0584,-397.9857 453.882,-392.6899 452.5824,-399.5682"/>
</g>
<!-- repositories/accessToken.js -->
<g id="node6" class="node">
<title>repositories/accessToken.js</title>
<path fill="none" stroke="#c6c5fe" d="M614.3333,-380C614.3333,-380 433.6667,-380 433.6667,-380 429.8333,-380 426,-376.1667 426,-372.3333 426,-372.3333 426,-364.6667 426,-364.6667 426,-360.8333 429.8333,-357 433.6667,-357 433.6667,-357 614.3333,-357 614.3333,-357 618.1667,-357 622,-360.8333 622,-364.6667 622,-364.6667 622,-372.3333 622,-372.3333 622,-376.1667 618.1667,-380 614.3333,-380"/>
<text text-anchor="middle" x="524" y="-364.8" font-family="Arial" font-size="14.00" fill="#c6c5fe">repositories/accessToken.js</text>
</g>
<!-- controllers/authorizer.js&#45;&gt;repositories/accessToken.js -->
<g id="edge2" class="edge">
<title>controllers/authorizer.js&#45;&gt;repositories/accessToken.js</title>
<path fill="none" stroke="#757575" d="M390.2773,-368.5C398.6102,-368.5 407.1532,-368.5 415.6946,-368.5"/>
<polygon fill="#757575" stroke="#757575" points="415.7081,-372.0001 425.7081,-368.5 415.7081,-365.0001 415.7081,-372.0001"/>
</g>
<!-- helpers/logging.js -->
<g id="node14" class="node">
<title>helpers/logging.js</title>
<path fill="none" stroke="#c6c5fe" d="M813.8333,-262C813.8333,-262 699.1667,-262 699.1667,-262 695.3333,-262 691.5,-258.1667 691.5,-254.3333 691.5,-254.3333 691.5,-246.6667 691.5,-246.6667 691.5,-242.8333 695.3333,-239 699.1667,-239 699.1667,-239 813.8333,-239 813.8333,-239 817.6667,-239 821.5,-242.8333 821.5,-246.6667 821.5,-246.6667 821.5,-254.3333 821.5,-254.3333 821.5,-258.1667 817.6667,-262 813.8333,-262"/>
<text text-anchor="middle" x="756.5" y="-246.8" font-family="Arial" font-size="14.00" fill="#c6c5fe">helpers/logging.js</text>
</g>
<!-- database/database.js&#45;&gt;helpers/logging.js -->
<g id="edge10" class="edge">
<title>database/database.js&#45;&gt;helpers/logging.js</title>
<path fill="none" stroke="#757575" d="M602.0112,-400.8587C609.204,-397.9715 616.022,-394.2582 622,-389.5 652.1893,-365.4709 632.3947,-339.3645 658,-310.5 674.7478,-291.6204 698.8806,-276.7872 719.067,-266.5925"/>
<polygon fill="#757575" stroke="#757575" points="720.8499,-269.6175 728.3158,-262.1002 717.7916,-263.321 720.8499,-269.6175"/>
</g>
<!-- models/modelAssociation.js -->
<g id="node15" class="node">
<title>models/modelAssociation.js</title>
<path fill="none" stroke="#c6c5fe" d="M847.3333,-463C847.3333,-463 665.6667,-463 665.6667,-463 661.8333,-463 658,-459.1667 658,-455.3333 658,-455.3333 658,-447.6667 658,-447.6667 658,-443.8333 661.8333,-440 665.6667,-440 665.6667,-440 847.3333,-440 847.3333,-440 851.1667,-440 855,-443.8333 855,-447.6667 855,-447.6667 855,-455.3333 855,-455.3333 855,-459.1667 851.1667,-463 847.3333,-463"/>
<text text-anchor="middle" x="756.5" y="-447.8" font-family="Arial" font-size="14.00" fill="#c6c5fe">models/modelAssociation.js</text>
</g>
<!-- database/database.js&#45;&gt;models/modelAssociation.js -->
<g id="edge11" class="edge">
<title>database/database.js&#45;&gt;models/modelAssociation.js</title>
<path fill="none" stroke="#757575" d="M587.8392,-421.0322C617.1884,-426.334 652.1746,-432.6541 682.6541,-438.1601"/>
<polygon fill="#757575" stroke="#757575" points="682.3403,-441.66 692.8032,-439.9935 683.5847,-434.7715 682.3403,-441.66"/>
</g>
<!-- models/modelInit.js -->
<g id="node16" class="node">
<title>models/modelInit.js</title>
<path fill="none" stroke="#c6c5fe" d="M818.8333,-422C818.8333,-422 694.1667,-422 694.1667,-422 690.3333,-422 686.5,-418.1667 686.5,-414.3333 686.5,-414.3333 686.5,-406.6667 686.5,-406.6667 686.5,-402.8333 690.3333,-399 694.1667,-399 694.1667,-399 818.8333,-399 818.8333,-399 822.6667,-399 826.5,-402.8333 826.5,-406.6667 826.5,-406.6667 826.5,-414.3333 826.5,-414.3333 826.5,-418.1667 822.6667,-422 818.8333,-422"/>
<text text-anchor="middle" x="756.5" y="-406.8" font-family="Arial" font-size="14.00" fill="#c6c5fe">models/modelInit.js</text>
</g>
<!-- database/database.js&#45;&gt;models/modelInit.js -->
<g id="edge12" class="edge">
<title>database/database.js&#45;&gt;models/modelInit.js</title>
<path fill="none" stroke="#757575" d="M602.0659,-409.8358C625.9602,-409.9385 652.2756,-410.0517 676.3088,-410.1551"/>
<polygon fill="#757575" stroke="#757575" points="676.4404,-413.6556 686.4554,-410.1987 676.4706,-406.6557 676.4404,-413.6556"/>
</g>
<!-- models/accessToken.js -->
<g id="node22" class="node">
<title>models/accessToken.js</title>
<path fill="none" stroke="#cfffac" d="M1051.3333,-381C1051.3333,-381 898.6667,-381 898.6667,-381 894.8333,-381 891,-377.1667 891,-373.3333 891,-373.3333 891,-365.6667 891,-365.6667 891,-361.8333 894.8333,-358 898.6667,-358 898.6667,-358 1051.3333,-358 1051.3333,-358 1055.1667,-358 1059,-361.8333 1059,-365.6667 1059,-365.6667 1059,-373.3333 1059,-373.3333 1059,-377.1667 1055.1667,-381 1051.3333,-381"/>
<text text-anchor="middle" x="975" y="-365.8" font-family="Arial" font-size="14.00" fill="#cfffac">models/accessToken.js</text>
</g>
<!-- repositories/accessToken.js&#45;&gt;models/accessToken.js -->
<g id="edge28" class="edge">
<title>repositories/accessToken.js&#45;&gt;models/accessToken.js</title>
<path fill="none" stroke="#757575" d="M622.1383,-368.7176C698.8917,-368.8878 804.9355,-369.1229 880.6916,-369.2909"/>
<polygon fill="#757575" stroke="#757575" points="880.6991,-372.7908 890.7069,-369.3131 880.7147,-365.7908 880.6991,-372.7908"/>
</g>
<!-- controllers/idea.js -->
<g id="node7" class="node">
<title>controllers/idea.js</title>
<path fill="none" stroke="#cfffac" d="M150.8333,-395C150.8333,-395 37.1667,-395 37.1667,-395 33.3333,-395 29.5,-391.1667 29.5,-387.3333 29.5,-387.3333 29.5,-379.6667 29.5,-379.6667 29.5,-375.8333 33.3333,-372 37.1667,-372 37.1667,-372 150.8333,-372 150.8333,-372 154.6667,-372 158.5,-375.8333 158.5,-379.6667 158.5,-379.6667 158.5,-387.3333 158.5,-387.3333 158.5,-391.1667 154.6667,-395 150.8333,-395"/>
<text text-anchor="middle" x="94" y="-379.8" font-family="Arial" font-size="14.00" fill="#cfffac">controllers/idea.js</text>
</g>
<!-- controllers/user.js -->
<g id="node8" class="node">
<title>controllers/user.js</title>
<path fill="none" stroke="#c6c5fe" d="M364.3333,-203C364.3333,-203 249.6667,-203 249.6667,-203 245.8333,-203 242,-199.1667 242,-195.3333 242,-195.3333 242,-187.6667 242,-187.6667 242,-183.8333 245.8333,-180 249.6667,-180 249.6667,-180 364.3333,-180 364.3333,-180 368.1667,-180 372,-183.8333 372,-187.6667 372,-187.6667 372,-195.3333 372,-195.3333 372,-199.1667 368.1667,-203 364.3333,-203"/>
<text text-anchor="middle" x="307" y="-187.8" font-family="Arial" font-size="14.00" fill="#c6c5fe">controllers/user.js</text>
</g>
<!-- controllers/user.js&#45;&gt;constants/response.js -->
<g id="edge3" class="edge">
<title>controllers/user.js&#45;&gt;constants/response.js</title>
<path fill="none" stroke="#757575" d="M314.129,-179.7754C330.3117,-154.3953 372.5971,-94.7065 426,-70.5 502.0866,-36.0114 598.3169,-34.5616 667.2881,-39.7512"/>
<polygon fill="#757575" stroke="#757575" points="667.01,-43.2401 677.2608,-40.5619 667.5773,-36.2631 667.01,-43.2401"/>
</g>
<!-- controllers/user.js&#45;&gt;repositories/accessToken.js -->
<g id="edge6" class="edge">
<title>controllers/user.js&#45;&gt;repositories/accessToken.js</title>
<path fill="none" stroke="#757575" d="M329.4869,-203.0114C347.9487,-213.463 373.631,-230.4432 390,-251.5 416.6943,-285.839 393.4939,-313.6018 426,-342.5 430.3824,-346.396 435.2837,-349.7183 440.4947,-352.5503"/>
<polygon fill="#757575" stroke="#757575" points="438.9884,-355.7095 449.5197,-356.868 442.0095,-349.395 438.9884,-355.7095"/>
</g>
<!-- helpers/crypto.js -->
<g id="node9" class="node">
<title>helpers/crypto.js</title>
<path fill="none" stroke="#cfffac" d="M577.3333,-144C577.3333,-144 470.6667,-144 470.6667,-144 466.8333,-144 463,-140.1667 463,-136.3333 463,-136.3333 463,-128.6667 463,-128.6667 463,-124.8333 466.8333,-121 470.6667,-121 470.6667,-121 577.3333,-121 577.3333,-121 581.1667,-121 585,-124.8333 585,-128.6667 585,-128.6667 585,-136.3333 585,-136.3333 585,-140.1667 581.1667,-144 577.3333,-144"/>
<text text-anchor="middle" x="524" y="-128.8" font-family="Arial" font-size="14.00" fill="#cfffac">helpers/crypto.js</text>
</g>
<!-- controllers/user.js&#45;&gt;helpers/crypto.js -->
<g id="edge4" class="edge">
<title>controllers/user.js&#45;&gt;helpers/crypto.js</title>
<path fill="none" stroke="#757575" d="M348.2733,-179.9323C371.1577,-173.5492 400.1357,-165.517 426,-158.5 440.3552,-154.6054 455.911,-150.4492 470.3107,-146.6283"/>
<polygon fill="#757575" stroke="#757575" points="471.2959,-149.9881 480.0661,-144.0439 469.5033,-143.2215 471.2959,-149.9881"/>
</g>
<!-- helpers/format.js -->
<g id="node10" class="node">
<title>helpers/format.js</title>
<path fill="none" stroke="#cfffac" d="M577.8333,-103C577.8333,-103 470.1667,-103 470.1667,-103 466.3333,-103 462.5,-99.1667 462.5,-95.3333 462.5,-95.3333 462.5,-87.6667 462.5,-87.6667 462.5,-83.8333 466.3333,-80 470.1667,-80 470.1667,-80 577.8333,-80 577.8333,-80 581.6667,-80 585.5,-83.8333 585.5,-87.6667 585.5,-87.6667 585.5,-95.3333 585.5,-95.3333 585.5,-99.1667 581.6667,-103 577.8333,-103"/>
<text text-anchor="middle" x="524" y="-87.8" font-family="Arial" font-size="14.00" fill="#cfffac">helpers/format.js</text>
</g>
<!-- controllers/user.js&#45;&gt;helpers/format.js -->
<g id="edge5" class="edge">
<title>controllers/user.js&#45;&gt;helpers/format.js</title>
<path fill="none" stroke="#757575" d="M320.26,-179.9874C341.226,-162.4162 383.9795,-129.0975 426,-111.5 434.3512,-108.0026 443.366,-105.1002 452.4275,-102.6956"/>
<polygon fill="#757575" stroke="#757575" points="453.3763,-106.0665 462.2494,-100.277 451.7025,-99.2696 453.3763,-106.0665"/>
</g>
<!-- repositories/user.js -->
<g id="node11" class="node">
<title>repositories/user.js</title>
<path fill="none" stroke="#c6c5fe" d="M817.8333,-342C817.8333,-342 695.1667,-342 695.1667,-342 691.3333,-342 687.5,-338.1667 687.5,-334.3333 687.5,-334.3333 687.5,-326.6667 687.5,-326.6667 687.5,-322.8333 691.3333,-319 695.1667,-319 695.1667,-319 817.8333,-319 817.8333,-319 821.6667,-319 825.5,-322.8333 825.5,-326.6667 825.5,-326.6667 825.5,-334.3333 825.5,-334.3333 825.5,-338.1667 821.6667,-342 817.8333,-342"/>
<text text-anchor="middle" x="756.5" y="-326.8" font-family="Arial" font-size="14.00" fill="#c6c5fe">repositories/user.js</text>
</g>
<!-- controllers/user.js&#45;&gt;repositories/user.js -->
<g id="edge7" class="edge">
<title>controllers/user.js&#45;&gt;repositories/user.js</title>
<path fill="none" stroke="#757575" d="M338.1628,-203.0155C362.0786,-211.7271 395.9783,-223.8042 426,-233.5 523.9682,-265.1398 639.6419,-298.0935 704.8991,-316.2842"/>
<polygon fill="#757575" stroke="#757575" points="703.969,-319.6583 714.5412,-318.9668 705.8452,-312.9144 703.969,-319.6583"/>
</g>
<!-- services/gravatar.js -->
<g id="node12" class="node">
<title>services/gravatar.js</title>
<path fill="none" stroke="#c6c5fe" d="M587.3333,-224C587.3333,-224 460.6667,-224 460.6667,-224 456.8333,-224 453,-220.1667 453,-216.3333 453,-216.3333 453,-208.6667 453,-208.6667 453,-204.8333 456.8333,-201 460.6667,-201 460.6667,-201 587.3333,-201 587.3333,-201 591.1667,-201 595,-204.8333 595,-208.6667 595,-208.6667 595,-216.3333 595,-216.3333 595,-220.1667 591.1667,-224 587.3333,-224"/>
<text text-anchor="middle" x="524" y="-208.8" font-family="Arial" font-size="14.00" fill="#c6c5fe">services/gravatar.js</text>
</g>
<!-- controllers/user.js&#45;&gt;services/gravatar.js -->
<g id="edge8" class="edge">
<title>controllers/user.js&#45;&gt;services/gravatar.js</title>
<path fill="none" stroke="#757575" d="M372.1072,-197.8007C394.2918,-199.9476 419.3743,-202.3749 442.6706,-204.6294"/>
<polygon fill="#757575" stroke="#757575" points="442.5897,-208.1378 452.8804,-205.6175 443.264,-201.1704 442.5897,-208.1378"/>
</g>
<!-- validations/user.js -->
<g id="node13" class="node">
<title>validations/user.js</title>
<path fill="none" stroke="#c6c5fe" d="M582.3333,-23C582.3333,-23 465.6667,-23 465.6667,-23 461.8333,-23 458,-19.1667 458,-15.3333 458,-15.3333 458,-7.6667 458,-7.6667 458,-3.8333 461.8333,0 465.6667,0 465.6667,0 582.3333,0 582.3333,0 586.1667,0 590,-3.8333 590,-7.6667 590,-7.6667 590,-15.3333 590,-15.3333 590,-19.1667 586.1667,-23 582.3333,-23"/>
<text text-anchor="middle" x="524" y="-7.8" font-family="Arial" font-size="14.00" fill="#c6c5fe">validations/user.js</text>
</g>
<!-- controllers/user.js&#45;&gt;validations/user.js -->
<g id="edge9" class="edge">
<title>controllers/user.js&#45;&gt;validations/user.js</title>
<path fill="none" stroke="#757575" d="M312.6273,-179.7385C327.1056,-150.7803 368.5766,-75.6263 426,-37.5 432.8287,-32.9661 440.4158,-29.2213 448.2593,-26.1286"/>
<polygon fill="#757575" stroke="#757575" points="449.6847,-29.3359 457.9201,-22.6704 447.3255,-22.7454 449.6847,-29.3359"/>
</g>
<!-- repositories/user.js&#45;&gt;models/accessToken.js -->
<g id="edge29" class="edge">
<title>repositories/user.js&#45;&gt;models/accessToken.js</title>
<path fill="none" stroke="#757575" d="M821.1703,-342.043C846.0553,-346.4847 874.665,-351.5912 900.41,-356.1865"/>
<polygon fill="#757575" stroke="#757575" points="900.0362,-359.675 910.4956,-357.9866 901.2662,-352.7839 900.0362,-359.675"/>
</g>
<!-- models/user.js -->
<g id="node24" class="node">
<title>models/user.js</title>
<path fill="none" stroke="#cfffac" d="M1022.3333,-422C1022.3333,-422 927.6667,-422 927.6667,-422 923.8333,-422 920,-418.1667 920,-414.3333 920,-414.3333 920,-406.6667 920,-406.6667 920,-402.8333 923.8333,-399 927.6667,-399 927.6667,-399 1022.3333,-399 1022.3333,-399 1026.1667,-399 1030,-402.8333 1030,-406.6667 1030,-406.6667 1030,-414.3333 1030,-414.3333 1030,-418.1667 1026.1667,-422 1022.3333,-422"/>
<text text-anchor="middle" x="975" y="-406.8" font-family="Arial" font-size="14.00" fill="#cfffac">models/user.js</text>
</g>
<!-- repositories/user.js&#45;&gt;models/user.js -->
<g id="edge30" class="edge">
<title>repositories/user.js&#45;&gt;models/user.js</title>
<path fill="none" stroke="#757575" d="M778.8306,-342.0089C805.1055,-355.1835 850.3162,-376.7158 891,-390.5 897.0564,-392.552 903.4267,-394.4754 909.8381,-396.2562"/>
<polygon fill="#757575" stroke="#757575" points="909.3442,-399.7465 919.9079,-398.9351 911.1439,-392.9817 909.3442,-399.7465"/>
</g>
<!-- services/gravatar.js&#45;&gt;constants/constants.js -->
<g id="edge31" class="edge">
<title>services/gravatar.js&#45;&gt;constants/constants.js</title>
<path fill="none" stroke="#757575" d="M595.2115,-214.0931C662.3698,-216.1344 765.7617,-220.6677 855,-230.5 870.7575,-232.2362 887.5907,-234.6736 903.5142,-237.2517"/>
<polygon fill="#757575" stroke="#757575" points="903.3887,-240.7786 913.8264,-238.9603 904.533,-233.8727 903.3887,-240.7786"/>
</g>
<!-- services/gravatar.js&#45;&gt;helpers/logging.js -->
<g id="edge32" class="edge">
<title>services/gravatar.js&#45;&gt;helpers/logging.js</title>
<path fill="none" stroke="#757575" d="M594.3886,-224.0044C621.7668,-228.4791 653.1866,-233.6144 681.0318,-238.1654"/>
<polygon fill="#757575" stroke="#757575" points="680.681,-241.6544 691.1146,-239.8134 681.8102,-234.7461 680.681,-241.6544"/>
</g>
<!-- validations/user.js&#45;&gt;constants/response.js -->
<g id="edge33" class="edge">
<title>validations/user.js&#45;&gt;constants/response.js</title>
<path fill="none" stroke="#757575" d="M590.0033,-22.8554C617.8648,-27.6488 650.4946,-33.2625 679.4497,-38.244"/>
<polygon fill="#757575" stroke="#757575" points="679.0756,-41.731 689.5243,-39.9773 680.2626,-34.8324 679.0756,-41.731"/>
</g>
<!-- helpers/logging.js&#45;&gt;constants/constants.js -->
<g id="edge21" class="edge">
<title>helpers/logging.js&#45;&gt;constants/constants.js</title>
<path fill="none" stroke="#757575" d="M821.7612,-250.5C841.3214,-250.5 863.1401,-250.5 884.0396,-250.5"/>
<polygon fill="#757575" stroke="#757575" points="884.2116,-254.0001 894.2116,-250.5 884.2116,-247.0001 884.2116,-254.0001"/>
</g>
<!-- models/modelAssociation.js&#45;&gt;models/accessToken.js -->
<g id="edge22" class="edge">
<title>models/modelAssociation.js&#45;&gt;models/accessToken.js</title>
<path fill="none" stroke="#757575" d="M836.6529,-439.9249C843.059,-437.6037 849.2631,-434.8251 855,-431.5 875.9804,-419.3398 870.2963,-403.1256 891,-390.5 894.3689,-388.4456 897.9302,-386.5916 901.6088,-384.9187"/>
<polygon fill="#757575" stroke="#757575" points="903.0056,-388.1291 910.9523,-381.122 900.3703,-381.6441 903.0056,-388.1291"/>
</g>
<!-- models/idea.js -->
<g id="node23" class="node">
<title>models/idea.js</title>
<path fill="none" stroke="#cfffac" d="M1022.3333,-463C1022.3333,-463 927.6667,-463 927.6667,-463 923.8333,-463 920,-459.1667 920,-455.3333 920,-455.3333 920,-447.6667 920,-447.6667 920,-443.8333 923.8333,-440 927.6667,-440 927.6667,-440 1022.3333,-440 1022.3333,-440 1026.1667,-440 1030,-443.8333 1030,-447.6667 1030,-447.6667 1030,-455.3333 1030,-455.3333 1030,-459.1667 1026.1667,-463 1022.3333,-463"/>
<text text-anchor="middle" x="975" y="-447.8" font-family="Arial" font-size="14.00" fill="#cfffac">models/idea.js</text>
</g>
<!-- models/modelAssociation.js&#45;&gt;models/idea.js -->
<g id="edge23" class="edge">
<title>models/modelAssociation.js&#45;&gt;models/idea.js</title>
<path fill="none" stroke="#757575" d="M855.2024,-451.5C873.559,-451.5 892.3165,-451.5 909.3759,-451.5"/>
<polygon fill="#757575" stroke="#757575" points="909.7596,-455.0001 919.7596,-451.5 909.7595,-448.0001 909.7596,-455.0001"/>
</g>
<!-- models/modelAssociation.js&#45;&gt;models/user.js -->
<g id="edge24" class="edge">
<title>models/modelAssociation.js&#45;&gt;models/user.js</title>
<path fill="none" stroke="#757575" d="M817.9459,-439.9701C846.6254,-434.5886 880.7798,-428.1798 909.9019,-422.7152"/>
<polygon fill="#757575" stroke="#757575" points="910.7927,-426.1092 919.9756,-420.8249 909.5017,-419.2293 910.7927,-426.1092"/>
</g>
<!-- models/modelInit.js&#45;&gt;models/accessToken.js -->
<g id="edge25" class="edge">
<title>models/modelInit.js&#45;&gt;models/accessToken.js</title>
<path fill="none" stroke="#757575" d="M817.9459,-398.9701C844.5891,-393.9707 875.9572,-388.0847 903.6262,-382.8928"/>
<polygon fill="#757575" stroke="#757575" points="904.4541,-386.2986 913.6371,-381.0143 903.1631,-379.4187 904.4541,-386.2986"/>
</g>
<!-- models/modelInit.js&#45;&gt;models/idea.js -->
<g id="edge26" class="edge">
<title>models/modelInit.js&#45;&gt;models/idea.js</title>
<path fill="none" stroke="#757575" d="M817.9459,-422.0299C846.6254,-427.4114 880.7798,-433.8202 909.9019,-439.2848"/>
<polygon fill="#757575" stroke="#757575" points="909.5017,-442.7707 919.9756,-441.1751 910.7927,-435.8908 909.5017,-442.7707"/>
</g>
<!-- models/modelInit.js&#45;&gt;models/user.js -->
<g id="edge27" class="edge">
<title>models/modelInit.js&#45;&gt;models/user.js</title>
<path fill="none" stroke="#757575" d="M826.5364,-410.5C853.204,-410.5 883.4659,-410.5 909.6793,-410.5"/>
<polygon fill="#757575" stroke="#757575" points="909.8864,-414.0001 919.8864,-410.5 909.8863,-407.0001 909.8864,-414.0001"/>
</g>
<!-- handlers/accessToken.js -->
<g id="node17" class="node">
<title>handlers/accessToken.js</title>
<path fill="none" stroke="#cfffac" d="M174.8333,-436C174.8333,-436 13.1667,-436 13.1667,-436 9.3333,-436 5.5,-432.1667 5.5,-428.3333 5.5,-428.3333 5.5,-420.6667 5.5,-420.6667 5.5,-416.8333 9.3333,-413 13.1667,-413 13.1667,-413 174.8333,-413 174.8333,-413 178.6667,-413 182.5,-416.8333 182.5,-420.6667 182.5,-420.6667 182.5,-428.3333 182.5,-428.3333 182.5,-432.1667 178.6667,-436 174.8333,-436"/>
<text text-anchor="middle" x="94" y="-420.8" font-family="Arial" font-size="14.00" fill="#cfffac">handlers/accessToken.js</text>
</g>
<!-- handlers/authorizer.js -->
<g id="node18" class="node">
<title>handlers/authorizer.js</title>
<path fill="none" stroke="#c6c5fe" d="M163.8333,-313C163.8333,-313 24.1667,-313 24.1667,-313 20.3333,-313 16.5,-309.1667 16.5,-305.3333 16.5,-305.3333 16.5,-297.6667 16.5,-297.6667 16.5,-293.8333 20.3333,-290 24.1667,-290 24.1667,-290 163.8333,-290 163.8333,-290 167.6667,-290 171.5,-293.8333 171.5,-297.6667 171.5,-297.6667 171.5,-305.3333 171.5,-305.3333 171.5,-309.1667 167.6667,-313 163.8333,-313"/>
<text text-anchor="middle" x="94" y="-297.8" font-family="Arial" font-size="14.00" fill="#c6c5fe">handlers/authorizer.js</text>
</g>
<!-- handlers/authorizer.js&#45;&gt;controllers/authorizer.js -->
<g id="edge13" class="edge">
<title>handlers/authorizer.js&#45;&gt;controllers/authorizer.js</title>
<path fill="none" stroke="#757575" d="M152.0191,-313.038C164.0017,-315.8182 176.4781,-319.0073 188,-322.5 216.3775,-331.1022 247.6187,-343.2872 270.9678,-352.9554"/>
<polygon fill="#757575" stroke="#757575" points="269.884,-356.2959 280.4601,-356.927 272.5859,-349.8383 269.884,-356.2959"/>
</g>
<!-- helpers/context.js -->
<g id="node19" class="node">
<title>helpers/context.js</title>
<path fill="none" stroke="#c6c5fe" d="M364.3333,-283C364.3333,-283 249.6667,-283 249.6667,-283 245.8333,-283 242,-279.1667 242,-275.3333 242,-275.3333 242,-267.6667 242,-267.6667 242,-263.8333 245.8333,-260 249.6667,-260 249.6667,-260 364.3333,-260 364.3333,-260 368.1667,-260 372,-263.8333 372,-267.6667 372,-267.6667 372,-275.3333 372,-275.3333 372,-279.1667 368.1667,-283 364.3333,-283"/>
<text text-anchor="middle" x="307" y="-267.8" font-family="Arial" font-size="14.00" fill="#c6c5fe">helpers/context.js</text>
</g>
<!-- handlers/authorizer.js&#45;&gt;helpers/context.js -->
<g id="edge14" class="edge">
<title>handlers/authorizer.js&#45;&gt;helpers/context.js</title>
<path fill="none" stroke="#757575" d="M171.5004,-290.5844C191.1512,-287.8167 212.2278,-284.8482 231.7643,-282.0966"/>
<polygon fill="#757575" stroke="#757575" points="232.4105,-285.5402 241.8246,-280.6796 231.4341,-278.6086 232.4105,-285.5402"/>
</g>
<!-- helpers/context.js&#45;&gt;constants/constants.js -->
<g id="edge17" class="edge">
<title>helpers/context.js&#45;&gt;constants/constants.js</title>
<path fill="none" stroke="#757575" d="M372.145,-275.4932C475.0035,-280.9 681.2107,-288.0959 855,-271.5 872.776,-269.8025 891.8792,-266.9405 909.5008,-263.8668"/>
<polygon fill="#757575" stroke="#757575" points="910.4589,-267.2508 919.6836,-262.0397 909.2227,-260.3608 910.4589,-267.2508"/>
</g>
<!-- helpers/context.js&#45;&gt;constants/response.js -->
<g id="edge18" class="edge">
<title>helpers/context.js&#45;&gt;constants/response.js</title>
<path fill="none" stroke="#757575" d="M322.7397,-259.9459C349.8101,-240.265 404.3587,-201.4892 426,-192.5 508.1053,-158.3956 540.9187,-188.9722 622,-152.5 667.6995,-131.9433 712.567,-93.5637 737.1839,-70.4919"/>
<polygon fill="#757575" stroke="#757575" points="739.9035,-72.7349 744.7279,-63.3022 735.0742,-67.6676 739.9035,-72.7349"/>
</g>
<!-- helpers/context.js&#45;&gt;database/database.js -->
<g id="edge19" class="edge">
<title>helpers/context.js&#45;&gt;database/database.js</title>
<path fill="none" stroke="#757575" d="M320.3293,-283.104C337.0605,-297.8397 366.4236,-324.2695 390,-348.5 406.911,-365.8801 405.0256,-377.3294 426,-389.5 429.2714,-391.3983 432.6955,-393.1183 436.2227,-394.6766"/>
<polygon fill="#757575" stroke="#757575" points="435.1791,-398.0272 445.7661,-398.4356 437.7445,-391.5142 435.1791,-398.0272"/>
</g>
<!-- helpers/context.js&#45;&gt;helpers/logging.js -->
<g id="edge20" class="edge">
<title>helpers/context.js&#45;&gt;helpers/logging.js</title>
<path fill="none" stroke="#757575" d="M372.3612,-268.4464C454.4546,-264.6111 595.0014,-258.045 681.4214,-254.0076"/>
<polygon fill="#757575" stroke="#757575" points="681.5992,-257.5032 691.425,-253.5402 681.2725,-250.5108 681.5992,-257.5032"/>
</g>
<!-- handlers/idea.js -->
<g id="node20" class="node">
<title>handlers/idea.js</title>
<path fill="none" stroke="#cfffac" d="M145.8333,-477C145.8333,-477 42.1667,-477 42.1667,-477 38.3333,-477 34.5,-473.1667 34.5,-469.3333 34.5,-469.3333 34.5,-461.6667 34.5,-461.6667 34.5,-457.8333 38.3333,-454 42.1667,-454 42.1667,-454 145.8333,-454 145.8333,-454 149.6667,-454 153.5,-457.8333 153.5,-461.6667 153.5,-461.6667 153.5,-469.3333 153.5,-469.3333 153.5,-473.1667 149.6667,-477 145.8333,-477"/>
<text text-anchor="middle" x="94" y="-461.8" font-family="Arial" font-size="14.00" fill="#cfffac">handlers/idea.js</text>
</g>
<!-- handlers/user.js -->
<g id="node21" class="node">
<title>handlers/user.js</title>
<path fill="none" stroke="#c6c5fe" d="M145.8333,-253C145.8333,-253 42.1667,-253 42.1667,-253 38.3333,-253 34.5,-249.1667 34.5,-245.3333 34.5,-245.3333 34.5,-237.6667 34.5,-237.6667 34.5,-233.8333 38.3333,-230 42.1667,-230 42.1667,-230 145.8333,-230 145.8333,-230 149.6667,-230 153.5,-233.8333 153.5,-237.6667 153.5,-237.6667 153.5,-245.3333 153.5,-245.3333 153.5,-249.1667 149.6667,-253 145.8333,-253"/>
<text text-anchor="middle" x="94" y="-237.8" font-family="Arial" font-size="14.00" fill="#c6c5fe">handlers/user.js</text>
</g>
<!-- handlers/user.js&#45;&gt;controllers/user.js -->
<g id="edge15" class="edge">
<title>handlers/user.js&#45;&gt;controllers/user.js</title>
<path fill="none" stroke="#757575" d="M143.1339,-229.9662C174.3095,-222.648 214.8331,-213.1354 247.7813,-205.4011"/>
<polygon fill="#757575" stroke="#757575" points="248.8092,-208.755 257.7447,-203.0623 247.2095,-201.9403 248.8092,-208.755"/>
</g>
<!-- handlers/user.js&#45;&gt;helpers/context.js -->
<g id="edge16" class="edge">
<title>handlers/user.js&#45;&gt;helpers/context.js</title>
<path fill="none" stroke="#757575" d="M153.6156,-249.8966C177.8445,-253.3091 206.1182,-257.2913 231.744,-260.9006"/>
<polygon fill="#757575" stroke="#757575" points="231.403,-264.387 241.7934,-262.316 232.3793,-257.4554 231.403,-264.387"/>
</g>
<!-- repositories/idea.js -->
<g id="node25" class="node">
<title>repositories/idea.js</title>
<path fill="none" stroke="#cfffac" d="M154.8333,-518C154.8333,-518 33.1667,-518 33.1667,-518 29.3333,-518 25.5,-514.1667 25.5,-510.3333 25.5,-510.3333 25.5,-502.6667 25.5,-502.6667 25.5,-498.8333 29.3333,-495 33.1667,-495 33.1667,-495 154.8333,-495 154.8333,-495 158.6667,-495 162.5,-498.8333 162.5,-502.6667 162.5,-502.6667 162.5,-510.3333 162.5,-510.3333 162.5,-514.1667 158.6667,-518 154.8333,-518"/>
<text text-anchor="middle" x="94" y="-502.8" font-family="Arial" font-size="14.00" fill="#cfffac">repositories/idea.js</text>
</g>
<!-- validations/idea.js -->
<g id="node26" class="node">
<title>validations/idea.js</title>
<path fill="none" stroke="#cfffac" d="M151.8333,-559C151.8333,-559 36.1667,-559 36.1667,-559 32.3333,-559 28.5,-555.1667 28.5,-551.3333 28.5,-551.3333 28.5,-543.6667 28.5,-543.6667 28.5,-539.8333 32.3333,-536 36.1667,-536 36.1667,-536 151.8333,-536 151.8333,-536 155.6667,-536 159.5,-539.8333 159.5,-543.6667 159.5,-543.6667 159.5,-551.3333 159.5,-551.3333 159.5,-555.1667 155.6667,-559 151.8333,-559"/>
<text text-anchor="middle" x="94" y="-543.8" font-family="Arial" font-size="14.00" fill="#cfffac">validations/idea.js</text>
</g>
</g>
</svg>
